SplineFontDB: 3.2
FontName: Beyond
FullName: Beyond
FamilyName: Beyond
Weight: Standard
Copyright: Copyright (c) 2023, Karl Granli, Beyond Code AS
UComments: "2023-7-18: Created with FontForge (http://fontforge.org)"
Version: 001.000
ItalicAngle: 0
UnderlinePosition: -275
UnderlineWidth: 225
Ascent: 725
Descent: 275
InvalidEm: 0
LayerCount: 2
Layer: 0 0 "Back" 1
Layer: 1 0 "Fore" 0
XUID: [1021 988 -204709491 1551539]
StyleMap: 0x0000
FSType: 0
OS2Version: 0
OS2_WeightWidthSlopeOnly: 0
OS2_UseTypoMetrics: 1
CreationTime: 1689690114
ModificationTime: 1728140298
OS2TypoAscent: 0
OS2TypoAOffset: 1
OS2TypoDescent: 0
OS2TypoDOffset: 1
OS2TypoLinegap: 90
OS2WinAscent: 0
OS2WinAOffset: 1
OS2WinDescent: 0
OS2WinDOffset: 1
HheadAscent: 0
HheadAOffset: 1
HheadDescent: 0
HheadDOffset: 1
Lookup: 258 0 0 "'kern' Horizontal Kerning in Latin lookup 0" { "'kern' Horizontal Kerning in Latin lookup 0-1" [150,15,6] } ['kern' ('DFLT' <'dflt' > 'latn' <'dflt' > ) ]
MarkAttachClasses: 1
DEI: 91125

StartChar: g
Encoding: 103 103 0
Width: 550
Flags: HMW
HStem: -225 75<242 353> 0 75<198 352> 375 75<198 352>
VStem: 50 75<148 302> 425 75<-78 57 147 302>
LayerCount: 2
Fore
SplineSet
275 0 m 0
 151 0 50 101 50 225 c 0
 50 349 151 450 275 450 c 0
 399 450 500 349 500 225 c 2
 500 0 l 2
 500 -30 494 -59 483 -86 c 0
 472 -113 455 -138 434 -159 c 0
 413 -180 388 -197 361 -208 c 0
 334 -219 305 -225 275 -225 c 0
 254 -225 238 -208 238 -188 c 0
 238 -167 254 -150 275 -150 c 0
 295 -150 314 -146 332 -139 c 0
 351 -131 367 -120 381 -106 c 0
 395 -92 406 -76 414 -57 c 0
 421 -39 425 -20 425 0 c 2
 425 57 l 1
 385 22 333 0 275 0 c 0
125 225 m 0
 125 142 192 75 275 75 c 0
 358 75 425 142 425 225 c 0
 425 308 358 375 275 375 c 0
 192 375 125 308 125 225 c 0
EndSplineSet
EndChar

StartChar: A
Encoding: 65 65 1
Width: 550
Flags: W
HStem: 0 21G<77.5 98 452 472.5> 225 75<197.58 352.42> 600 75<197.446 352.554>
VStem: 50 75<3.74496 282 372.15 527.257> 425 75<3.74496 282 372.15 527.257>
LayerCount: 2
Fore
SplineSet
275 225 m 4
 217 225 165 247 125 282 c 5
 125 38 l 6
 125 17 108 0 88 0 c 4
 67 0 50 17 50 38 c 6
 50 450 l 6
 50 574 151 675 275 675 c 4
 399 675 500 574 500 450 c 6
 500 38 l 6
 500 17 483 0 462 0 c 4
 442 0 425 17 425 38 c 6
 425 282 l 5
 385 247 333 225 275 225 c 4
275 300 m 4
 358 300 425 367 425 450 c 4
 425 533 358 600 275 600 c 4
 192 600 125 533 125 450 c 4
 125 367 192 300 275 300 c 4
EndSplineSet
EndChar

StartChar: B
Encoding: 66 66 2
Width: 550
Flags: W
HStem: 0 75<197.446 352.554> 375 75<197.58 322.491> 600 75<165.373 292.522>
VStem: 50 75<147.743 302.85 393 559.75> 333 75<446.425 558.427> 425 75<147.446 302.281>
LayerCount: 2
Fore
SplineSet
50 498 m 2
 50 498 50 498 50 499 c 0
 50 526 57 554 70 579 c 0
 83 604 103 626 126 643 c 0
 150 659 177 670 205 673 c 0
 213 674 222 675 230 675 c 0
 250 675 271 671 290 664 c 0
 317 655 341 638 360 617 c 0
 380 596 394 571 401 543 c 0
 405 528 408 512 408 496 c 0
 408 483 406 471 403 458 c 0
 400 444 396 431 390 419 c 1
 456 379 500 307 500 225 c 0
 500 101 399 0 275 0 c 0
 151 0 50 101 50 225 c 2
 50 498 l 2
125 498 m 0
 125 393 l 1
 165 428 217 450 275 450 c 0
 290 450 305 448 319 446 c 1
 324 455 328 464 330 474 c 0
 332 481 333 488 333 495 c 0
 333 505 331 514 329 523 c 0
 325 539 316 554 305 567 c 0
 294 579 280 588 264 594 c 0
 252 598 240 600 228 600 c 0
 224 600 219 600 215 599 c 0
 199 597 183 591 169 581 c 0
 156 572 144 559 137 544 c 0
 129 530 125 514 125 498 c 0
125 225 m 0
 125 142 192 75 275 75 c 0
 358 75 425 142 425 225 c 0
 425 308 358 375 275 375 c 0
 192 375 125 308 125 225 c 0
EndSplineSet
EndChar

StartChar: C
Encoding: 67 67 3
Width: 540
Flags: W
HStem: 0 75<196.995 352.202> 600 75<196.995 352.202>
VStem: 50 75<148.938 526.062> 417 74<136.264 201.255 473.745 538.736>
LayerCount: 2
Fore
SplineSet
50 451 m 1
 50 504 69 556 104 596 c 0
 139 637 187 664 240 672 c 0
 252 674 264 675 276 675 c 0
 317 675 358 664 393 642 c 0
 438 614 472 571 489 520 c 0
 490 516 491 512 491 508 c 0
 491 487 474 470 453 470 c 0
 436 470 422 481 417 497 c 0
 406 531 384 559 353 578 c 0
 330 593 303 600 277 600 c 0
 268 600 260 599 252 598 c 0
 216 593 184 575 161 547 c 0
 138 521 125 487 125 451 c 2
 125 224 l 2
 125 188 138 154 161 128 c 0
 184 100 216 82 252 77 c 0
 260 76 268 75 277 75 c 0
 303 75 330 82 353 97 c 0
 384 116 406 144 417 178 c 0
 422 194 436 205 453 205 c 0
 474 205 491 188 491 167 c 0
 491 163 490 159 489 155 c 0
 472 104 438 61 393 33 c 0
 358 11 317 0 276 0 c 0
 264 0 252 1 240 3 c 0
 187 11 139 38 104 79 c 0
 69 119 50 171 50 224 c 1
 50 451 l 1
EndSplineSet
EndChar

StartChar: f
Encoding: 102 102 4
Width: 412
Flags: W
HStem: 0 21G<128 148> 375 75<53.9155 100 175 221.277> 600 75<248.277 358.277>
VStem: 100 75<3.91553 375 450 528.123>
LayerCount: 2
Fore
SplineSet
100 450 m 1
 100 480 105 508 117 536 c 0
 129 564 145 588 166 609 c 0
 187 630 211 646 239 658 c 0
 267 670 295 675 325 675 c 0
 345 675 362 658 362 638 c 0
 362 618 345 600 325 600 c 0
 315 600 294 598 268 588 c 0
 250 580 233 570 219 556 c 0
 205 542 194 526 186 508 c 0
 178 490 175 470 175 450 c 1
 188 450 l 2
 208 450 225 432 225 412 c 0
 225 392 208 375 188 375 c 2
 175 375 l 1
 175 38 l 2
 175 18 158 0 138 0 c 0
 118 0 100 18 100 38 c 2
 100 375 l 1
 88 375 l 2
 68 375 50 392 50 412 c 0
 50 432 68 450 88 450 c 2
 100 450 l 1
EndSplineSet
EndChar

StartChar: D
Encoding: 68 68 5
Width: 550
Flags: W
HStem: 0 75<125 267.163> 600 75<125 267.163>
VStem: 50 75<75 600> 425 75<232.979 442.607>
LayerCount: 2
Fore
SplineSet
88 675 m 2
 162 675 l 1
 164 675 l 2
 208 675 252 667 292 650 c 0
 333 633 369 608 401 576 c 0
 433 544 457 507 474 466 c 0
 491 425 500 382 500 338 c 0
 500 294 491 249 474 208 c 0
 457 167 433 131 401 99 c 0
 369 67 333 43 292 26 c 0
 252 9 208 0 164 0 c 2
 88 0 l 2
 68 0 50 18 50 38 c 2
 50 638 l 2
 50 658 68 675 88 675 c 2
263 580 m 0
 231 593 196 600 162 600 c 1
 125 600 l 1
 125 75 l 1
 162 75 l 1
 196 75 231 82 263 95 c 0
 295 108 324 128 348 152 c 0
 372 176 392 205 405 237 c 0
 418 269 425 304 425 338 c 0
 425 372 418 406 405 438 c 0
 392 470 372 499 348 523 c 0
 324 547 295 567 263 580 c 0
EndSplineSet
EndChar

StartChar: E
Encoding: 69 69 6
Width: 534
Flags: W
HStem: 0 75<199.164 352.338> 372 75<300.094 340.204>
LayerCount: 2
Fore
SplineSet
424 601 m 6
 424 600 l 6
 428 594 432 586 432 578 c 4
 432 558 414 541 394 541 c 4
 382 541 371 546 364 556 c 4
 346 580 319 595 290 599 c 4
 260 603 231 595 207 577 c 4
 183 559 168 533 164 503 c 4
 160 477 165 450 179 428 c 5
 183 430 186 432 190 434 c 4
 228 450 271 454 312 447 c 4
 330 445 344 429 344 410 c 4
 344 390 327 372 307 372 c 4
 305 372 302 373 300 373 c 4
 272 377 244 374 218 364 c 4
 192 354 170 335 154 313 c 4
 138 291 128 264 126 236 c 4
 124 208 129 180 142 155 c 4
 155 130 176 110 200 96 c 4
 224 82 252 74 280 75 c 4
 308 76 334 84 358 100 c 4
 382 116 400 137 412 163 c 4
 418 177 430 186 446 186 c 4
 466 186 484 168 484 148 c 4
 484 142 482 137 480 132 c 4
 462 94 435 61 400 38 c 4
 365 14 324 2 282 0 c 4
 240 -2 198 9 162 30 c 4
 126 51 96 83 76 120 c 4
 56 157 47 199 50 241 c 4
 53 283 69 323 93 357 c 4
 101 367 109 377 118 386 c 5
 94 424 83 469 89 513 c 4
 96 563 122 607 162 637 c 4
 202 667 250 680 300 673 c 4
 349 666 394 641 424 602 c 4
 424 601 l 6
EndSplineSet
EndChar

StartChar: F
Encoding: 70 70 7
Width: 506
Flags: W
HStem: 0 21G<78 98> 368 74<186.473 357.154>
VStem: 50 75<3.91553 302.918 392 527.362>
LayerCount: 2
Fore
SplineSet
91 580 m 0
 117 618 154 646 198 662 c 0
 242 678 290 679 334 667 c 0
 378 655 418 630 448 594 c 1
 454 588 456 579 456 570 c 0
 456 550 439 532 419 532 c 0
 407 532 397 538 390 547 c 0
 370 570 344 586 314 594 c 0
 284 602 253 601 224 591 c 0
 195 581 170 562 152 536 c 0
 134 510 125 481 125 450 c 1
 125 392 l 1
 147 411 170 426 198 436 c 0
 241 452 288 454 332 442 c 0
 348 438 361 424 361 406 c 0
 361 386 344 368 324 368 c 0
 320 368 317 369 313 370 c 0
 283 378 252 376 224 366 c 0
 195 356 170 337 152 311 c 0
 134 287 125 257 125 227 c 2
 125 38 l 2
 125 18 108 0 88 0 c 0
 68 0 50 18 50 38 c 2
 50 225 l 1
 50 226 l 1
 50 450 l 2
 50 496 65 542 91 580 c 0
EndSplineSet
EndChar

StartChar: G
Encoding: 71 71 8
Width: 550
Flags: W
HStem: 0 75<197.936 352.025> 320 75<261.723 405.594>
VStem: 50 75<148.938 527.926> 425 75<148.012 302.124>
LayerCount: 2
Fore
SplineSet
50 451 m 1
 50 504 70 556 104 596 c 0
 139 636 187 664 240 672 c 0
 293 680 346 670 392 642 c 0
 438 614 473 570 489 520 c 0
 491 516 491 512 491 508 c 0
 491 488 474 470 454 470 c 0
 437 470 422 481 418 497 c 0
 407 531 384 560 354 578 c 0
 324 596 288 604 252 598 c 0
 216 592 184 575 161 548 c 0
 138 521 125 487 125 451 c 2
 125 224 l 2
 125 188 138 155 161 128 c 0
 163 125 166 122 169 119 c 1
 197 91 235 75 275 75 c 0
 315 75 353 91 381 119 c 0
 409 147 425 185 425 225 c 0
 425 260 413 294 391 320 c 1
 295 320 l 2
 275 320 258 338 258 358 c 0
 258 378 275 395 295 395 c 0
 408 395 l 2
 418 395 428 390 434 384 c 0
 476 342 500 285 500 225 c 0
 500 201 496 178 489 156 c 0
 478 122 459 91 434 66 c 0
 433 64 l 0
 432 64 l 0
 420 52 406 41 392 33 c 0
 356 11 317 0 275 0 c 2
 274 0 l 2
 262 0 252 1 240 3 c 0
 193 11 150 32 116 66 c 0
 112 70 108 75 104 79 c 0
 70 119 50 171 50 224 c 1
 50 451 l 1
EndSplineSet
EndChar

StartChar: H
Encoding: 72 72 9
Width: 550
Flags: W
HStem: 0 21G<150 165 385 399.5> 332 74<199.344 351.685> 655 20G<78 98 452 472>
VStem: 50 75<103.108 259.897 350 671.277> 425 75<103.691 259.149 350 671.277>
LayerCount: 2
Fore
SplineSet
88 675 m 0
 108 675 125 658 125 638 c 2
 125 350 l 1
 131 356 138 361 146 366 c 0
 184 392 230 406 276 406 c 0
 322 406 366 392 404 366 c 0
 411 361 419 356 425 350 c 1
 425 638 l 2
 425 658 442 675 462 675 c 0
 482 675 500 658 500 638 c 2
 500 182 l 2
 500 162 498 142 492 122 c 0
 480 78 454 38 418 8 c 1
 412 3 404 0 395 0 c 0
 375 0 358 18 358 38 c 0
 358 50 363 60 372 67 c 0
 395 87 412 113 420 142 c 0
 424 155 425 168 425 182 c 1
 425 184 l 2
 425 200 422 216 416 232 c 0
 406 261 387 286 362 304 c 0
 337 322 306 332 275 332 c 0
 244 332 215 322 189 304 c 0
 163 286 144 262 134 233 c 0
 128 217 125 200 125 184 c 2
 125 182 l 1
 125 169 126 155 130 142 c 0
 138 112 154 87 178 67 c 0
 186 60 192 50 192 38 c 0
 192 18 175 0 155 0 c 0
 145 0 136 3 130 9 c 0
 94 39 70 79 58 123 c 0
 53 143 50 162 50 182 c 2
 50 638 l 2
 50 658 68 675 88 675 c 0
EndSplineSet
EndChar

StartChar: I
Encoding: 73 73 10
Width: 441
Flags: W
HStem: 0 21G<205 235> 655 20G<205 235>
VStem: 183 75<80 595>
LayerCount: 2
Fore
SplineSet
258 595 m 5
 258 80 l 5
 265 82 272 84 278 86 c 4
 296 94 313 105 327 119 c 5
 334 126 344 130 354 130 c 4
 374 130 392 113 392 93 c 4
 392 83 387 73 380 66 c 5
 359 45 335 29 307 17 c 4
 279 5 250 0 220 0 c 4
 190 0 162 5 134 17 c 4
 106 29 83 45 62 66 c 5
 55 73 50 83 50 93 c 4
 50 113 68 130 88 130 c 4
 98 130 107 126 114 119 c 5
 128 105 146 94 164 86 c 4
 170 84 176 82 183 80 c 5
 183 595 l 5
 176 593 170 590 164 588 c 4
 146 580 128 570 114 556 c 5
 107 549 98 544 88 544 c 4
 68 544 50 562 50 582 c 4
 50 592 55 602 62 609 c 5
 83 630 106 646 134 658 c 4
 162 670 190 675 220 675 c 4
 250 675 279 670 307 658 c 4
 335 646 359 630 380 609 c 5
 387 602 392 592 392 582 c 4
 392 562 374 544 354 544 c 4
 344 544 334 549 327 556 c 5
 313 570 296 580 278 588 c 4
 272 590 265 593 258 595 c 5
EndSplineSet
EndChar

StartChar: J
Encoding: 74 74 11
Width: 550
Flags: W
HStem: 0 75<197.837 352.163> 655 20G<452 472>
VStem: 50 75<148.19 258.277> 425 75<148.19 671.277>
LayerCount: 2
Fore
SplineSet
462 675 m 0
 482 675 500 658 500 638 c 2
 500 225 l 2
 500 195 495 167 483 139 c 0
 471 111 455 87 434 66 c 0
 413 45 389 29 361 17 c 0
 333 5 305 0 275 0 c 0
 245 0 217 5 189 17 c 0
 161 29 137 45 116 66 c 0
 95 87 79 111 67 139 c 0
 55 167 50 195 50 225 c 0
 50 245 68 262 88 262 c 0
 108 262 125 245 125 225 c 0
 125 224 l 0
 125 204 128 186 136 168 c 0
 144 150 155 133 169 119 c 0
 183 105 200 94 218 86 c 0
 236 78 255 75 275 75 c 0
 295 75 314 78 332 86 c 0
 350 94 367 105 381 119 c 0
 395 133 406 150 414 168 c 0
 422 186 425 205 425 225 c 2
 425 638 l 2
 425 658 442 675 462 675 c 0
EndSplineSet
EndChar

StartChar: a
Encoding: 97 97 13
Width: 550
Flags: W
HStem: 0 75<197.446 352.42> 375 75<197.446 352.554>
VStem: 50 75<147.446 302.554> 425 75<3.91553 58 147.15 302.257>
LayerCount: 2
Fore
SplineSet
425 58 m 5
 385 22 333 0 275 0 c 4
 151 0 50 101 50 225 c 4
 50 349 151 450 275 450 c 4
 399 450 500 349 500 225 c 6
 500 38 l 6
 500 18 482 0 462 0 c 4
 442 0 425 18 425 38 c 6
 425 58 l 5
425 225 m 4
 425 308 358 375 275 375 c 4
 192 375 125 308 125 225 c 4
 125 142 192 75 275 75 c 4
 358 75 425 142 425 225 c 4
EndSplineSet
EndChar

StartChar: b
Encoding: 98 98 14
Width: 550
Flags: W
HStem: 0 75<197.446 352.554> 375 75<197.58 352.554> 655 20G<78 98>
VStem: 50 75<147.743 302.85 392 671.277> 425 75<147.446 302.554>
LayerCount: 2
Fore
SplineSet
125 638 m 2
 125 392 l 1
 165 428 217 450 275 450 c 0
 399 450 500 349 500 225 c 0
 500 101 399 0 275 0 c 0
 151 0 50 101 50 225 c 2
 50 638 l 2
 50 658 68 675 88 675 c 0
 108 675 125 658 125 638 c 2
275 75 m 0
 358 75 425 142 425 225 c 0
 425 308 358 375 275 375 c 0
 192 375 125 308 125 225 c 0
 125 142 192 75 275 75 c 0
EndSplineSet
EndChar

StartChar: c
Encoding: 99 99 15
Width: 507
Flags: W
VStem: 50 75<147.701 303.296>
LayerCount: 2
Fore
SplineSet
448 80 m 0
 418 44 378 20 334 8 c 0
 290 -4 242 -2 198 14 c 0
 154 30 116 58 90 96 c 0
 64 134 50 180 50 226 c 0
 50 272 65 316 91 354 c 0
 117 392 155 420 199 436 c 0
 243 452 290 454 334 442 c 0
 378 430 418 404 448 368 c 1
 453 362 456 354 456 345 c 0
 456 325 439 308 419 308 c 0
 407 308 397 313 390 322 c 0
 370 345 343 362 314 370 c 0
 284 378 253 376 224 366 c 0
 195 356 170 337 152 312 c 0
 134 287 125 256 125 225 c 0
 125 194 134 165 152 139 c 0
 170 113 195 94 224 84 c 0
 253 74 284 72 314 80 c 0
 344 88 370 104 390 128 c 0
 397 136 407 142 419 142 c 0
 439 142 456 125 456 105 c 0
 456 95 454 86 448 80 c 0
EndSplineSet
EndChar

StartChar: d
Encoding: 100 100 16
Width: 550
Flags: W
HStem: 0 75<197.446 352.554> 375 75<197.446 352.42> 655 20G<452 472>
VStem: 50 75<147.446 302.554> 425 75<147.743 302.85 392 671.277>
LayerCount: 2
Fore
SplineSet
425 638 m 2
 425 658 442 675 462 675 c 0
 482 675 500 658 500 638 c 2
 500 225 l 2
 500 101 399 0 275 0 c 0
 151 0 50 101 50 225 c 0
 50 349 151 450 275 450 c 0
 333 450 385 428 425 392 c 1
 425 638 l 2
275 375 m 0
 192 375 125 308 125 225 c 0
 125 142 192 75 275 75 c 0
 358 75 425 142 425 225 c 0
 425 308 358 375 275 375 c 0
EndSplineSet
EndChar

StartChar: e
Encoding: 101 101 17
Width: 506
Flags: W
VStem: 50 75<195.183 303.296>
LayerCount: 2
Fore
SplineSet
448 80 m 0
 418 44 378 20 334 8 c 0
 290 -4 242 -2 198 14 c 0
 154 30 116 58 90 96 c 0
 64 134 50 180 50 226 c 0
 50 272 65 316 91 354 c 0
 117 392 155 420 199 436 c 0
 243 452 290 454 334 442 c 0
 378 430 418 404 448 368 c 1
 453 362 456 354 456 345 c 0
 456 333 450 321 440 314 c 2
 162 126 l 1
 178 107 200 92 224 84 c 0
 253 74 284 72 314 80 c 0
 344 88 370 104 390 128 c 0
 397 136 407 142 419 142 c 0
 439 142 456 125 456 105 c 0
 456 95 454 86 448 80 c 0
125 225 m 0
 125 215 126 204 128 194 c 1
 359 350 l 1
 345 359 330 366 314 370 c 0
 284 378 253 376 224 366 c 0
 195 356 170 337 152 312 c 0
 134 287 125 256 125 225 c 0
EndSplineSet
EndChar

StartChar: h
Encoding: 104 104 18
Width: 550
Flags: W
HStem: 375 75<197.701 353.296> 655 20G<78 98>
VStem: 50 75<147.691 303.149 392 671.277>
LayerCount: 2
Fore
SplineSet
88 675 m 0
 108 675 125 658 125 638 c 2
 125 392 l 1
 131 398 138 405 146 410 c 0
 184 436 230 450 276 450 c 0
 322 450 366 435 404 409 c 0
 442 383 470 345 486 301 c 0
 502 257 504 210 492 166 c 0
 480 122 454 82 418 52 c 1
 412 47 404 44 395 44 c 0
 375 44 358 61 358 81 c 0
 358 93 363 103 372 110 c 0
 395 130 412 157 420 186 c 0
 428 216 426 247 416 276 c 0
 406 305 387 330 362 348 c 0
 337 366 306 375 275 375 c 0
 244 375 215 366 189 348 c 0
 163 330 144 305 134 276 c 0
 128 260 125 243 125 227 c 2
 125 225 l 1
 125 212 126 199 130 186 c 0
 138 156 154 130 178 110 c 0
 186 103 192 93 192 81 c 0
 192 61 175 44 155 44 c 0
 145 44 136 46 130 52 c 0
 94 82 70 122 58 166 c 0
 53 186 50 205 50 225 c 2
 50 638 l 2
 50 658 68 675 88 675 c 0
EndSplineSet
EndChar

StartChar: i
Encoding: 105 105 19
Width: 441
Flags: W
HStem: 0 21G<205 235> 430 20G<210 230> 525 75<186.723 254.084>
VStem: 183 75<80 446.084 528.723 596.084>
LayerCount: 2
Fore
SplineSet
258 562 m 0
 258 542 240 525 220 525 c 0
 200 525 183 542 183 562 c 0
 183 582 200 600 220 600 c 0
 240 600 258 582 258 562 c 0
380 66 m 5
 359 45 335 29 307 17 c 4
 279 5 250 0 220 0 c 4
 190 0 162 5 134 17 c 4
 106 29 83 45 62 66 c 5
 55 73 50 83 50 93 c 4
 50 113 68 130 88 130 c 4
 98 130 107 126 114 119 c 5
 128 105 146 94 164 86 c 4
 170 84 176 82 183 80 c 5
 183 412 l 6
 183 432 200 450 220 450 c 4
 240 450 258 432 258 412 c 6
 258 80 l 5
 265 82 272 84 278 86 c 4
 296 94 313 105 327 119 c 5
 334 126 344 130 354 130 c 4
 374 130 392 113 392 93 c 4
 392 83 387 73 380 66 c 5
EndSplineSet
EndChar

StartChar: j
Encoding: 106 106 20
Width: 362
Flags: W
HStem: -225 75<53.9155 164.723> 430 20G<265 285> 525 75<241.723 308.277>
VStem: 238 74<-76.8099 446.49 528.336 596.49>
LayerCount: 2
Fore
SplineSet
275 525 m 0
 255 525 238 542 238 562 c 0
 238 582 255 600 275 600 c 0
 295 600 312 582 312 562 c 0
 312 542 295 525 275 525 c 0
238 412 m 2
 238 432 255 450 275 450 c 0
 295 450 312 432 312 412 c 2
 312 0 l 2
 312 -30 308 -58 296 -86 c 0
 284 -114 267 -138 246 -159 c 0
 225 -180 202 -196 174 -208 c 0
 146 -220 118 -225 88 -225 c 0
 68 -225 50 -208 50 -188 c 0
 50 -168 68 -150 88 -150 c 0
 108 -150 127 -146 145 -138 c 0
 163 -130 180 -120 194 -106 c 0
 208 -92 218 -76 226 -58 c 0
 234 -40 238 -20 238 0 c 2
 238 412 l 2
EndSplineSet
EndChar

StartChar: k
Encoding: 107 107 21
Width: 550
Flags: W
HStem: 0 21G<78 98 452 472> 655 20G<78 98>
VStem: 50 75<3.91553 115.517 231 671.277> 275 75<304.19 414.277> 425 75<3.91553 114.81>
LayerCount: 2
Fore
SplineSet
88 675 m 0
 108 675 125 658 125 638 c 2
 125 231 l 1
 145 231 164 234 182 242 c 0
 200 250 217 261 231 275 c 0
 245 289 256 306 264 324 c 0
 272 342 275 361 275 381 c 1
 275 401 292 418 312 418 c 0
 332 418 350 401 350 381 c 0
 350 351 345 323 333 295 c 0
 328 283 322 271 314 259 c 1
 330 256 346 252 361 246 c 0
 389 234 413 217 434 196 c 0
 455 175 471 152 483 124 c 0
 495 96 500 68 500 38 c 0
 500 18 482 0 462 0 c 0
 442 0 425 18 425 38 c 1
 425 58 422 77 414 95 c 0
 406 113 395 130 381 144 c 0
 367 158 350 168 332 176 c 0
 314 184 295 188 275 188 c 0
 255 188 236 184 218 176 c 0
 200 168 183 158 169 144 c 0
 155 130 144 113 136 95 c 0
 128 77 125 58 125 38 c 1
 125 18 108 0 88 0 c 0
 68 0 50 18 50 38 c 2
 50 638 l 2
 50 658 68 675 88 675 c 0
EndSplineSet
EndChar

StartChar: l
Encoding: 108 108 22
Width: 362
Flags: W
HStem: 0 75<198.978 308.277> 655 20G<78 98>
VStem: 50 75<148.978 671.277>
LayerCount: 2
Fore
SplineSet
88 675 m 0
 108 675 125 658 125 638 c 2
 125 225 l 2
 125 185 141 147 169 119 c 0
 197 91 234 75 274 75 c 0
 275 75 l 0
 295 75 312 58 312 38 c 4
 312 18 295 0 275 0 c 0
 215 0 158 24 116 66 c 0
 74 108 50 165 50 225 c 2
 50 638 l 2
 50 658 68 675 88 675 c 0
EndSplineSet
EndChar

StartChar: m
Encoding: 109 109 23
Width: 550
Flags: W
HStem: 430 20G<253 299>
VStem: 238 74<195.51 370>
LayerCount: 2
Fore
SplineSet
58 166 m 0
 46 210 48 258 64 302 c 0
 80 346 108 384 146 410 c 0
 184 436 230 450 276 450 c 0
 322 450 366 435 404 409 c 0
 442 383 470 345 486 301 c 0
 502 257 504 210 492 166 c 0
 480 122 454 82 418 52 c 1
 412 47 404 44 395 44 c 0
 375 44 358 61 358 81 c 0
 358 93 363 103 372 110 c 0
 395 130 412 157 420 186 c 0
 428 216 426 247 416 276 c 0
 406 305 387 330 362 348 c 0
 347 358 330 366 312 370 c 1
 312 230 l 2
 312 210 295 192 275 192 c 0
 255 192 238 210 238 230 c 2
 238 370 l 1
 220 366 204 358 189 348 c 0
 163 330 144 305 134 276 c 0
 124 247 122 216 130 186 c 0
 138 156 154 130 178 110 c 0
 186 103 192 93 192 81 c 0
 192 61 175 44 155 44 c 0
 145 44 136 46 130 52 c 0
 94 82 70 122 58 166 c 0
EndSplineSet
EndChar

StartChar: o
Encoding: 111 111 24
Width: 550
Flags: W
HStem: 0 75<197.446 352.554> 375 75<197.446 352.554>
VStem: 50 75<147.446 302.554> 425 75<147.446 302.554>
LayerCount: 2
Fore
SplineSet
500 225 m 4
 500 101 399 0 275 0 c 4
 151 0 50 101 50 225 c 4
 50 349 151 450 275 450 c 4
 399 450 500 349 500 225 c 4
125 225 m 4
 125 142 192 75 275 75 c 4
 358 75 425 142 425 225 c 4
 425 308 358 375 275 375 c 4
 192 375 125 308 125 225 c 4
EndSplineSet
EndChar

StartChar: n
Encoding: 110 110 25
Width: 550
Flags: W
HStem: 375 75<197.701 353.296>
LayerCount: 2
Fore
SplineSet
58 166 m 0
 46 210 48 258 64 302 c 0
 80 346 108 384 146 410 c 0
 184 436 230 450 276 450 c 0
 322 450 366 435 404 409 c 0
 442 383 470 345 486 301 c 0
 502 257 504 210 492 166 c 0
 480 122 454 82 418 52 c 1
 412 47 404 44 395 44 c 0
 375 44 358 61 358 81 c 0
 358 93 363 103 372 110 c 0
 395 130 412 157 420 186 c 0
 428 216 426 247 416 276 c 0
 406 305 387 330 362 348 c 0
 337 366 306 375 275 375 c 0
 244 375 215 366 189 348 c 0
 163 330 144 305 134 276 c 0
 124 247 122 216 130 186 c 0
 138 156 154 130 178 110 c 0
 186 103 192 93 192 81 c 0
 192 61 175 44 155 44 c 0
 145 44 136 46 130 52 c 0
 94 82 70 122 58 166 c 0
EndSplineSet
EndChar

StartChar: p
Encoding: 112 112 26
Width: 550
Flags: W
HStem: 0 75<197.58 352.554> 375 75<197.446 352.554>
VStem: 50 75<-221.277 58 147.15 302.257> 425 75<147.446 302.554>
LayerCount: 2
Fore
SplineSet
275 0 m 0
 217 0 165 22 125 58 c 1
 125 -188 l 2
 125 -208 108 -225 88 -225 c 0
 68 -225 50 -208 50 -188 c 2
 50 225 l 2
 50 349 151 450 275 450 c 0
 399 450 500 349 500 225 c 0
 500 101 399 0 275 0 c 0
275 375 m 0
 192 375 125 308 125 225 c 0
 125 142 192 75 275 75 c 0
 358 75 425 142 425 225 c 0
 425 308 358 375 275 375 c 0
EndSplineSet
EndChar

StartChar: q
Encoding: 113 113 27
Width: 550
Flags: W
HStem: 0 75<197.446 352.42> 375 75<197.446 352.554>
VStem: 50 75<147.446 302.554> 425 75<-221.277 58 147.15 302.257>
LayerCount: 2
Fore
SplineSet
462 -225 m 0
 442 -225 425 -208 425 -188 c 2
 425 58 l 1
 385 22 333 0 275 0 c 0
 151 0 50 101 50 225 c 0
 50 349 151 450 275 450 c 0
 399 450 500 349 500 225 c 2
 500 -188 l 2
 500 -208 482 -225 462 -225 c 0
275 375 m 0
 192 375 125 308 125 225 c 0
 125 142 192 75 275 75 c 0
 358 75 425 142 425 225 c 0
 425 308 358 375 275 375 c 0
EndSplineSet
EndChar

StartChar: r
Encoding: 114 114 28
Width: 506
Flags: W
HStem: 0 21G<78 98>
VStem: 50 75<3.91553 302.362>
LayerCount: 2
Fore
SplineSet
91 354 m 0
 117 392 154 420 198 436 c 0
 242 452 290 454 334 442 c 0
 378 430 418 404 448 368 c 1
 454 362 456 354 456 345 c 0
 456 325 439 308 419 308 c 0
 407 308 397 313 390 322 c 2
 370 345 344 362 314 370 c 0
 284 378 253 376 224 366 c 0
 195 356 170 337 152 311 c 0
 134 285 125 256 125 225 c 1
 125 38 l 2
 125 18 108 0 88 0 c 0
 68 0 50 18 50 38 c 2
 50 225 l 2
 50 271 65 316 91 354 c 0
EndSplineSet
EndChar

StartChar: s
Encoding: 115 115 29
Width: 495
Flags: W
HStem: 0 75<165.901 320.632> 188 74<127.875 368.979> 375 75<175.368 330.099>
VStem: 50 75<263.675 330.189> 371 75<119.811 186.325>
CounterMasks: 1 e0
LayerCount: 2
Fore
SplineSet
143 422 m 0
 173 439 207 448 242 450 c 0
 277 452 312 445 344 431 c 0
 376 417 404 395 426 368 c 0
 432 362 435 353 435 344 c 0
 435 324 418 307 398 307 c 0
 386 307 375 313 368 321 c 0
 353 339 335 352 314 362 c 0
 292 372 269 376 246 375 c 0
 223 374 200 368 180 356 c 0
 160 345 143 329 130 310 c 0
 127 306 125 301 125 295 c 0
 125 289 127 284 129 279 c 0
 131 274 135 270 140 267 c 0
 145 264 150 262 156 262 c 2
 340 262 l 2
 359 262 378 258 394 248 c 0
 410 238 425 224 434 207 c 0
 443 190 446 171 446 152 c 0
 446 133 439 114 429 98 c 0
 409 69 383 45 353 28 c 0
 323 11 289 2 254 0 c 0
 219 -2 184 5 152 19 c 0
 120 33 92 55 70 82 c 0
 64 88 61 97 61 106 c 0
 61 126 78 143 98 143 c 0
 110 143 121 137 128 129 c 0
 143 111 161 98 182 88 c 0
 204 78 227 74 250 75 c 0
 273 76 296 82 316 94 c 0
 336 105 353 121 366 140 c 0
 369 144 371 149 371 155 c 0
 371 161 370 166 368 171 c 0
 366 176 361 180 356 183 c 0
 351 186 346 188 340 188 c 2
 156 188 l 2
 137 188 118 192 102 202 c 0
 86 212 72 226 63 243 c 0
 54 260 50 279 50 298 c 0
 50 317 57 336 67 352 c 0
 87 381 113 405 143 422 c 0
EndSplineSet
EndChar

StartChar: t
Encoding: 116 116 30
Width: 362
Flags: W
HStem: 0 75<197.929 308.277> 375 75<125 271.277> 655 20G<78 98>
VStem: 50 75<148.19 375 450 671.277>
LayerCount: 2
Fore
SplineSet
88 675 m 0
 108 675 125 658 125 638 c 2
 125 450 l 1
 238 450 l 2
 258 450 275 432 275 412 c 0
 275 392 258 375 238 375 c 2
 125 375 l 1
 125 225 l 2
 125 205 128 186 136 168 c 0
 144 150 155 133 169 119 c 0
 183 105 200 94 218 86 c 0
 236 78 255 75 275 75 c 0
 295 75 312 58 312 38 c 0
 312 18 295 0 275 0 c 2
 274 0 l 2
 245 0 216 6 189 17 c 0
 161 29 137 45 116 66 c 0
 95 87 79 111 67 139 c 0
 55 167 50 195 50 225 c 2
 50 638 l 2
 50 658 68 675 88 675 c 0
EndSplineSet
EndChar

StartChar: u
Encoding: 117 117 31
Width: 550
Flags: W
HStem: 0 76<195.443 355.509>
LayerCount: 2
Fore
SplineSet
192 370 m 4
 192 358 186 347 178 340 c 4
 154 320 138 294 130 264 c 4
 122 234 124 203 134 174 c 4
 144 145 163 120 189 102 c 4
 215 84 244 76 275 76 c 4
 306 76 337 84 362 102 c 4
 387 120 406 145 416 174 c 4
 426 203 428 235 420 265 c 4
 412 294 395 320 372 340 c 4
 363 347 358 358 358 370 c 4
 358 390 375 407 395 407 c 4
 404 407 412 403 418 398 c 5
 454 368 480 329 492 285 c 4
 504 241 502 194 486 150 c 4
 470 106 442 68 404 42 c 4
 366 16 322 0 276 0 c 4
 230 0 184 15 146 41 c 4
 108 67 80 104 64 148 c 4
 48 192 46 240 58 284 c 4
 70 328 94 368 130 398 c 4
 136 404 145 407 155 407 c 4
 175 407 192 390 192 370 c 4
EndSplineSet
EndChar

StartChar: v
Encoding: 118 118 32
Width: 528
Flags: W
HStem: 0 21G<248 277>
LayerCount: 2
Fore
SplineSet
54 352 m 2
 52 357 50 364 50 370 c 0
 50 390 68 407 88 407 c 0
 103 407 116 398 122 386 c 2
 276 77 l 1
 299 81 321 88 340 102 c 0
 365 120 384 145 394 174 c 0
 404 203 406 234 398 264 c 0
 390 294 374 320 350 340 c 0
 349 341 348 342 347 343 c 0
 340 350 336 360 336 370 c 0
 336 390 354 407 374 407 c 0
 384 407 392 404 398 398 c 0
 434 368 458 328 470 284 c 0
 482 240 481 193 465 149 c 0
 449 105 420 67 382 41 c 0
 344 15 300 0 254 0 c 0
 242 0 229 6 222 16 c 1
 54 352 l 2
EndSplineSet
EndChar

StartChar: w
Encoding: 119 119 33
Width: 550
Flags: W
HStem: 0 21G<253 299>
VStem: 238 74<80 254.49>
LayerCount: 2
Fore
SplineSet
192 370 m 0
 192 358 186 347 178 340 c 0
 154 320 138 294 130 264 c 0
 122 234 124 203 134 174 c 0
 144 145 163 120 189 102 c 0
 204 92 220 84 238 80 c 1
 238 220 l 2
 238 240 255 258 275 258 c 0
 295 258 312 240 312 220 c 2
 312 80 l 1
 330 84 347 92 362 102 c 0
 387 120 406 145 416 174 c 0
 426 203 428 235 420 265 c 0
 412 294 395 320 372 340 c 0
 363 347 358 358 358 370 c 0
 358 390 375 407 395 407 c 0
 404 407 412 403 418 398 c 1
 454 368 480 329 492 285 c 0
 504 241 502 194 486 150 c 0
 470 106 442 68 404 42 c 0
 366 16 322 0 276 0 c 0
 230 0 184 15 146 41 c 0
 108 67 80 104 64 148 c 0
 48 192 46 240 58 284 c 0
 70 328 94 368 130 398 c 0
 136 404 145 407 155 407 c 0
 175 407 192 390 192 370 c 0
EndSplineSet
EndChar

StartChar: x
Encoding: 120 120 34
Width: 550
Flags: W
HStem: 0 21G<78 98 452 472> 188 74<198.277 351.723> 430 20G<78 98 452 472>
VStem: 50 75<3.91553 114.81 335.19 446.084> 425 75<3.91553 114.81 335.19 446.084>
LayerCount: 2
Fore
SplineSet
136 355 m 0
 144 337 155 320 169 306 c 0
 183 292 200 282 218 274 c 0
 236 266 255 262 275 262 c 0
 295 262 314 266 332 274 c 0
 350 282 367 292 381 306 c 0
 395 320 406 337 414 355 c 0
 422 373 425 392 425 412 c 1
 425 432 442 450 462 450 c 0
 482 450 500 432 500 412 c 0
 500 382 495 354 483 326 c 0
 471 298 455 275 434 254 c 0
 424 244 412 233 400 225 c 1
 412 217 424 206 434 196 c 0
 455 175 471 152 483 124 c 0
 495 96 500 68 500 38 c 0
 500 18 482 0 462 0 c 0
 442 0 425 18 425 38 c 1
 425 58 422 77 414 95 c 0
 406 113 395 130 381 144 c 0
 367 158 350 168 332 176 c 0
 314 184 295 188 275 188 c 0
 255 188 236 184 218 176 c 0
 200 168 183 158 169 144 c 0
 155 130 144 113 136 95 c 0
 128 77 125 58 125 38 c 1
 125 18 108 0 88 0 c 0
 68 0 50 18 50 38 c 0
 50 68 55 96 67 124 c 0
 79 152 95 175 116 196 c 0
 126 206 138 217 150 225 c 1
 138 233 126 244 116 254 c 0
 95 275 79 298 67 326 c 0
 55 354 50 382 50 412 c 0
 50 432 68 450 88 450 c 0
 108 450 125 432 125 412 c 1
 125 392 128 373 136 355 c 0
EndSplineSet
EndChar

StartChar: y
Encoding: 121 121 35
Width: 550
Flags: W
VStem: 238 74<-220.664 8.8093>
LayerCount: 2
Fore
SplineSet
192 370 m 4
 192 358 187 347 178 340 c 4
 155 320 138 294 130 265 c 4
 122 235 124 203 134 174 c 4
 144 145 163 120 188 102 c 4
 213 84 244 76 275 76 c 4
 306 76 335 84 361 102 c 4
 387 120 406 145 416 174 c 4
 426 203 428 234 420 264 c 4
 412 294 396 320 372 340 c 4
 364 347 358 358 358 370 c 4
 358 390 375 407 395 407 c 4
 405 407 414 404 420 398 c 4
 456 368 480 328 492 284 c 4
 504 240 502 192 486 148 c 4
 470 104 442 67 404 41 c 4
 376 22 344 10 312 4 c 5
 312 -187 l 6
 312 -207 295 -224 275 -224 c 4
 255 -224 238 -207 238 -187 c 6
 238 4 l 5
 205 10 174 22 146 42 c 4
 108 68 80 106 64 150 c 4
 48 194 46 241 58 285 c 4
 70 329 96 368 132 398 c 5
 138 403 146 407 155 407 c 4
 175 407 192 390 192 370 c 4
EndSplineSet
EndChar

StartChar: z
Encoding: 122 122 36
Width: 481
Flags: W
VStem: 60 66<311.387 342.226> 356 66<107.425 138.613>
LayerCount: 2
Fore
SplineSet
422 360 m 0
 430 348 432 341 432 333 c 0
 432 320 425 308 415 302 c 2
 144 110 l 1
 152 104 160 99 169 94 c 0
 189 83 211 76 234 75 c 0
 257 74 281 78 302 88 c 0
 323 98 342 111 356 129 c 2
 356 130 l 2
 363 138 373 142 385 142 c 0
 405 142 422 125 422 105 c 0
 422 95 418 86 408 74 c 0
 391 54 363 34 332 20 c 0
 300 6 266 -2 232 0 c 0
 198 2 163 12 133 28 c 0
 103 44 76 68 60 90 c 0
 52 102 50 109 50 117 c 0
 50 129 56 141 66 148 c 2
 338 340 l 1
 330 346 322 351 313 356 c 0
 293 367 270 374 247 375 c 0
 224 376 201 372 180 362 c 0
 162 354 146 342 132 328 c 0
 130 326 128 323 126 321 c 2
 126 320 l 2
 119 312 109 308 97 308 c 0
 77 308 60 325 60 345 c 0
 60 355 64 364 74 376 c 0
 91 396 119 416 150 430 c 0
 182 444 216 452 250 450 c 0
 284 448 319 438 349 422 c 0
 379 406 406 382 422 360 c 0
EndSplineSet
EndChar

StartChar: K
Encoding: 75 75 37
Width: 550
Flags: W
HStem: 0 21G<78 98 437 455> 655 20G<78 98>
VStem: 50 75<3.91553 189.817 280 671.277> 425 75<38.2805 190.213>
LayerCount: 2
Fore
SplineSet
88 675 m 0
 108 675 125 658 125 638 c 2
 125 280 l 1
 126 282 l 2
 434 661 l 2
 447 677 470 679 486 666 c 0
 502 653 505 630 492 614 c 2
 268 338 l 1
 286 338 302 337 320 333 c 0
 352 326 384 312 410 292 c 0
 436 272 458 246 474 216 c 0
 490 186 499 154 500 120 c 0
 501 86 495 54 482 24 c 0
 476 10 463 0 447 0 c 0
 427 0 410 18 410 38 c 0
 410 44 411 49 413 54 c 0
 421 74 426 96 425 118 c 0
 424 140 418 162 408 182 c 0
 398 202 384 218 366 232 c 0
 348 246 328 256 306 260 c 0
 284 264 262 264 240 258 c 0
 218 252 198 243 180 229 c 0
 162 215 150 197 140 177 c 0
 130 157 125 136 125 114 c 2
 125 38 l 2
 125 18 108 0 88 0 c 0
 68 0 50 18 50 38 c 2
 50 638 l 2
 50 658 68 675 88 675 c 0
EndSplineSet
EndChar

StartChar: L
Encoding: 76 76 38
Width: 550
Flags: W
HStem: 0 75<198.978 496.084> 655 20G<78 98>
VStem: 50 75<148.978 671.277>
LayerCount: 2
Fore
SplineSet
50 638 m 2
 50 658 68 675 88 675 c 0
 108 675 125 658 125 638 c 2
 125 225 l 1
 125 185 141 147 169 119 c 0
 197 91 235 75 275 75 c 1
 462 75 l 2
 482 75 500 58 500 38 c 0
 500 18 482 0 462 0 c 2
 275 0 l 2
 215 0 158 24 116 66 c 0
 74 108 50 165 50 225 c 2
 50 638 l 2
EndSplineSet
EndChar

StartChar: M
Encoding: 77 77 39
Width: 550
Flags: W
HStem: 0 21G<78 98 452 472> 655 20G<260 290>
VStem: 50 75<3.91553 528.123> 238 74<115.51 595> 425 75<3.91553 528.123>
CounterMasks: 1 38
LayerCount: 2
Fore
SplineSet
67 536 m 0
 79 564 95 588 116 609 c 0
 137 630 161 646 189 658 c 0
 217 670 245 675 275 675 c 0
 305 675 333 670 361 658 c 0
 389 646 413 630 434 609 c 0
 455 588 471 564 483 536 c 0
 495 508 500 480 500 450 c 2
 500 38 l 2
 500 18 482 0 462 0 c 0
 442 0 425 18 425 38 c 2
 425 450 l 1
 425 470 422 490 414 508 c 0
 406 526 395 542 381 556 c 0
 367 570 350 580 332 588 c 0
 326 590 319 593 312 595 c 1
 312 150 l 2
 312 130 295 112 275 112 c 0
 255 112 238 130 238 150 c 2
 238 595 l 1
 231 593 224 590 218 588 c 0
 200 580 183 570 169 556 c 0
 155 542 144 526 136 508 c 0
 128 490 125 470 125 450 c 1
 125 38 l 2
 125 18 108 0 88 0 c 0
 68 0 50 18 50 38 c 2
 50 450 l 2
 50 480 55 508 67 536 c 0
EndSplineSet
EndChar

StartChar: N
Encoding: 78 78 40
Width: 550
Flags: W
HStem: 0 21G<78 98> 655 20G<452 472>
VStem: 50 75<3.91553 526.16> 425 75<147.886 671.277>
LayerCount: 2
Fore
SplineSet
457 92 m 4
 429 54 390 27 346 12 c 4
 342 10 337 9 333 9 c 4
 315 9 299 22 296 40 c 6
 190 574 l 5
 176 564 164 552 154 538 c 4
 136 513 125 483 125 452 c 6
 125 38 l 6
 125 18 108 0 88 0 c 4
 68 0 50 18 50 38 c 6
 50 452 l 5
 50 498 65 544 93 582 c 4
 121 620 160 649 204 664 c 4
 208 666 213 666 217 666 c 4
 235 666 251 653 254 635 c 6
 360 102 l 5
 374 112 386 123 396 137 c 4
 414 162 425 193 425 224 c 6
 425 638 l 6
 425 658 442 675 462 675 c 4
 482 675 500 658 500 638 c 6
 500 222 l 5
 500 176 485 130 457 92 c 4
EndSplineSet
EndChar

StartChar: O
Encoding: 79 79 41
Width: 550
Flags: W
HStem: 0 75<197.837 352.163> 600 75<198.234 351.766>
VStem: 50 75<147.483 528.178> 425 75<147.483 528.178>
LayerCount: 2
Fore
SplineSet
500 451 m 4
 500 450 l 6
 500 225 l 5
 500 224 l 6
 500 199 495 174 487 150 c 4
 485 146 485 143 483 139 c 4
 471 111 455 87 434 66 c 4
 413 45 389 29 361 17 c 4
 333 5 305 0 275 0 c 4
 245 0 217 5 189 17 c 4
 161 29 137 45 116 66 c 4
 95 87 79 111 67 139 c 4
 65 143 65 146 63 150 c 4
 55 174 50 199 50 224 c 6
 50 225 l 5
 50 450 l 5
 50 451 l 5
 50 476 55 501 63 525 c 4
 65 529 65 532 67 536 c 4
 79 564 95 588 116 609 c 4
 137 630 161 646 189 658 c 4
 217 670 245 675 275 675 c 4
 305 675 333 670 361 658 c 4
 389 646 413 630 434 609 c 4
 455 588 471 564 483 536 c 4
 485 532 485 529 487 525 c 4
 495 501 500 476 500 451 c 4
136 508 m 4
 128 490 125 471 125 451 c 6
 125 224 l 6
 125 204 128 186 136 168 c 4
 144 150 155 133 169 119 c 4
 183 105 200 94 218 86 c 4
 236 78 255 75 275 75 c 4
 295 75 314 78 332 86 c 4
 350 94 367 105 381 119 c 4
 395 133 406 150 414 168 c 4
 422 186 425 204 425 224 c 6
 425 451 l 6
 425 471 422 490 414 508 c 4
 406 526 395 542 381 556 c 4
 367 570 350 580 332 588 c 4
 314 596 295 600 275 600 c 4
 255 600 236 596 218 588 c 4
 200 580 183 570 169 556 c 4
 155 542 144 526 136 508 c 4
EndSplineSet
EndChar

StartChar: P
Encoding: 80 80 42
Width: 550
Flags: W
HStem: 0 21G<78 98> 225 75<197.58 352.554> 600 75<197.446 352.554>
VStem: 50 75<3.91553 282 372.15 527.257> 425 75<372.446 527.554>
LayerCount: 2
Fore
SplineSet
275 225 m 0
 217 225 165 246 125 282 c 1
 125 38 l 2
 125 18 108 0 88 0 c 0
 68 0 50 18 50 38 c 2
 50 450 l 2
 50 574 151 675 275 675 c 0
 399 675 500 574 500 450 c 0
 500 326 399 225 275 225 c 0
275 600 m 0
 192 600 125 533 125 450 c 0
 125 367 192 300 275 300 c 0
 358 300 425 367 425 450 c 0
 425 533 358 600 275 600 c 0
EndSplineSet
EndChar

StartChar: Q
Encoding: 81 81 43
Width: 550
Flags: W
HStem: 0 75<196.847 350.751> 600 75<196.847 353.153>
VStem: 50 75<147.048 527.952> 425 75<149.281 527.952>
LayerCount: 2
Fore
SplineSet
405 42 m 1
 392 32 377 24 361 17 c 0
 334 6 305 0 275 0 c 0
 245 0 216 6 189 17 c 0
 162 28 137 45 116 66 c 0
 95 87 78 112 67 139 c 0
 66 143 64 146 63 150 c 0
 55 174 50 199 50 224 c 2
 50 225 l 1
 50 450 l 2
 50 451 l 0
 50 476 55 501 63 525 c 0
 64 529 66 532 67 536 c 0
 78 563 95 588 116 609 c 0
 137 630 162 647 189 658 c 0
 216 669 245 675 275 675 c 0
 305 675 334 669 361 658 c 0
 388 647 413 630 434 609 c 0
 455 588 472 563 483 536 c 0
 484 532 486 529 487 525 c 0
 496 501 500 476 500 451 c 0
 500 450 500 450 500 450 c 2
 500 225 l 1
 500 224 l 1
 500 199 496 174 487 150 c 0
 486 146 484 143 483 139 c 0
 476 123 468 108 458 95 c 1
 489 64 l 2
 496 56 500 48 500 38 c 0
 500 28 497 19 489 11 c 0
 481 3 472 0 462 0 c 0
 452 0 444 3 436 11 c 2
 405 42 l 1
125 451 m 2
 125 224 l 2
 125 204 129 185 136 168 c 0
 144 149 155 133 169 119 c 0
 183 105 199 94 218 86 c 0
 236 79 255 75 275 75 c 0
 295 75 314 79 332 86 c 0
 339 89 345 92 351 96 c 1
 330 117 l 2
 322 125 319 134 319 144 c 0
 319 154 322 162 330 170 c 0
 338 178 346 181 356 181 c 0
 366 181 375 178 383 170 c 2
 404 149 l 1
 408 155 411 161 414 168 c 0
 421 185 425 204 425 224 c 2
 425 451 l 2
 425 471 421 490 414 507 c 0
 406 526 395 542 381 556 c 0
 367 570 351 581 332 589 c 0
 314 596 295 600 275 600 c 0
 255 600 236 596 218 589 c 0
 199 581 183 570 169 556 c 0
 155 542 144 526 136 507 c 0
 129 490 125 471 125 451 c 2
EndSplineSet
EndChar

StartChar: R
Encoding: 82 82 44
Width: 550
Flags: W
HStem: 0 21G<78 98> 225 75<198.011 286> 600 75<197.446 352.554>
VStem: 50 75<3.91553 282 372.15 527.257> 425 75<372.137 527.554>
LayerCount: 2
Fore
SplineSet
275 225 m 0
 217 225 165 246 125 282 c 1
 125 38 l 2
 125 18 108 0 88 0 c 0
 68 0 50 18 50 38 c 2
 50 450 l 2
 50 574 151 675 275 675 c 0
 399 675 500 574 500 450 c 0
 500 358 444 278 364 244 c 1
 494 59 l 2
 506 42 501 18 484 6 c 0
 467 -6 444 -1 432 16 c 2
 286 226 l 2
 282 226 279 225 275 225 c 0
275 600 m 0
 192 600 125 533 125 450 c 0
 125 367 192 300 275 300 c 0
 358 300 425 367 425 450 c 0
 425 533 358 600 275 600 c 0
EndSplineSet
EndChar

StartChar: S
Encoding: 83 83 45
Width: 500
Flags: W
HStem: 0 75<179.826 319.175> 325 75<188.696 319.981> 600 75<187.684 311.963>
VStem: 50 75<130.019 234.255> 75 75<438.037 562.316> 350 75<465.745 561.304> 375 75<130.825 270.174>
LayerCount: 2
Fore
SplineSet
396 597 m 0xea
 415 568 425 535 425 500 c 0
 425 479 408 462 388 462 c 0
 367 462 350 479 350 500 c 2
 350 520 344 539 333 556 c 0
 322 572 307 585 288 592 c 0
 276 598 263 600 250 600 c 0
 244 600 236 600 230 598 c 0
 211 594 193 585 179 571 c 0
 165 557 156 539 152 520 c 0
 150 514 150 506 150 500 c 0xec
 150 487 152 474 158 462 c 0
 165 443 178 428 194 417 c 0
 211 406 230 400 250 400 c 0
 290 400 328 388 361 366 c 0
 394 344 420 313 435 277 c 0
 445 253 450 226 450 200 c 0
 450 186 448 174 446 161 c 0
 438 122 419 87 391 59 c 0
 363 31 328 12 289 4 c 0
 276 2 264 0 250 0 c 0
 224 0 197 5 173 15 c 0
 137 30 106 56 84 89 c 0
 62 122 50 160 50 200 c 0
 50 221 67 238 88 238 c 0
 108 238 125 221 125 200 c 0xf2
 125 175 132 151 146 131 c 0
 160 110 179 94 202 85 c 0
 218 78 235 75 251 75 c 0
 259 75 266 75 274 77 c 0
 299 82 321 94 338 112 c 0
 356 129 368 151 373 176 c 0
 375 184 375 191 375 199 c 0
 375 215 372 232 365 248 c 0
 356 271 340 290 319 304 c 0
 299 318 275 325 250 325 c 0
 215 325 182 335 153 354 c 0
 124 374 102 401 88 433 c 0
 80 455 75 477 75 500 c 0
 75 511 76 523 78 534 c 0
 85 568 102 599 126 624 c 0
 151 648 182 665 216 672 c 0
 227 674 239 675 250 675 c 0
 273 675 295 670 317 662 c 0
 349 648 376 626 396 597 c 0xea
EndSplineSet
EndChar

StartChar: T
Encoding: 84 84 46
Width: 550
Flags: W
HStem: 0 21G<265 285> 655 20G<260 290>
VStem: 50 75<415.916 528.123> 238 74<3.51019 595> 425 75<415.916 528.123>
CounterMasks: 1 38
LayerCount: 2
Fore
SplineSet
67 536 m 0
 79 564 95 588 116 609 c 0
 137 630 161 646 189 658 c 0
 217 670 245 675 275 675 c 0
 305 675 333 670 361 658 c 0
 389 646 413 630 434 609 c 0
 455 588 471 564 483 536 c 0
 495 508 500 480 500 450 c 0
 500 430 482 412 462 412 c 0
 442 412 425 430 425 450 c 2
 425 470 422 490 414 508 c 0
 406 526 395 542 381 556 c 0
 367 570 350 580 332 588 c 0
 326 590 319 593 312 595 c 1
 312 38 l 2
 312 18 295 0 275 0 c 0
 255 0 238 18 238 38 c 2
 238 595 l 1
 231 593 224 590 218 588 c 0
 200 580 183 570 169 556 c 0
 155 542 144 526 136 508 c 0
 128 490 125 470 125 450 c 2
 125 430 108 412 88 412 c 0
 68 412 50 430 50 450 c 0
 50 480 55 508 67 536 c 0
EndSplineSet
EndChar

StartChar: U
Encoding: 85 85 47
Width: 550
Flags: W
HStem: 0 75<197.701 353.296> 655 20G<150 165 385 399.5>
VStem: 50 75<148.007 570.309> 425 75<146.942 571.255>
LayerCount: 2
Fore
SplineSet
192 638 m 4
 192 626 186 615 178 608 c 4
 154 588 138 562 130 532 c 4
 126 519 125 507 125 494 c 6
 125 225 l 6
 125 207 128 190 134 174 c 4
 144 145 163 120 189 102 c 4
 215 84 244 75 275 75 c 4
 306 75 337 84 362 102 c 4
 387 120 406 145 416 174 c 4
 422 190 425 208 425 225 c 6
 425 494 l 6
 425 508 424 520 420 533 c 4
 412 562 395 588 372 608 c 6
 363 615 358 626 358 638 c 4
 358 658 375 675 395 675 c 4
 404 675 412 671 418 666 c 5
 454 636 480 597 492 553 c 4
 498 533 500 514 500 494 c 6
 500 225 l 6
 500 199 495 173 486 149 c 4
 470 105 442 67 404 41 c 4
 366 15 322 0 276 0 c 4
 230 0 184 14 146 40 c 4
 108 66 80 104 64 148 c 4
 55 172 50 199 50 225 c 6
 50 494 l 6
 50 514 53 533 58 552 c 4
 70 596 94 636 130 666 c 4
 136 672 145 675 155 675 c 4
 175 675 192 658 192 638 c 4
EndSplineSet
EndChar

StartChar: V
Encoding: 86 86 48
Width: 550
Flags: W
HStem: 0 21G<267 290> 655 20G<78 96.5 452 472>
VStem: 425 75<148.19 671.277>
LayerCount: 2
Fore
SplineSet
52 626 m 2
 50 630 50 634 50 638 c 0
 50 658 68 675 88 675 c 0
 105 675 120 664 124 648 c 2
 302 78 l 1
 312 80 322 82 332 86 c 0
 350 94 367 105 381 119 c 0
 395 133 406 150 414 168 c 0
 422 186 425 205 425 225 c 2
 425 638 l 2
 425 658 442 675 462 675 c 0
 482 675 500 658 500 638 c 2
 500 225 l 2
 500 195 495 167 483 139 c 0
 471 111 455 87 434 66 c 0
 413 45 389 29 361 17 c 0
 333 5 305 0 275 0 c 0
 259 0 245 11 240 26 c 1
 52 626 l 2
EndSplineSet
EndChar

StartChar: W
Encoding: 87 87 49
Width: 550
Flags: W
HStem: 0 21G<260 290> 655 20G<78 98 452 472>
VStem: 50 75<148.19 671.277> 238 74<80 558.664> 425 75<148.19 671.277>
CounterMasks: 1 38
LayerCount: 2
Fore
SplineSet
88 675 m 0
 108 675 125 658 125 638 c 2
 125 225 l 2
 125 205 128 186 136 168 c 0
 144 150 155 133 169 119 c 0
 183 105 200 94 218 86 c 0
 224 84 231 82 238 80 c 1
 238 525 l 2
 238 545 255 562 275 562 c 0
 295 562 312 545 312 525 c 2
 312 80 l 1
 319 82 326 84 332 86 c 0
 350 94 367 105 381 119 c 0
 395 133 406 150 414 168 c 0
 422 186 425 205 425 225 c 2
 425 638 l 2
 425 658 442 675 462 675 c 0
 482 675 500 658 500 638 c 2
 500 225 l 2
 500 195 495 167 483 139 c 0
 471 111 455 87 434 66 c 0
 413 45 389 29 361 17 c 0
 333 5 305 0 275 0 c 0
 245 0 217 5 189 17 c 0
 161 29 137 45 116 66 c 0
 95 87 79 111 67 139 c 0
 55 167 50 195 50 225 c 2
 50 638 l 2
 50 658 68 675 88 675 c 0
EndSplineSet
EndChar

StartChar: X
Encoding: 88 88 50
Width: 550
Flags: W
HStem: 0 21G<78 98 452 472> 300 75<197.704 352.296> 655 20G<78 98 452 472>
VStem: 50 75<3.91553 226.022 448.978 671.277> 425 75<3.91553 226.022 448.978 671.277>
LayerCount: 2
Fore
SplineSet
88 675 m 0
 108 675 125 658 125 638 c 2
 125 525 l 2
 125 485 141 447 169 419 c 0
 197 391 234 375 274 375 c 2
 275 375 l 1
 276 375 l 2
 316 375 353 391 381 419 c 0
 409 447 425 485 425 525 c 2
 425 638 l 2
 425 658 442 675 462 675 c 0
 482 675 500 658 500 638 c 2
 500 525 l 2
 500 465 476 408 434 366 c 0
 424 356 412 346 400 338 c 1
 412 330 424 319 434 309 c 0
 476 267 500 210 500 150 c 2
 500 38 l 2
 500 18 482 0 462 0 c 0
 442 0 425 18 425 38 c 2
 425 150 l 2
 425 190 409 228 381 256 c 0
 353 284 316 300 276 300 c 2
 275 300 l 1
 274 300 l 2
 234 300 197 284 169 256 c 0
 141 228 125 190 125 150 c 2
 125 38 l 2
 125 18 108 0 88 0 c 0
 68 0 50 18 50 38 c 2
 50 150 l 2
 50 210 74 267 116 309 c 0
 126 319 138 330 150 338 c 1
 138 346 126 356 116 366 c 0
 74 408 50 465 50 525 c 2
 50 638 l 2
 50 658 68 675 88 675 c 0
EndSplineSet
EndChar

StartChar: Y
Encoding: 89 89 51
Width: 550
Flags: W
HStem: 0 21G<265 285> 655 20G<150.5 165 385 400>
VStem: 238 74<3.51019 276.809>
LayerCount: 2
Fore
SplineSet
192 638 m 4
 192 626 187 615 178 608 c 4
 155 588 138 562 130 533 c 4
 122 503 124 471 134 442 c 4
 144 413 163 388 188 370 c 4
 213 352 244 344 275 344 c 4
 306 344 335 352 361 370 c 4
 387 388 406 413 416 442 c 4
 426 471 428 502 420 532 c 4
 412 562 396 588 372 608 c 4
 364 615 358 626 358 638 c 4
 358 658 375 675 395 675 c 4
 405 675 414 672 420 666 c 4
 456 636 480 596 492 552 c 4
 504 508 502 460 486 416 c 4
 470 372 442 335 404 309 c 4
 376 290 344 278 312 272 c 5
 312 38 l 6
 312 18 295 0 275 0 c 4
 255 0 238 18 238 38 c 6
 238 272 l 5
 205 278 174 290 146 310 c 4
 108 336 80 374 64 418 c 4
 48 462 46 509 58 553 c 4
 70 597 96 636 132 666 c 5
 138 671 146 675 155 675 c 4
 175 675 192 658 192 638 c 4
EndSplineSet
EndChar

StartChar: Z
Encoding: 90 90 52
Width: 550
Flags: W
HStem: 0 75<129.075 391.733> 600 75<160.164 420.925>
VStem: 50 75<79.0753 101 471.916 565.103> 425 75<108.417 202.277 574 596.004>
LayerCount: 2
Fore
SplineSet
388 675 m 2
 403 675 416 672 430 666 c 0
 444 660 457 652 467 642 c 0
 477 632 486 620 492 606 c 0
 498 592 500 577 500 562 c 0
 500 552 496 544 490 538 c 1
 127 101 l 2
 127 100 128 99 128 98 c 0
 130 94 132 90 136 86 c 0
 140 82 144 80 148 78 c 0
 152 76 157 75 162 75 c 2
 332 75 l 2
 356 75 380 84 398 102 c 0
 416 120 425 144 425 168 c 2
 425 169 l 2
 425 189 442 206 462 206 c 0
 482 206 500 189 500 169 c 0
 500 124 482 82 450 50 c 0
 418 18 376 0 332 0 c 0
 331 0 l 2
 162 0 l 2
 147 0 134 2 120 8 c 0
 106 14 93 23 83 33 c 0
 73 43 64 56 58 70 c 0
 52 84 50 97 50 112 c 0
 50 122 54 132 60 138 c 1
 423 574 l 2
 423 575 422 576 422 577 c 0
 420 581 418 585 414 589 c 0
 410 593 406 595 402 597 c 0
 398 599 393 600 388 600 c 2
 218 600 l 2
 194 600 170 590 152 572 c 0
 134 554 125 531 125 507 c 2
 125 506 l 2
 125 486 108 468 88 468 c 0
 68 468 50 486 50 506 c 0
 50 551 68 594 100 626 c 0
 132 658 174 675 218 675 c 2
 388 675 l 2
EndSplineSet
EndChar

StartChar: Aring
Encoding: 197 197 53
Width: 550
Flags: W
HStem: 0 21G<78 98 452 472> 225 75<197.58 352.42> 600 75<197.446 352.554> 725 37<243.911 306.089> 838 37<243.911 306.089>
VStem: 50 75<3.91553 282 372.15 527.85> 200 38<767.24 832.76> 312 38<767.24 832.76> 425 75<3.91553 282 372.15 527.85>
LayerCount: 2
Fore
SplineSet
275 725 m 0
 233 725 200 758 200 800 c 4
 200 842 233 875 275 875 c 0
 317 875 350 842 350 800 c 0
 350 758 317 725 275 725 c 0
275 762 m 0
 295 762 312 780 312 800 c 0
 312 820 295 838 275 838 c 0
 255 838 238 820 238 800 c 0
 238 780 255 762 275 762 c 0
275 675 m 0
 399 675 500 575 500 451 c 2
 500 450 l 1
 500 38 l 2
 500 18 482 0 462 0 c 0
 442 0 425 18 425 38 c 2
 425 282 l 1
 385 246 333 225 275 225 c 0
 217 225 165 246 125 282 c 1
 125 38 l 2
 125 18 108 0 88 0 c 0
 68 0 50 18 50 38 c 2
 50 451 l 2
 50 575 151 675 275 675 c 0
275 300 m 0
 358 300 425 367 425 450 c 0
 425 533 358 600 275 600 c 0
 192 600 125 533 125 450 c 0
 125 367 192 300 275 300 c 0
EndSplineSet
EndChar

StartChar: AE
Encoding: 198 198 54
Width: 550
Flags: W
HStem: 0 21G<78 98 288 349> 226 74<198.771 260 335 396.244> 655 20G<245 336>
VStem: 50 75<3.91553 282 372.673 526.022> 260 75<76 228.16 301 599>
LayerCount: 2
Fore
SplineSet
116 609 m 0
 158 651 215 675 275 675 c 2
 320 675 l 2
 352 675 385 668 414 654 c 0
 444 640 471 620 492 594 c 1
 498 588 500 579 500 570 c 0
 500 550 482 532 462 532 c 0
 450 532 440 538 433 546 c 0
 419 562 402 577 382 586 c 0
 367 593 351 597 335 599 c 1
 335 301 l 1
 351 303 367 307 382 314 c 0
 402 323 419 338 433 354 c 0
 440 362 450 368 462 368 c 0
 482 368 500 350 500 330 c 0
 500 321 498 312 492 306 c 1
 471 280 444 260 414 246 c 0
 389 234 363 228 335 226 c 1
 335 76 l 1
 351 78 367 82 382 89 c 0
 402 98 419 112 433 128 c 0
 440 136 450 142 462 142 c 0
 482 142 500 125 500 105 c 0
 500 96 498 88 492 82 c 1
 471 56 444 36 414 22 c 0
 389 10 363 2 335 0 c 2
 335 0 326 0 300 0 c 0
 299 0 299 0 298 0 c 0
 278 0 260 18 260 38 c 2
 260 226 l 1
 210 230 163 248 125 282 c 1
 125 38 l 2
 125 18 108 0 88 0 c 0
 68 0 50 18 50 38 c 2
 50 450 l 2
 50 510 74 567 116 609 c 0
260 600 m 1
 226 596 193 580 169 556 c 0
 141 528 125 490 125 450 c 2
 125 448 l 2
 125 409 141 372 169 344 c 0
 193 320 226 304 260 300 c 1
 260 600 l 1
EndSplineSet
EndChar

StartChar: Oslash
Encoding: 216 216 55
Width: 550
Flags: W
HStem: 0 75<197.837 352.163> 600 75<198.234 351.766>
VStem: 50 75<147.483 528.178> 425 75<147.483 528.178>
LayerCount: 2
Fore
SplineSet
500 452 m 2
 500 225 l 2
 500 224 l 0
 500 199 495 174 487 150 c 0
 485 146 485 143 483 139 c 0
 471 111 455 87 434 66 c 0
 413 45 389 29 361 17 c 0
 333 5 305 0 275 0 c 0
 245 0 217 5 189 17 c 0
 170 25 152 35 136 48 c 1
 116 16 l 2
 106 0 82 -4 66 6 c 0
 50 16 46 38 56 54 c 2
 86 103 l 1
 78 115 72 127 67 139 c 0
 65 143 65 146 63 150 c 0
 55 174 50 199 50 224 c 0
 50 225 l 2
 50 450 l 2
 50 452 l 0
 50 477 55 501 63 525 c 0
 65 529 65 532 67 536 c 0
 79 564 95 588 116 609 c 0
 137 630 161 646 189 658 c 0
 217 670 245 675 275 675 c 0
 305 675 333 670 361 658 c 0
 380 650 398 639 414 626 c 1
 434 658 l 2
 444 674 468 680 484 670 c 0
 500 660 504 636 494 620 c 2
 464 572 l 1
 472 560 478 548 483 536 c 0
 485 532 485 529 487 525 c 0
 495 501 500 477 500 452 c 2
136 508 m 0
 128 490 125 472 125 452 c 2
 125 224 l 2
 125 204 128 186 136 168 c 0
 144 150 155 133 169 119 c 0
 183 105 200 94 218 86 c 0
 236 78 255 75 275 75 c 0
 295 75 314 78 332 86 c 0
 350 94 367 105 381 119 c 0
 395 133 406 150 414 168 c 0
 422 186 425 204 425 224 c 2
 425 452 l 2
 425 472 422 490 414 508 c 0
 406 526 395 542 381 556 c 0
 367 570 350 580 332 588 c 0
 314 596 295 600 275 600 c 0
 255 600 236 596 218 588 c 0
 200 580 183 570 169 556 c 0
 155 542 144 526 136 508 c 0
EndSplineSet
EndChar

StartChar: oslash
Encoding: 248 248 56
Width: 550
Flags: W
HStem: 0 75<197.147 352.554> 375 75<197.446 352.853>
VStem: 50 75<147.147 302.554> 425 75<147.446 302.853>
LayerCount: 2
Fore
SplineSet
500 225 m 0
 500 101 399 0 275 0 c 0
 227 0 181 16 144 42 c 1
 115 12 l 1
 108 4 99 0 88 0 c 0
 68 0 50 18 50 38 c 0
 50 49 54 58 62 65 c 1
 92 94 l 1
 66 131 50 177 50 225 c 0
 50 349 151 450 275 450 c 0
 323 450 369 434 406 408 c 1
 435 438 l 1
 442 446 451 450 462 450 c 0
 482 450 500 432 500 412 c 0
 500 401 496 392 488 385 c 1
 458 356 l 1
 484 319 500 273 500 225 c 0
425 225 m 0
 425 308 358 375 275 375 c 0
 192 375 125 308 125 225 c 0
 125 142 192 75 275 75 c 0
 358 75 425 142 425 225 c 0
EndSplineSet
EndChar

StartChar: aring
Encoding: 229 229 57
Width: 550
Flags: W
HStem: 0 75<197.446 352.42> 375 75<197.446 352.554> 525 37<243.911 306.089> 638 37<243.911 306.089>
VStem: 50 75<147.446 302.554> 200 38<567.24 632.76> 312 38<567.24 632.76> 425 75<3.91553 58 147.15 302.257>
LayerCount: 2
Fore
SplineSet
275 525 m 0
 233 525 200 558 200 600 c 0
 200 642 233 675 275 675 c 0
 317 675 350 642 350 600 c 0
 350 558 317 525 275 525 c 0
275 562 m 0
 295 562 312 580 312 600 c 0
 312 620 295 638 275 638 c 0
 255 638 238 620 238 600 c 0
 238 580 255 562 275 562 c 0
462 0 m 0
 442 0 425 18 425 38 c 2
 425 58 l 1
 385 22 333 0 275 0 c 0
 151 0 50 101 50 225 c 0
 50 349 151 450 275 450 c 0
 399 450 500 349 500 225 c 2
 500 38 l 2
 500 18 482 0 462 0 c 0
275 75 m 0
 358 75 425 142 425 225 c 0
 425 308 358 375 275 375 c 0
 192 375 125 308 125 225 c 0
 125 142 192 75 275 75 c 0
EndSplineSet
EndChar

StartChar: ae
Encoding: 230 230 58
Width: 531
Flags: W
VStem: 238 74<80 140 240 370>
LayerCount: 2
Fore
SplineSet
310 2 m 0
 263 -6 214 3 172 25 c 0
 130 47 96 82 74 125 c 0
 52 168 45 216 53 263 c 0
 61 310 84 353 118 386 c 0
 152 419 196 442 244 448 c 0
 292 454 340 445 382 423 c 0
 424 401 458 365 478 323 c 0
 480 318 482 312 482 306 c 0
 482 294 476 285 468 278 c 2
 312 140 l 1
 312 80 l 1
 338 86 362 100 381 119 c 0
 388 126 398 130 408 130 c 0
 428 130 446 113 446 93 c 0
 446 83 441 73 434 66 c 1
 400 32 357 10 310 2 c 0
396 314 m 1
 383 332 366 347 346 357 c 0
 336 363 325 367 314 370 c 0
 312 370 l 1
 312 240 l 1
 396 314 l 1
170 333 m 0
 147 311 133 282 127 250 c 0
 121 218 126 186 140 158 c 0
 154 130 178 106 206 92 c 0
 216 87 227 83 238 80 c 1
 238 370 l 1
 213 364 188 351 170 333 c 0
EndSplineSet
EndChar

StartChar: zero
Encoding: 48 48 59
Width: 550
Flags: W
HStem: 0 75<197.837 352.163> 300 75<241.723 308.277> 600 75<198.234 351.766>
VStem: 50 75<147.483 528.178> 238 74<303.51 371.664> 425 75<147.483 528.178>
CounterMasks: 1 fc
LayerCount: 2
Fore
SplineSet
275 300 m 0
 255 300 238 318 238 338 c 0
 238 358 255 375 275 375 c 0
 295 375 312 358 312 338 c 0
 312 318 295 300 275 300 c 0
487 525 m 0
 495 501 500 476 500 451 c 0
 500 450 l 2
 500 225 l 1
 500 224 l 2
 500 199 495 174 487 150 c 0
 485 146 485 143 483 139 c 0
 471 111 455 87 434 66 c 0
 413 45 389 29 361 17 c 0
 333 5 305 0 275 0 c 0
 245 0 217 5 189 17 c 0
 161 29 137 45 116 66 c 0
 95 87 79 111 67 139 c 0
 65 143 65 146 63 150 c 0
 55 174 50 199 50 224 c 2
 50 225 l 1
 50 450 l 1
 50 451 l 1
 50 476 55 501 63 525 c 0
 65 529 65 532 67 536 c 0
 79 564 95 588 116 609 c 0
 137 630 161 646 189 658 c 0
 217 670 245 675 275 675 c 0
 305 675 333 670 361 658 c 0
 389 646 413 630 434 609 c 0
 455 588 471 564 483 536 c 0
 485 532 485 529 487 525 c 0
125 451 m 2
 125 224 l 2
 125 204 128 186 136 168 c 0
 144 150 155 133 169 119 c 0
 183 105 200 94 218 86 c 0
 236 78 255 75 275 75 c 0
 295 75 314 78 332 86 c 0
 350 94 367 105 381 119 c 0
 395 133 406 150 414 168 c 0
 422 186 425 204 425 224 c 2
 425 451 l 2
 425 471 422 490 414 508 c 0
 406 526 395 542 381 556 c 0
 367 570 350 580 332 588 c 0
 314 596 295 600 275 600 c 0
 255 600 236 596 218 588 c 0
 200 580 183 570 169 556 c 0
 155 542 144 526 136 508 c 0
 128 490 125 471 125 451 c 2
EndSplineSet
EndChar

StartChar: one
Encoding: 49 49 60
Width: 441
Flags: W
HStem: 0 21G<205 235> 655 20G<205 230>
VStem: 183 75<80 595>
LayerCount: 2
Fore
SplineSet
134 658 m 0
 162 670 190 675 220 675 c 0
 240 675 258 658 258 638 c 2
 258 80 l 1
 265 82 272 84 278 86 c 0
 296 94 313 105 327 119 c 1
 334 126 344 130 354 130 c 0
 374 130 392 113 392 93 c 0
 392 83 387 73 380 66 c 1
 359 45 335 29 307 17 c 0
 279 5 250 0 220 0 c 0
 190 0 162 5 134 17 c 0
 106 29 83 45 62 66 c 1
 55 73 50 83 50 93 c 0
 50 113 68 130 88 130 c 0
 98 130 107 126 114 119 c 1
 128 105 146 94 164 86 c 0
 170 84 176 82 183 80 c 1
 183 595 l 1
 176 593 170 590 164 588 c 0
 146 580 128 570 114 556 c 1
 107 549 98 544 88 544 c 0
 68 544 50 562 50 582 c 0
 50 592 55 602 62 609 c 1
 83 630 106 646 134 658 c 0
EndSplineSet
EndChar

StartChar: two
Encoding: 50 50 61
Width: 525
Flags: W
HStem: 0 75<183 472.084>
VStem: 400 75<371.648 527.615>
LayerCount: 2
Fore
SplineSet
56 562 m 0
 72 590 94 616 120 634 c 0
 146 652 176 665 208 671 c 0
 240 677 272 676 304 668 c 0
 336 660 364 647 390 627 c 0
 416 607 435 581 450 553 c 0
 465 525 473 492 475 460 c 0
 477 428 471 396 459 366 c 0
 447 336 430 309 406 287 c 2
 183 75 l 1
 438 75 l 2
 458 75 476 58 476 38 c 0
 476 18 458 0 438 0 c 2
 90 0 l 1
 70 0 52 18 52 38 c 0
 52 49 56 58 64 65 c 2
 354 342 l 1
 370 357 382 374 390 394 c 0
 398 414 401 435 400 457 c 0
 399 479 394 499 384 518 c 0
 374 537 360 554 343 568 c 0
 326 582 307 591 286 596 c 0
 265 601 243 602 222 598 c 0
 201 594 182 584 164 572 c 0
 146 560 131 543 120 525 c 0
 114 513 102 506 88 506 c 0
 68 506 50 523 50 543 c 0
 50 550 52 556 56 562 c 0
EndSplineSet
EndChar

StartChar: three
Encoding: 51 51 62
Width: 533
Flags: W
HStem: 0 75<181.662 334.836> 372 75<193.028 233.905>
VStem: 408 75<146.978 303.433>
LayerCount: 2
Fore
SplineSet
110 601 m 2
 110 602 l 0
 140 641 184 666 233 673 c 0
 283 680 332 667 372 637 c 0
 412 607 437 563 444 513 c 0
 450 469 440 424 416 386 c 1
 425 377 432 367 440 357 c 0
 464 323 480 283 483 241 c 0
 486 199 478 157 458 120 c 0
 438 83 408 51 372 30 c 0
 336 9 294 -2 252 0 c 0
 210 2 169 14 134 38 c 0
 99 61 72 94 54 132 c 0
 52 137 50 142 50 148 c 0
 50 168 68 186 88 186 c 0
 104 186 116 177 122 163 c 0
 134 137 152 116 176 100 c 0
 200 84 226 76 254 75 c 0
 282 74 310 82 334 96 c 0
 358 110 378 130 391 155 c 0
 404 180 410 208 408 236 c 0
 406 264 396 291 380 313 c 0
 364 335 341 354 315 364 c 0
 289 374 262 377 234 373 c 0
 232 373 228 372 226 372 c 0
 206 372 189 390 189 410 c 0
 189 429 204 445 222 447 c 0
 263 454 306 450 344 434 c 0
 348 432 350 430 354 428 c 1
 368 450 374 477 370 503 c 0
 366 533 350 559 326 577 c 0
 302 595 274 603 244 599 c 0
 215 595 188 580 170 556 c 0
 163 546 152 541 140 541 c 0
 120 541 102 558 102 578 c 0
 102 586 105 594 109 600 c 2
 110 601 l 2
EndSplineSet
EndChar

StartChar: four
Encoding: 52 52 63
Width: 550
Flags: W
HStem: 0 21G<452 472> 269 75<196.865 354.793> 655 20G<150 165 452 472>
VStem: 52 74<414.948 571.059> 425 75<3.91553 326 415.9 671.277>
LayerCount: 2
Fore
SplineSet
192 638 m 0
 192 626 188 616 180 609 c 1
 160 593 146 572 136 548 c 0
 126 524 123 499 126 474 c 0
 129 449 139 425 154 405 c 0
 169 385 188 369 211 358 c 0
 234 347 259 342 284 344 c 0
 309 346 334 352 356 366 c 0
 378 380 394 399 406 421 c 0
 418 443 425 468 425 492 c 2
 425 638 l 2
 425 658 442 675 462 675 c 0
 482 675 500 658 500 638 c 2
 500 38 l 2
 500 18 482 0 462 0 c 0
 442 0 425 18 425 38 c 2
 425 326 l 1
 416 318 406 310 396 304 c 0
 364 284 327 271 289 269 c 0
 251 267 213 274 179 290 c 0
 145 306 115 331 93 361 c 0
 71 391 57 427 52 465 c 0
 47 503 52 541 66 576 c 0
 80 610 102 642 130 666 c 0
 136 672 145 675 155 675 c 0
 175 675 192 658 192 638 c 0
EndSplineSet
EndChar

StartChar: five
Encoding: 53 53 64
Width: 504
Flags: W
HStem: 375 75<151.98 307.168> 580 70<330.201 413.163>
LayerCount: 2
Fore
SplineSet
86 362 m 1
 68 404 64 453 74 498 c 0
 84 543 106 583 140 615 c 0
 174 647 218 667 264 673 c 0
 310 679 355 671 396 650 c 0
 406 645 414 636 416 624 c 0
 420 604 406 584 386 580 c 0
 377 578 370 580 362 584 c 0
 335 598 304 602 274 598 c 0
 244 594 214 581 192 560 c 0
 170 539 153 512 147 482 c 0
 143 466 142 450 144 434 c 1
 168 444 194 449 220 450 c 0
 264 452 306 440 344 418 c 0
 382 396 411 364 431 325 c 0
 451 286 458 242 453 198 c 0
 448 154 430 115 402 81 c 0
 374 47 338 23 296 10 c 0
 254 -3 210 -4 168 8 c 0
 126 20 88 44 60 77 c 1
 56 82 52 89 50 96 c 0
 46 116 60 136 80 140 c 0
 94 142 108 136 116 126 c 0
 135 104 160 88 188 80 c 0
 216 72 246 74 274 82 c 0
 302 90 327 107 345 129 c 0
 363 151 374 179 378 208 c 0
 382 237 377 266 364 292 c 0
 351 318 331 339 306 354 c 0
 281 369 252 377 223 375 c 0
 195 374 168 364 144 348 c 0
 140 344 134 342 128 341 c 0
 110 337 93 346 86 362 c 1
EndSplineSet
EndChar

StartChar: six
Encoding: 54 54 65
Width: 550
Flags: W
HStem: 0 75<197.446 352.554> 375 75<197.919 352.554>
VStem: 50 75<147.743 300.037 392 528.268> 425 75<147.446 302.554>
LayerCount: 2
Fore
SplineSet
50 450 m 2
 50 494 64 538 88 575 c 0
 112 612 148 641 189 658 c 0
 230 675 275 678 319 670 c 0
 363 662 402 641 434 610 c 0
 441 603 445 593 445 583 c 0
 445 563 428 546 408 546 c 0
 398 546 387 549 380 556 c 0
 359 577 333 591 304 597 c 0
 275 603 246 600 218 588 c 0
 190 576 166 558 150 534 c 0
 134 510 125 480 125 450 c 1
 125 392 l 1
 165 428 217 450 275 450 c 0
 399 450 500 349 500 225 c 0
 500 101 399 0 275 0 c 0
 151 0 50 101 50 225 c 2
 50 450 l 2
125 225 m 1
 125 142 192 75 275 75 c 0
 358 75 425 142 425 225 c 0
 425 308 358 375 275 375 c 0
 193 375 126 308 125 226 c 2
 125 225 l 1
EndSplineSet
EndChar

StartChar: seven
Encoding: 55 55 66
Width: 550
Flags: W
HStem: 600 75<198.978 414>
VStem: 50 75<415.916 526.022>
LayerCount: 2
Fore
SplineSet
50 450 m 0
 50 510 74 567 116 609 c 0
 158 651 215 675 275 675 c 2
 462 675 l 2
 482 675 500 659 500 639 c 0
 500 638 500 637 500 636 c 0
 500 633 499 630 498 627 c 2
 338 28 l 2
 332 8 312 -4 292 2 c 0
 272 8 260 27 266 47 c 2
 414 600 l 1
 275 600 l 1
 235 600 197 584 169 556 c 0
 141 528 125 490 125 450 c 0
 125 430 108 412 88 412 c 0
 68 412 50 430 50 450 c 0
EndSplineSet
EndChar

StartChar: eight
Encoding: 56 56 67
Width: 550
Flags: W
HStem: 0 75<197.446 352.554> 375 75<197.146 352.854> 600 75<208.068 341.097>
VStem: 50 75<147.446 301.815> 425 75<147.446 301.815>
LayerCount: 2
Fore
SplineSet
432 386 m 1
 474 345 500 288 500 225 c 0
 500 101 399 0 275 0 c 0
 151 0 50 101 50 225 c 0
 50 288 76 345 118 386 c 1
 100 414 90 445 88 478 c 0
 86 512 94 546 110 576 c 0
 126 606 149 630 178 648 c 0
 207 666 241 675 275 675 c 0
 309 675 342 666 371 648 c 0
 400 630 424 606 440 576 c 0
 456 546 464 512 462 478 c 0
 460 445 450 414 432 386 c 1
179 428 m 1
 208 442 241 450 275 450 c 0
 309 450 342 442 371 428 c 2
 372 430 373 433 374 435 c 0
 382 449 387 466 388 482 c 0
 389 502 384 522 374 540 c 0
 364 558 350 574 332 584 c 0
 314 594 295 600 275 600 c 0
 255 600 235 594 217 584 c 0
 199 574 186 558 176 540 c 0
 166 522 161 502 162 482 c 0
 163 463 169 444 179 428 c 1
275 75 m 0
 358 75 425 142 425 225 c 0
 425 308 358 375 275 375 c 0
 192 375 125 308 125 225 c 0
 125 142 192 75 275 75 c 0
EndSplineSet
EndChar

StartChar: nine
Encoding: 57 57 68
Width: 550
Flags: W
HStem: 225 75<197.446 352.081> 600 75<197.446 352.554>
VStem: 50 75<372.446 527.554> 425 75<148.09 282 374.216 527.257>
LayerCount: 2
Fore
SplineSet
275 675 m 0
 399 675 500 574 500 450 c 2
 500 225 l 2
 500 181 486 137 462 100 c 0
 438 63 402 34 361 17 c 0
 320 0 275 -4 231 4 c 0
 193 12 158 29 129 54 c 0
 125 58 120 61 116 65 c 0
 109 72 105 82 105 92 c 0
 105 112 122 130 142 130 c 0
 152 130 163 125 170 118 c 0
 191 97 217 84 246 78 c 0
 275 72 304 74 332 86 c 0
 360 98 384 118 400 142 c 0
 416 166 425 195 425 225 c 1
 425 282 l 1
 385 246 333 225 275 225 c 0
 151 225 50 326 50 450 c 0
 50 574 151 675 275 675 c 0
425 450 m 1
 425 533 358 600 275 600 c 0
 192 600 125 533 125 450 c 0
 125 367 192 300 275 300 c 0
 357 300 424 366 425 448 c 2
 425 450 l 1
EndSplineSet
EndChar

StartChar: exclam
Encoding: 33 33 69
Width: 175
Flags: W
HStem: 0 75<53.9155 121.277> 655 20G<78 98>
VStem: 50 75<3.91553 71.2773 228.723 671.277>
LayerCount: 2
Fore
SplineSet
125 38 m 4
 125 18 108 0 88 0 c 4
 68 0 50 18 50 38 c 4
 50 58 68 75 88 75 c 4
 108 75 125 58 125 38 c 4
50 638 m 6
 50 658 68 675 88 675 c 4
 108 675 125 658 125 638 c 6
 125 262 l 6
 125 242 108 225 88 225 c 4
 68 225 50 242 50 262 c 6
 50 638 l 6
EndSplineSet
EndChar

StartChar: numbersign
Encoding: 35 35 70
Width: 775
Flags: W
HStem: 112 76<310.607 453.535> 178 74<53.5102 179 596 721.664> 422 76<53.9155 179 596 721.277> 488 74<321.966 465.393>
VStem: 162 76<260.41 415.86> 538 74<260.41 415.86>
LayerCount: 2
Fore
SplineSet
538 675 m 0x1c
 558 673 574 654 572 634 c 2
 561 498 l 1
 688 498 l 2
 708 498 725 480 725 460 c 0
 725 440 708 422 688 422 c 2
 596 422 l 1
 606 396 612 368 612 338 c 0
 612 308 606 278 596 252 c 1
 688 252 l 2
 708 252 725 235 725 215 c 0
 725 195 708 178 688 178 c 2
 546 178 l 2x6c
 542 174 538 170 534 166 c 2
 523 34 l 2
 521 14 502 -2 482 0 c 0
 462 2 446 20 448 40 c 2
 455 123 l 1
 433 117 412 112 388 112 c 0x8c
 352 112 316 121 286 137 c 1
 277 34 l 2
 275 14 256 -2 236 0 c 0
 216 2 200 20 202 40 c 2
 214 178 l 1
 88 178 l 2
 68 178 50 195 50 215 c 0
 50 235 68 252 88 252 c 2
 179 252 l 1
 169 278 162 308 162 338 c 0
 162 368 169 396 179 422 c 1
 88 422 l 2
 68 422 50 440 50 460 c 0
 50 480 68 498 88 498 c 2
 230 498 l 2x6c
 234 502 237 504 241 508 c 2
 252 640 l 2
 254 660 272 677 292 675 c 0
 312 673 328 654 326 634 c 2
 320 552 l 1
 342 558 364 562 388 562 c 0
 424 562 460 554 490 538 c 1
 498 640 l 2
 500 660 518 677 538 675 c 0x1c
388 188 m 0x9c
 471 188 538 255 538 338 c 0
 538 421 471 488 388 488 c 0
 305 488 238 421 238 338 c 0
 238 255 305 188 388 188 c 0x9c
EndSplineSet
EndChar

StartChar: dollar
Encoding: 36 36 71
Width: 475
Flags: W
HStem: 302 76<167.857 212 262 302.233> 450 21G<378 398>
VStem: 50 75<122.379 222.084 422.42 553.767> 212 50<-36.6157 2 78 298 378 598 674 712.616> 350 75<122.233 255.193 453.916 553.621>
LayerCount: 2
Fore
SplineSet
238 713 m 0
 252 713 262 702 262 688 c 2
 262 674 l 1
 278 672 295 667 310 661 c 0
 344 647 374 623 394 592 c 0
 414 561 425 525 425 488 c 0
 425 468 408 450 388 450 c 0
 368 450 350 468 350 488 c 0
 350 510 343 532 331 550 c 0
 319 568 300 584 280 592 c 0
 274 594 268 596 262 598 c 1
 262 374 l 1
 290 370 318 360 342 344 c 0
 373 324 396 294 410 260 c 0
 424 226 429 188 422 152 c 0
 415 116 396 82 370 56 c 0
 344 30 310 11 274 4 c 0
 270 3 266 2 262 2 c 2
 262 -12 l 2
 262 -26 252 -37 238 -37 c 0
 224 -37 212 -26 212 -12 c 2
 212 2 l 1
 196 4 181 9 166 15 c 0
 132 29 102 53 82 84 c 0
 62 115 50 151 50 188 c 0
 50 208 68 226 88 226 c 0
 108 226 125 208 125 188 c 0
 125 166 132 144 144 126 c 0
 156 108 174 92 194 84 c 0
 200 82 206 80 212 78 c 1
 212 302 l 1
 184 306 158 316 134 332 c 0
 103 352 78 382 64 416 c 0
 50 450 47 488 54 524 c 0
 61 560 79 594 105 620 c 0
 131 646 165 665 201 672 c 0
 205 673 208 674 212 674 c 2
 212 688 l 2
 212 702 224 713 238 713 c 0
212 598 m 1
 192 594 173 583 158 568 c 0
 142 552 131 532 127 510 c 0
 123 488 126 465 134 445 c 0
 142 425 157 406 175 394 c 0
 187 386 198 381 212 378 c 1
 212 598 l 1
262 78 m 1
 282 82 302 93 317 108 c 0
 333 124 344 144 348 166 c 0
 352 188 350 211 342 231 c 0
 334 251 318 270 300 282 c 0
 288 290 276 295 262 298 c 1
 262 78 l 1
EndSplineSet
EndChar

StartChar: percent
Encoding: 37 37 72
Width: 775
Flags: W
HStem: 0 50<513.28 636.72> 250 50<513.28 636.72> 375 50<138.28 261.72> 625 50<138.28 261.72>
VStem: 50 50<463.28 586.72> 300 50<463.28 586.72> 425 50<88.2799 211.72> 675 50<88.2799 211.72>
LayerCount: 2
Fore
SplineSet
350 525 m 0
 350 442 283 375 200 375 c 0
 117 375 50 442 50 525 c 0
 50 608 117 675 200 675 c 0
 283 675 350 608 350 525 c 0
100 525 m 0
 100 470 145 425 200 425 c 0
 255 425 300 470 300 525 c 0
 300 580 255 625 200 625 c 0
 145 625 100 580 100 525 c 0
725 150 m 0
 725 67 658 0 575 0 c 0
 492 0 425 67 425 150 c 0
 425 233 492 300 575 300 c 0
 658 300 725 233 725 150 c 0
475 150 m 0
 475 95 520 50 575 50 c 0
 630 50 675 95 675 150 c 0
 675 205 630 250 575 250 c 0
 520 250 475 205 475 150 c 0
591 576 m 2
 601 586 616 586 626 576 c 0
 636 566 636 551 626 541 c 2
 184 99 l 2
 174 89 159 89 149 99 c 0
 139 109 139 124 149 134 c 2
 591 576 l 2
EndSplineSet
EndChar

StartChar: ampersand
Encoding: 38 38 73
Width: 550
Flags: W
HStem: 0 75<197.446 352.946> 375 75<222.885 327.115> 600 75<222.556 327.444>
VStem: 50 75<147.446 301.332> 125 75<471.826 577.444> 350 75<471.826 577.444> 425 75<147.536 301.332>
LayerCount: 2
Fore
SplineSet
425 525 m 0xec
 425 485 410 449 384 422 c 1
 453 384 500 309 500 225 c 0
 500 181 486 139 464 104 c 1
 494 58 l 2
 505 40 501 17 483 6 c 0
 465 -5 442 -1 431 17 c 2
 412 46 l 1
 374 17 327 0 275 0 c 0
 151 0 50 101 50 225 c 0xf2
 50 309 97 384 166 422 c 1
 140 449 125 485 125 525 c 0
 125 608 192 675 275 675 c 0
 358 675 425 608 425 525 c 0xec
275 375 m 1
 274 375 l 2
 192 375 125 307 125 225 c 0
 125 142 192 75 275 75 c 0
 358 75 425 142 425 225 c 0
 425 307 358 375 276 375 c 2
 275 375 l 1
200 525 m 0xec
 200 483 233 450 275 450 c 0
 317 450 350 483 350 525 c 0
 350 567 317 600 275 600 c 0
 233 600 200 567 200 525 c 0xec
EndSplineSet
EndChar

StartChar: parenleft
Encoding: 40 40 74
Width: 480
Flags: W
VStem: 50 75<102.46 349.278>
LayerCount: 2
Fore
SplineSet
403 588 m 0
 323 566 252 520 202 454 c 0
 152 388 125 308 125 226 c 0
 125 144 152 63 202 -3 c 0
 252 -69 322 -114 402 -136 c 0
 418 -140 431 -155 431 -173 c 0
 431 -193 414 -210 394 -210 c 0
 390 -210 387 -211 384 -210 c 1
 288 -184 203 -126 143 -48 c 0
 83 30 50 127 50 226 c 0
 50 325 83 422 143 500 c 0
 203 578 287 634 383 660 c 0
 387 661 390 662 394 662 c 0
 414 662 431 644 431 624 c 0
 431 606 419 592 403 588 c 0
EndSplineSet
EndChar

StartChar: parenright
Encoding: 41 41 75
Width: 480
Flags: W
HStem: -210 74<54.5034 137.808>
VStem: 357 75<102.46 349.278>
LayerCount: 2
Fore
SplineSet
79 588 m 0
 63 592 51 606 51 624 c 0
 51 644 68 662 88 662 c 0
 92 662 94 661 98 660 c 0
 194 634 279 578 339 500 c 0
 399 422 432 325 432 226 c 0
 432 127 399 30 339 -48 c 0
 279 -126 194 -184 98 -210 c 1
 95 -211 92 -210 88 -210 c 0
 68 -210 51 -193 51 -173 c 0
 51 -155 64 -140 80 -136 c 0
 160 -114 230 -69 280 -3 c 0
 330 63 357 144 357 226 c 0
 357 308 330 388 280 454 c 0
 230 520 159 566 79 588 c 0
EndSplineSet
EndChar

StartChar: asterisk
Encoding: 42 42 76
Width: 434
Flags: W
HStem: 655 20G<208 228>
VStem: 180 75<303.916 422 552 671.277>
LayerCount: 2
Fore
SplineSet
180 638 m 2
 180 658 198 675 218 675 c 0
 238 675 255 658 255 638 c 2
 255 552 l 1
 328 595 l 2
 346 605 370 599 380 581 c 0
 390 563 384 540 366 530 c 2
 292 488 l 1
 366 445 l 2
 384 435 390 412 380 394 c 0
 370 376 346 370 328 380 c 2
 255 422 l 1
 255 338 l 2
 255 318 238 300 218 300 c 0
 198 300 180 318 180 338 c 2
 180 422 l 1
 106 380 l 2
 88 370 65 376 55 394 c 0
 45 412 51 435 69 445 c 2
 142 488 l 1
 69 530 l 2
 51 540 45 563 55 581 c 0
 65 599 88 605 106 595 c 2
 180 552 l 1
 180 638 l 2
EndSplineSet
EndChar

StartChar: plus
Encoding: 43 43 77
Width: 475
Flags: W
HStem: 200 75<53.9155 200 275 421.277>
VStem: 200 75<53.9155 200 275 421.277>
LayerCount: 2
Fore
SplineSet
200 88 m 2
 200 200 l 1
 88 200 l 2
 68 200 50 218 50 238 c 0
 50 258 68 275 88 275 c 2
 200 275 l 1
 200 388 l 2
 200 408 218 425 238 425 c 0
 258 425 275 408 275 388 c 2
 275 275 l 1
 388 275 l 2
 408 275 425 258 425 238 c 0
 425 218 408 200 388 200 c 2
 275 200 l 1
 275 88 l 2
 275 68 258 50 238 50 c 0
 218 50 200 68 200 88 c 2
EndSplineSet
EndChar

StartChar: comma
Encoding: 44 44 78
Width: 175
Flags: W
HStem: -45 120
VStem: 50 75<4.28636 71.2773>
LayerCount: 2
Fore
SplineSet
116 12 m 0
 96 -12 72 -30 44 -44 c 1
 42 -45 40 -45 38 -45 c 0
 31 -45 25 -39 25 -32 c 0
 25 -27 28 -23 32 -21 c 0
 46 -14 59 -6 71 4 c 1
 59 10 50 23 50 38 c 0
 50 58 68 75 88 75 c 0
 108 75 125 58 125 38 c 0
 125 28 122 18 116 12 c 0
EndSplineSet
EndChar

StartChar: hyphen
Encoding: 45 45 79
Width: 474
Flags: W
HStem: 200 75<53.9155 421.277>
LayerCount: 2
Fore
SplineSet
88 275 m 2
 388 275 l 2
 408 275 425 258 425 238 c 0
 425 218 408 200 388 200 c 2
 88 200 l 2
 68 200 50 218 50 238 c 0
 50 258 68 275 88 275 c 2
EndSplineSet
EndChar

StartChar: period
Encoding: 46 46 80
Width: 175
Flags: W
HStem: 0 75<53.9155 121.277>
VStem: 50 75<3.91553 71.2773>
LayerCount: 2
Fore
SplineSet
88 0 m 0
 68 0 50 18 50 38 c 0
 50 58 68 75 88 75 c 0
 108 75 125 58 125 38 c 0
 125 18 108 0 88 0 c 0
EndSplineSet
EndChar

StartChar: slash
Encoding: 47 47 81
Width: 521
Flags: W
LayerCount: 2
Fore
SplineSet
401 656 m 2
 411 674 434 679 452 669 c 0
 470 659 476 636 466 618 c 2
 120 18 l 2
 110 0 86 -5 68 5 c 0
 50 15 45 38 55 56 c 2
 401 656 l 2
EndSplineSet
EndChar

StartChar: colon
Encoding: 58 58 82
Width: 195
Flags: W
HStem: 0 75<63.9155 131.277> 125 75<63.9155 131.277> 250 75<63.9155 131.277>
VStem: 60 75<3.91553 71.2773 128.723 196.084 253.916 321.277>
CounterMasks: 1 e0
LayerCount: 2
Fore
SplineSet
98 250 m 0
 78 250 60 268 60 288 c 0
 60 308 78 325 98 325 c 0
 118 325 135 308 135 288 c 0
 135 268 118 250 98 250 c 0
135 162 m 0
 135 142 118 125 98 125 c 0
 78 125 60 142 60 162 c 0
 60 182 78 200 98 200 c 0
 118 200 135 182 135 162 c 0
135 38 m 0
 135 18 118 0 98 0 c 0
 78 0 60 18 60 38 c 0
 60 58 78 75 98 75 c 0
 118 75 135 58 135 38 c 0
EndSplineSet
EndChar

StartChar: semicolon
Encoding: 59 59 83
Width: 195
Flags: W
HStem: 125 75<63.9155 131.277> 250 75<63.9155 131.277>
VStem: 60 75<4.28636 71.2773 128.723 196.084 253.916 321.277>
LayerCount: 2
Fore
SplineSet
135 288 m 0
 135 268 118 250 98 250 c 0
 78 250 60 268 60 288 c 0
 60 308 78 325 98 325 c 0
 118 325 135 308 135 288 c 0
135 162 m 0
 135 142 118 125 98 125 c 0
 78 125 60 142 60 162 c 0
 60 182 78 200 98 200 c 0
 118 200 135 182 135 162 c 0
60 38 m 0
 60 58 78 75 98 75 c 0
 118 75 135 58 135 38 c 0
 135 28 132 18 126 12 c 0
 106 -12 82 -30 54 -44 c 1
 52 -45 50 -45 48 -45 c 0
 41 -45 35 -39 35 -32 c 0
 35 -27 38 -23 42 -21 c 0
 56 -14 69 -6 81 4 c 1
 69 10 60 23 60 38 c 0
EndSplineSet
EndChar

StartChar: less
Encoding: 60 60 84
Width: 506
Flags: W
LayerCount: 2
Fore
SplineSet
50 225 m 0
 50 271 65 316 91 354 c 0
 117 392 154 420 198 436 c 0
 242 452 290 454 334 442 c 0
 378 430 418 406 448 370 c 0
 454 364 456 355 456 345 c 0
 456 325 439 308 419 308 c 0
 407 308 397 314 390 322 c 0
 370 346 344 362 314 370 c 0
 284 378 253 376 224 366 c 0
 195 356 170 336 152 311 c 0
 138 292 130 271 126 248 c 1
 435 93 l 2
 447 87 456 74 456 59 c 0
 456 39 439 22 419 22 c 0
 413 22 407 24 402 26 c 2
 66 194 l 1
 56 201 50 213 50 225 c 0
EndSplineSet
EndChar

StartChar: equal
Encoding: 61 61 85
Width: 475
Flags: W
HStem: 100 75<53.9155 421.277> 275 75<53.9155 421.277>
LayerCount: 2
Fore
SplineSet
50 138 m 0
 50 158 68 175 88 175 c 2
 388 175 l 2
 408 175 425 158 425 138 c 0
 425 118 408 100 388 100 c 2
 88 100 l 2
 68 100 50 118 50 138 c 0
50 312 m 0
 50 332 68 350 88 350 c 2
 388 350 l 2
 408 350 425 332 425 312 c 0
 425 292 408 275 388 275 c 2
 88 275 l 2
 68 275 50 292 50 312 c 0
EndSplineSet
EndChar

StartChar: greater
Encoding: 62 62 86
Width: 506
Flags: W
LayerCount: 2
Fore
SplineSet
456 225 m 0
 456 213 450 201 440 194 c 1
 104 26 l 2
 99 24 93 22 87 22 c 0
 67 22 50 39 50 59 c 0
 50 74 59 87 71 93 c 2
 380 248 l 1
 376 271 368 292 354 311 c 0
 336 336 311 356 282 366 c 0
 253 376 222 378 192 370 c 0
 162 362 136 346 116 322 c 0
 109 314 99 308 87 308 c 0
 67 308 50 325 50 345 c 0
 50 355 52 364 58 370 c 0
 88 406 128 430 172 442 c 0
 216 454 264 452 308 436 c 0
 352 420 389 392 415 354 c 0
 441 316 456 271 456 225 c 0
EndSplineSet
EndChar

StartChar: question
Encoding: 63 63 87
Width: 550
Flags: W
HStem: 0 75<241.723 308.277> 225 75<241.723 349.96>
VStem: 50 75<415.916 528.268> 238 74<3.51019 71.664>
LayerCount: 2
Fore
SplineSet
88 575 m 4
 112 612 148 641 189 658 c 4
 230 675 275 678 319 670 c 4
 363 662 402 641 434 609 c 4
 466 577 488 538 496 494 c 4
 504 450 500 405 483 364 c 4
 466 323 437 287 400 263 c 4
 363 239 319 225 275 225 c 4
 255 225 238 242 238 262 c 4
 238 282 255 300 275 300 c 4
 276 300 l 4
 306 300 334 310 358 326 c 4
 382 342 402 364 414 392 c 4
 426 420 428 451 422 480 c 4
 416 509 402 535 381 556 c 4
 360 577 333 591 304 597 c 4
 275 603 246 600 218 588 c 4
 190 576 166 558 150 534 c 4
 134 510 125 480 125 450 c 6
 125 430 108 412 88 412 c 4
 68 412 50 430 50 450 c 4
 50 494 64 538 88 575 c 4
275 0 m 4
 255 0 238 18 238 38 c 4
 238 58 255 75 275 75 c 4
 295 75 312 58 312 38 c 4
 312 18 295 0 275 0 c 4
EndSplineSet
EndChar

StartChar: at
Encoding: 64 64 88
Width: 775
Flags: W
LayerCount: 2
Fore
SplineSet
522 -84 m 0
 451 -115 371 -121 297 -100 c 0
 223 -79 157 -34 112 30 c 0
 67 94 46 170 51 248 c 0
 56 326 87 399 140 456 c 0
 193 513 264 550 341 560 c 0
 418 570 496 554 562 514 c 0
 628 474 680 412 706 339 c 0
 732 266 732 186 706 113 c 0
 696 85 675 62 648 49 c 0
 621 36 590 34 562 44 c 0
 541 52 523 65 510 83 c 1
 496 71 480 62 462 54 c 0
 367 12 258 55 216 150 c 0
 174 245 217 356 312 398 c 0
 407 440 518 395 560 300 c 0
 580 254 580 206 564 162 c 0
 561 153 562 142 566 134 c 0
 570 125 577 119 587 115 c 0
 597 111 607 112 616 116 c 0
 625 120 631 128 635 138 c 0
 655 195 654 257 634 314 c 0
 614 371 576 418 524 450 c 0
 472 482 412 494 352 486 c 0
 292 478 237 448 196 404 c 0
 155 360 130 303 126 243 c 0
 122 183 138 124 173 74 c 0
 208 24 259 -12 317 -28 c 0
 375 -44 437 -40 492 -16 c 0
 492 -15 l 0
 511 -7 534 -15 542 -34 c 0
 550 -53 541 -76 522 -84 c 0
432 122 m 0
 489 147 515 213 490 270 c 0
 465 327 399 353 342 328 c 0
 285 303 259 237 284 180 c 0
 309 123 375 97 432 122 c 0
EndSplineSet
EndChar

StartChar: bracketleft
Encoding: 91 91 89
Width: 400
Flags: W
HStem: -209 75<198.978 346.084> 586 75<198.978 346.084>
VStem: 50 75<-60.0225 512.022>
LayerCount: 2
Fore
SplineSet
50 436 m 2
 50 496 74 553 116 595 c 0
 158 637 215 661 275 661 c 2
 312 661 l 2
 332 661 350 644 350 624 c 0
 350 604 332 586 312 586 c 2
 275 586 l 1
 235 586 197 570 169 542 c 0
 141 514 125 476 125 436 c 1
 125 16 l 1
 125 -24 141 -62 169 -90 c 0
 197 -118 235 -134 275 -134 c 1
 312 -134 l 2
 332 -134 350 -152 350 -172 c 0
 350 -192 332 -209 312 -209 c 2
 275 -209 l 2
 215 -209 158 -185 116 -143 c 0
 74 -101 50 -44 50 16 c 2
 50 436 l 2
EndSplineSet
EndChar

StartChar: backslash
Encoding: 92 92 90
Width: 521
Flags: W
LayerCount: 2
Fore
SplineSet
120 656 m 2
 466 56 l 2
 476 38 470 15 452 5 c 0
 434 -5 411 0 401 18 c 2
 55 618 l 2
 45 636 51 659 69 669 c 0
 87 679 110 674 120 656 c 2
EndSplineSet
EndChar

StartChar: bracketright
Encoding: 93 93 91
Width: 400
Flags: W
HStem: -209 75<53.9155 201.022> 586 75<53.9155 201.022>
VStem: 275 75<-60.0225 512.022>
LayerCount: 2
Fore
SplineSet
125 661 m 2
 185 661 242 637 284 595 c 0
 326 553 350 496 350 436 c 2
 350 16 l 2
 350 -44 326 -101 284 -143 c 0
 242 -185 185 -209 125 -209 c 2
 88 -209 l 2
 68 -209 50 -192 50 -172 c 0
 50 -152 68 -134 88 -134 c 2
 125 -134 l 1
 165 -134 203 -118 231 -90 c 0
 259 -62 275 -24 275 16 c 1
 275 436 l 1
 275 476 259 514 231 542 c 0
 203 570 165 586 125 586 c 1
 88 586 l 2
 68 586 50 604 50 624 c 0
 50 644 68 661 88 661 c 2
 125 661 l 2
EndSplineSet
EndChar

StartChar: asciicircum
Encoding: 94 94 92
Width: 295
Flags: W
HStem: 502 222
VStem: 52 191
LayerCount: 2
Fore
SplineSet
142 724 m 0
 145 724 148 724 152 724 c 0
 160 722 166 718 170 710 c 2
 243 534 l 2
 249 521 243 508 230 502 c 0
 217 496 203 503 197 516 c 2
 148 634 l 1
 98 516 l 2
 92 503 79 496 66 502 c 0
 53 508 46 521 52 534 c 2
 124 710 l 2
 128 718 134 722 142 724 c 0
EndSplineSet
EndChar

StartChar: underscore
Encoding: 95 95 93
Width: 635
Flags: W
HStem: -225 50<30.1976 604.802>
LayerCount: 2
Fore
SplineSet
55 -175 m 2
 580 -175 l 2
 594 -175 605 -186 605 -200 c 0
 605 -214 594 -225 580 -225 c 2
 55 -225 l 2
 41 -225 30 -214 30 -200 c 0
 30 -186 41 -175 55 -175 c 2
EndSplineSet
EndChar

StartChar: quotedbl
Encoding: 34 34 94
Width: 325
Flags: W
HStem: 500 225<53.9155 121.277 203.916 271.277>
VStem: 50 75<503.916 721.277> 200 75<503.916 721.277>
LayerCount: 2
Fore
SplineSet
50 688 m 2
 50 708 68 725 88 725 c 0
 108 725 125 708 125 688 c 2
 125 538 l 2
 125 518 108 500 88 500 c 0
 68 500 50 518 50 538 c 2
 50 688 l 2
200 688 m 2
 200 708 218 725 238 725 c 0
 258 725 275 708 275 688 c 2
 275 538 l 2
 275 518 258 500 238 500 c 0
 218 500 200 518 200 538 c 2
 200 688 l 2
EndSplineSet
EndChar

StartChar: quotesingle
Encoding: 39 39 95
Width: 175
Flags: W
HStem: 500 225<53.9155 121.277>
VStem: 50 75<503.916 721.277>
LayerCount: 2
Fore
SplineSet
88 725 m 0
 108 725 125 708 125 688 c 2
 125 538 l 2
 125 518 108 500 88 500 c 0
 68 500 50 518 50 538 c 2
 50 688 l 2
 50 708 68 725 88 725 c 0
EndSplineSet
EndChar

StartChar: grave
Encoding: 96 96 96
Width: 200
Flags: W
HStem: 542 130
LayerCount: 2
Fore
SplineSet
54 638 m 6
 47 650 50 665 62 672 c 4
 74 679 89 674 96 662 c 6
 146 576 l 6
 153 564 150 549 138 542 c 4
 126 535 111 539 104 551 c 6
 54 638 l 6
EndSplineSet
EndChar

StartChar: braceleft
Encoding: 123 123 97
Width: 535
Flags: W
HStem: -209 75<371.571 481.277> 586 75<371.571 481.277>
VStem: 222 76<-60.0225 101.991 350.009 512.022>
LayerCount: 2
Fore
SplineSet
288 595 m 0
 330 637 388 661 448 661 c 0
 468 661 485 644 485 624 c 0
 485 604 468 586 448 586 c 1
 408 586 370 570 342 542 c 0
 314 514 298 476 298 436 c 1
 298 424 296 410 294 398 c 0
 291 378 286 360 278 342 c 0
 266 312 248 284 225 261 c 0
 211 247 197 236 181 226 c 1
 197 216 211 205 225 191 c 0
 248 168 266 140 278 110 c 0
 286 92 291 74 294 54 c 0
 296 42 298 28 298 16 c 1
 298 -24 314 -62 342 -90 c 0
 370 -118 408 -134 448 -134 c 1
 468 -134 485 -152 485 -172 c 0
 485 -192 468 -209 448 -209 c 0
 388 -209 330 -185 288 -143 c 0
 246 -101 222 -44 222 16 c 0
 222 28 220 41 218 53 c 0
 216 63 214 72 210 82 c 0
 202 103 188 122 172 138 c 0
 156 154 137 168 116 176 c 0
 106 180 97 182 87 184 c 0
 73 187 60 197 54 210 c 0
 52 213 50 216 50 220 c 0
 50 222 50 224 50 226 c 0
 50 228 50 230 50 232 c 0
 50 236 52 239 54 242 c 0
 60 255 73 265 87 268 c 0
 97 270 106 272 116 276 c 0
 137 284 156 298 172 314 c 0
 188 330 202 349 210 370 c 0
 214 380 216 389 218 399 c 0
 220 411 222 424 222 436 c 0
 222 496 246 553 288 595 c 0
EndSplineSet
EndChar

StartChar: bar
Encoding: 124 124 98
Width: 175
Flags: W
HStem: 655 20G<78 98>
VStem: 50 75<-221.277 671.277>
LayerCount: 2
Fore
SplineSet
88 675 m 0
 108 675 125 658 125 638 c 2
 125 -188 l 2
 125 -208 108 -225 88 -225 c 0
 68 -225 50 -208 50 -188 c 2
 50 638 l 2
 50 658 68 675 88 675 c 0
EndSplineSet
EndChar

StartChar: braceright
Encoding: 125 125 99
Width: 535
Flags: W
HStem: -209 75<53.9155 163.616> 586 75<53.9155 163.616>
VStem: 238 74<-60.0225 99.0145 352.986 512.022>
LayerCount: 2
Fore
SplineSet
50 624 m 0
 50 644 68 661 88 661 c 0
 148 661 204 637 246 595 c 0
 288 553 312 496 312 436 c 0
 312 424 314 411 316 399 c 0
 318 389 322 380 326 370 c 0
 334 349 347 330 363 314 c 0
 379 298 398 284 419 276 c 0
 429 272 438 270 448 268 c 0
 462 265 476 255 482 242 c 0
 484 239 484 236 484 232 c 0
 484 230 485 228 485 226 c 0
 485 224 484 222 484 220 c 0
 484 216 484 213 482 210 c 0
 476 197 462 187 448 184 c 0
 438 182 429 180 419 176 c 0
 398 168 379 154 363 138 c 0
 347 122 334 103 326 82 c 0
 322 72 318 63 316 53 c 0
 314 41 312 28 312 16 c 0
 312 -44 288 -101 246 -143 c 0
 204 -185 148 -209 88 -209 c 0
 68 -209 50 -192 50 -172 c 0
 50 -152 68 -134 88 -134 c 1
 128 -134 166 -118 194 -90 c 0
 222 -62 238 -24 238 16 c 1
 238 28 238 42 240 54 c 0
 243 74 248 92 256 110 c 0
 268 140 287 168 310 191 c 0
 324 205 338 216 354 226 c 1
 338 236 324 247 310 261 c 0
 287 284 268 312 256 342 c 0
 248 360 243 378 240 398 c 0
 238 410 238 424 238 436 c 1
 238 476 222 514 194 542 c 0
 166 570 128 586 88 586 c 1
 68 586 50 604 50 624 c 0
EndSplineSet
EndChar

StartChar: asciitilde
Encoding: 126 126 100
Width: 625
Flags: W
HStem: 190 75<347.32 501.87> 265 75<122.948 278.438>
LayerCount: 2
Fore
SplineSet
200 340 m 0x40
 249 340 297 324 336 294 c 0
 362 275 393 265 425 265 c 0x80
 457 265 488 275 514 295 c 0
 520 300 530 302 538 302 c 0
 558 302 575 285 575 265 c 0x40
 575 253 570 241 560 234 c 0
 521 205 473 190 425 190 c 0x80
 376 190 329 206 290 236 c 0
 264 255 232 265 200 265 c 0
 168 265 136 255 110 235 c 0
 104 230 96 228 88 228 c 0
 68 228 50 245 50 265 c 0
 50 277 56 289 66 296 c 0
 105 325 152 340 200 340 c 0x40
EndSplineSet
EndChar

StartChar: section
Encoding: 167 167 101
Width: 500
Flags: W
HStem: 25 75<181.416 306.891> 350 75<193.109 318.584>
VStem: 50 75<155.772 294.305> 90 74<-121.417 -51.5645 453.29 571.466> 336 74<-121.466 -3.28993 502.169 571.417> 375 75<155.89 294.228>
LayerCount: 2
Fore
SplineSet
360 58 m 1xc4
 376 44 388 26 397 6 c 0
 410 -22 415 -53 411 -83 c 0
 407 -113 395 -142 375 -166 c 0
 355 -190 330 -207 300 -217 c 0
 270 -227 240 -228 210 -220 c 0
 180 -212 153 -196 132 -174 c 0
 111 -152 96 -124 90 -94 c 0
 90 -92 90 -89 90 -86 c 0
 90 -66 107 -48 127 -48 c 0
 145 -48 161 -61 164 -79 c 0xd4
 167 -95 174 -110 186 -122 c 0
 198 -134 212 -144 228 -148 c 0
 244 -152 261 -151 277 -146 c 0
 293 -141 308 -131 318 -118 c 0
 328 -105 335 -90 337 -74 c 0
 339 -58 336 -40 329 -25 c 0
 322 -10 311 3 297 12 c 0
 283 21 267 25 251 25 c 2
 250 25 l 2
 140 25 50 115 50 225 c 0
 50 287 77 342 121 378 c 0
 127 383 133 388 140 392 c 1
 124 406 112 424 103 444 c 0
 90 472 85 503 89 533 c 0
 93 563 105 592 125 616 c 0
 145 640 170 657 200 667 c 0
 230 677 260 678 290 670 c 0
 320 662 347 646 368 624 c 0
 389 602 404 574 410 544 c 0
 410 542 410 538 410 536 c 0
 410 516 392 498 372 498 c 0
 354 498 339 512 336 530 c 0xe8
 333 546 325 560 314 572 c 0
 302 584 288 594 272 598 c 0
 256 602 239 601 223 596 c 0
 207 591 192 581 182 568 c 0
 172 555 165 540 163 524 c 0
 161 508 164 490 171 475 c 0
 178 460 189 447 203 438 c 0
 217 429 233 425 249 425 c 2
 250 425 l 2
 360 425 450 335 450 225 c 0
 450 155 414 94 360 58 c 1xc4
125 225 m 0xe4
 125 156 181 100 250 100 c 0
 319 100 375 156 375 225 c 0
 375 294 319 350 250 350 c 0
 181 350 125 294 125 225 c 0xe4
EndSplineSet
EndChar

StartChar: dieresis
Encoding: 168 168 102
Width: 435
Flags: W
HStem: 650 75<53.9155 121.277 183.916 251.277 313.916 381.277>
VStem: 50 75<653.916 721.277> 180 75<653.916 721.277> 310 75<653.916 721.277>
CounterMasks: 1 70
LayerCount: 2
Fore
SplineSet
255 688 m 4
 255 668 238 650 218 650 c 4
 198 650 180 668 180 688 c 4
 180 708 198 725 218 725 c 4
 238 725 255 708 255 688 c 4
385 688 m 4
 385 668 368 650 348 650 c 4
 328 650 310 668 310 688 c 4
 310 708 328 725 348 725 c 4
 368 725 385 708 385 688 c 4
125 688 m 4
 125 668 108 650 88 650 c 4
 68 650 50 668 50 688 c 4
 50 708 68 725 88 725 c 4
 108 725 125 708 125 688 c 4
EndSplineSet
EndChar

StartChar: Euro
Encoding: 256 8364 103
Width: 684
Flags: W
HStem: 0 75<334.19 540.178> 262 50<50.3843 101 186 489.616> 362 50<50.3843 101 186 537.582> 600 75<332.454 538.985>
VStem: 100 75<312 362>
LayerCount: 2
Fore
SplineSet
426 0 m 0
 367 2 308 20 258 52 c 0
 208 84 168 127 140 179 c 0
 126 205 114 233 108 262 c 1
 75 262 l 2
 61 262 50 274 50 288 c 0
 50 302 61 312 75 312 c 2
 101 312 l 1
 100 324 100 338 100 350 c 0
 100 354 101 358 101 362 c 1
 75 362 l 2
 61 362 50 374 50 388 c 0
 50 402 61 412 75 412 c 2
 108 412 l 1
 116 448 132 484 152 516 c 0
 184 566 227 608 279 636 c 0
 331 664 391 677 450 675 c 0
 509 673 566 656 616 624 c 0
 627 618 634 606 634 592 c 0
 634 572 617 554 597 554 c 0
 589 554 582 556 576 560 c 0
 537 584 492 598 446 600 c 0
 400 602 354 592 314 570 c 0
 274 548 239 515 215 476 c 0
 203 456 192 434 186 412 c 1
 512 412 l 2
 526 412 538 402 538 388 c 0
 538 374 526 362 512 362 c 2
 176 362 l 1
 176 356 175 352 175 346 c 0
 175 334 175 324 176 312 c 1
 465 312 l 2
 479 312 490 302 490 288 c 0
 490 274 479 262 465 262 c 2
 186 262 l 1
 191 246 198 230 206 214 c 0
 228 174 259 139 298 115 c 0
 337 91 382 77 428 75 c 0
 474 73 520 84 560 106 c 0
 566 109 573 110 579 110 c 0
 599 110 616 93 616 73 c 0
 616 59 608 46 596 40 c 0
 544 12 485 -2 426 0 c 0
EndSplineSet
EndChar

StartChar: approxequal
Encoding: 257 8776 104
Width: 624
Flags: W
HStem: 110 75<347.32 501.87> 185 75<122.948 278.438> 260 75<347.32 501.87> 335 75<122.948 278.438>
LayerCount: 2
Fore
SplineSet
200 410 m 0x10
 249 410 297 394 336 364 c 0
 362 345 393 335 425 335 c 0x20
 457 335 488 345 514 365 c 0
 520 370 530 372 538 372 c 0
 558 372 575 355 575 335 c 0x10
 575 323 570 311 560 304 c 0
 521 275 473 260 425 260 c 0x20
 376 260 329 276 290 306 c 0
 264 325 232 335 200 335 c 0
 168 335 136 325 110 305 c 0
 104 300 96 298 88 298 c 0
 68 298 50 315 50 335 c 0
 50 347 56 359 66 366 c 0
 105 395 152 410 200 410 c 0x10
110 155 m 0
 104 150 96 148 88 148 c 0
 68 148 50 165 50 185 c 0
 50 197 56 209 66 216 c 0
 105 245 152 260 200 260 c 0x40
 249 260 297 244 336 214 c 0
 362 195 393 185 425 185 c 0x80
 457 185 488 195 514 215 c 0
 520 220 530 222 538 222 c 0
 558 222 575 205 575 185 c 0x40
 575 173 570 161 560 154 c 0
 521 125 473 110 425 110 c 0x80
 376 110 329 126 290 156 c 0
 264 175 232 185 200 185 c 0x40
 168 185 136 175 110 155 c 0
EndSplineSet
EndChar

StartChar: odieresis
Encoding: 246 246 105
Width: 550
Flags: W
HStem: 0 75<197.446 352.554> 375 75<197.446 352.554> 550 75<123.916 191.277 243.916 311.277 363.916 431.277>
VStem: 50 75<147.446 302.554> 120 75<553.916 621.277> 240 75<553.916 621.277> 360 75<553.916 621.277> 425 75<147.446 302.554>
LayerCount: 2
Fore
SplineSet
315 588 m 0xe4
 315 568 298 550 278 550 c 0
 258 550 240 568 240 588 c 0
 240 608 258 625 278 625 c 0
 298 625 315 608 315 588 c 0xe4
435 588 m 4xe6
 435 568 418 550 398 550 c 4
 378 550 360 568 360 588 c 4
 360 608 378 625 398 625 c 4
 418 625 435 608 435 588 c 4xe6
195 588 m 0xec
 195 568 178 550 158 550 c 0
 138 550 120 568 120 588 c 0
 120 608 138 625 158 625 c 0
 178 625 195 608 195 588 c 0xec
500 225 m 0xf5
 500 101 399 0 275 0 c 0
 151 0 50 101 50 225 c 0
 50 349 151 450 275 450 c 0
 399 450 500 349 500 225 c 0xf5
125 225 m 0
 125 142 192 75 275 75 c 0
 358 75 425 142 425 225 c 0
 425 308 358 375 275 375 c 0
 192 375 125 308 125 225 c 0
EndSplineSet
EndChar

StartChar: adieresis
Encoding: 228 228 106
Width: 550
Flags: W
HStem: 0 75<197.446 352.42> 375 75<197.446 352.554> 550 75<123.916 191.277 243.916 311.277 363.916 431.277>
VStem: 50 75<147.446 302.554> 120 75<553.916 621.277> 240 75<553.916 621.277> 360 75<553.916 621.277> 425 75<3.91553 58 147.15 302.257>
LayerCount: 2
Fore
SplineSet
315 588 m 4xe4
 315 568 298 550 278 550 c 4
 258 550 240 568 240 588 c 4
 240 608 258 625 278 625 c 4
 298 625 315 608 315 588 c 4xe4
435 588 m 4xe6
 435 568 418 550 398 550 c 4
 378 550 360 568 360 588 c 4
 360 608 378 625 398 625 c 4
 418 625 435 608 435 588 c 4xe6
195 588 m 4xec
 195 568 178 550 158 550 c 4
 138 550 120 568 120 588 c 4
 120 608 138 625 158 625 c 4
 178 625 195 608 195 588 c 4xec
425 58 m 1xf5
 385 22 333 0 275 0 c 0
 151 0 50 101 50 225 c 0
 50 349 151 450 275 450 c 0
 399 450 500 349 500 225 c 2
 500 38 l 2
 500 18 482 0 462 0 c 0
 442 0 425 18 425 38 c 2
 425 58 l 1xf5
425 225 m 0
 425 308 358 375 275 375 c 0
 192 375 125 308 125 225 c 0
 125 142 192 75 275 75 c 0
 358 75 425 142 425 225 c 0
EndSplineSet
EndChar

StartChar: udieresis
Encoding: 252 252 107
Width: 550
Flags: W
HStem: 0 75<197.379 351.461> 550 75<121.745 189.277 241.745 309.277 361.745 429.277>
VStem: 50 75<148.542 303.057> 118 75<554.552 622.255> 238 75<553.745 621.448> 358 75<553.745 621.448> 425 75<148.429 303.402>
LayerCount: 2
Fore
SplineSet
193 370 m 0xd8
 193 358 187 347 178 340 c 0
 155 320 138 294 130 265 c 0
 126 252 125 239 125 225 c 0
 125 207 128 190 134 174 c 0
 145 145 164 120 189 102 c 0
 214 85 244 75 275 75 c 0
 306 75 336 85 361 103 c 0
 387 121 406 146 416 175 c 0
 422 191 425 209 425 226 c 0
 425 239 424 252 420 265 c 0
 412 294 395 320 372 340 c 0
 363 347 357 357 357 370 c 0
 357 390 374 407 395 407 c 0
 404 407 412 404 418 399 c 1
 454 369 480 329 492 285 c 0
 497 265 500 246 500 226 c 0
 500 200 495 174 487 149 c 0
 471 106 442 68 405 41 c 0
 367 15 322 0 275 0 c 0
 229 0 184 15 146 41 c 0
 108 68 79 105 63 149 c 0
 55 173 50 198 50 224 c 0xea
 50 244 53 264 58 284 c 0
 70 329 95 368 131 398 c 0
 137 404 146 407 155 407 c 0
 176 407 193 390 193 370 c 0xd8
313 588 m 0
 313 567 296 550 276 550 c 0
 255 550 238 567 238 588 c 0
 238 609 255 625 276 625 c 0
 296 625 313 609 313 588 c 0
433 588 m 0xcc
 433 567 416 550 396 550 c 0
 375 550 358 567 358 588 c 0
 358 609 375 625 396 625 c 0
 416 625 433 609 433 588 c 0xcc
193 588 m 0xd8
 193 567 176 551 156 551 c 0
 135 551 118 567 118 588 c 0
 118 609 135 626 156 626 c 0
 176 626 193 609 193 588 c 0xd8
EndSplineSet
EndChar

StartChar: acute
Encoding: 180 180 108
Width: 200
Flags: W
HStem: 542 130
LayerCount: 2
Fore
SplineSet
146 638 m 2
 96 551 l 2
 89 539 74 535 62 542 c 0
 50 549 47 564 54 576 c 2
 104 662 l 2
 111 674 126 679 138 672 c 0
 150 665 153 650 146 638 c 2
EndSplineSet
EndChar

StartChar: multiply
Encoding: 215 215 109
Width: 387
Flags: W
LayerCount: 2
Fore
SplineSet
326 105 m 0
 312 91 287 91 273 105 c 2
 194 184 l 1
 114 105 l 2
 100 91 75 91 61 105 c 0
 47 119 47 144 61 158 c 2
 140 238 l 1
 61 317 l 2
 47 331 47 356 61 370 c 0
 75 384 100 384 114 370 c 2
 194 290 l 1
 273 370 l 2
 287 384 312 384 326 370 c 0
 340 356 340 331 326 317 c 2
 246 238 l 1
 326 158 l 2
 340 144 340 119 326 105 c 0
EndSplineSet
EndChar

StartChar: egrave
Encoding: 232 232 110
Width: 506
Flags: W
VStem: 50 75<195.183 303.296>
LayerCount: 2
Fore
SplineSet
448 80 m 0
 418 44 378 20 334 8 c 0
 290 -4 242 -2 198 14 c 0
 154 30 116 58 90 96 c 0
 64 134 50 180 50 226 c 0
 50 272 65 316 91 354 c 0
 117 392 155 420 199 436 c 0
 243 452 290 454 334 442 c 0
 378 430 418 404 448 368 c 1
 453 362 456 354 456 345 c 0
 456 333 450 321 440 314 c 2
 162 126 l 1
 178 107 200 92 224 84 c 0
 253 74 284 72 314 80 c 0
 344 88 370 104 390 128 c 0
 397 136 407 142 419 142 c 0
 439 142 456 125 456 105 c 0
 456 95 454 86 448 80 c 0
125 225 m 0
 125 215 126 204 128 194 c 1
 359 350 l 1
 345 359 330 366 314 370 c 0
 284 378 253 376 224 366 c 0
 195 356 170 337 152 312 c 0
 134 287 125 256 125 225 c 0
208 638 m 6
 201 650 206 665 218 672 c 4
 230 679 245 674 252 662 c 6
 302 576 l 6
 309 564 304 549 292 542 c 4
 280 535 265 539 258 551 c 6
 208 638 l 6
EndSplineSet
EndChar

StartChar: eacute
Encoding: 233 233 111
Width: 506
Flags: W
VStem: 50 75<195.183 303.296>
LayerCount: 2
Fore
SplineSet
316 638 m 6
 266 551 l 6
 259 539 244 535 232 542 c 4
 220 549 217 564 224 576 c 6
 274 662 l 6
 281 674 296 679 308 672 c 4
 320 665 323 650 316 638 c 6
448 80 m 0
 418 44 378 20 334 8 c 0
 290 -4 242 -2 198 14 c 0
 154 30 116 58 90 96 c 0
 64 134 50 180 50 226 c 0
 50 272 65 316 91 354 c 0
 117 392 155 420 199 436 c 0
 243 452 290 454 334 442 c 0
 378 430 418 404 448 368 c 1
 453 362 456 354 456 345 c 0
 456 333 450 321 440 314 c 2
 162 126 l 1
 178 107 200 92 224 84 c 0
 253 74 284 72 314 80 c 0
 344 88 370 104 390 128 c 0
 397 136 407 142 419 142 c 0
 439 142 456 125 456 105 c 0
 456 95 454 86 448 80 c 0
125 225 m 0
 125 215 126 204 128 194 c 1
 359 350 l 1
 345 359 330 366 314 370 c 0
 284 378 253 376 224 366 c 0
 195 356 170 337 152 312 c 0
 134 287 125 256 125 225 c 0
EndSplineSet
EndChar

StartChar: edieresis
Encoding: 235 235 112
Width: 506
Flags: W
HStem: 550 75<113.916 181.277 233.916 301.277 353.916 421.277>
VStem: 50 75<195.183 303.296> 110 75<553.916 621.277> 230 75<553.916 621.277> 350 75<553.916 621.277>
LayerCount: 2
Fore
SplineSet
305 588 m 4x98
 305 568 288 550 268 550 c 4
 248 550 230 568 230 588 c 4
 230 608 248 625 268 625 c 4
 288 625 305 608 305 588 c 4x98
425 588 m 4
 425 568 408 550 388 550 c 4
 368 550 350 568 350 588 c 4
 350 608 368 625 388 625 c 4
 408 625 425 608 425 588 c 4
185 588 m 4xb8
 185 568 168 550 148 550 c 4
 128 550 110 568 110 588 c 4
 110 608 128 625 148 625 c 4
 168 625 185 608 185 588 c 4xb8
448 80 m 0
 418 44 378 20 334 8 c 0
 290 -4 242 -2 198 14 c 0
 154 30 116 58 90 96 c 0
 64 134 50 180 50 226 c 0xd8
 50 272 65 316 91 354 c 0
 117 392 155 420 199 436 c 0
 243 452 290 454 334 442 c 0
 378 430 418 404 448 368 c 1
 453 362 456 354 456 345 c 0
 456 333 450 321 440 314 c 2
 162 126 l 1
 178 107 200 92 224 84 c 0
 253 74 284 72 314 80 c 0
 344 88 370 104 390 128 c 0
 397 136 407 142 419 142 c 0
 439 142 456 125 456 105 c 0
 456 95 454 86 448 80 c 0
125 225 m 0
 125 215 126 204 128 194 c 1
 359 350 l 1
 345 359 330 366 314 370 c 0
 284 378 253 376 224 366 c 0
 195 356 170 337 152 312 c 0
 134 287 125 256 125 225 c 0
EndSplineSet
EndChar

StartChar: ntilde
Encoding: 241 241 113
Width: 550
Flags: W
HStem: 375 75<197.701 353.296> 540 38<278.915 389.527> 578 37<167.373 266.016>
LayerCount: 2
Fore
SplineSet
58 166 m 0x80
 46 210 48 258 64 302 c 0
 80 346 108 384 146 410 c 0
 184 436 230 450 276 450 c 0
 322 450 366 435 404 409 c 0
 442 383 470 345 486 301 c 0
 502 257 504 210 492 166 c 0
 480 122 454 82 418 52 c 1
 412 47 404 44 395 44 c 0
 375 44 358 61 358 81 c 0
 358 93 363 103 372 110 c 0
 395 130 412 157 420 186 c 0
 428 216 426 247 416 276 c 0
 406 305 387 330 362 348 c 0
 337 366 306 375 275 375 c 0
 244 375 215 366 189 348 c 0
 163 330 144 305 134 276 c 0
 124 247 122 216 130 186 c 0
 138 156 154 130 178 110 c 0
 186 103 192 93 192 81 c 0
 192 61 175 44 155 44 c 0
 145 44 136 46 130 52 c 0
 94 82 70 122 58 166 c 0x80
218 615 m 4xa0
 242 615 266 606 286 592 c 4
 299 582 314 578 330 578 c 4xc0
 346 578 362 582 375 592 c 4
 378 594 382 596 386 596 c 4
 396 596 405 588 405 578 c 4xa0
 405 572 402 566 398 562 c 4
 378 548 354 540 330 540 c 4xc0
 306 540 283 548 263 562 c 4
 250 572 234 578 218 578 c 4
 202 578 187 572 174 562 c 4
 171 560 166 559 162 559 c 4
 152 559 144 568 144 578 c 4
 144 584 148 588 152 592 c 4
 172 606 194 615 218 615 c 4xa0
EndSplineSet
EndChar

StartChar: ograve
Encoding: 242 242 114
Width: 550
Flags: W
HStem: 0 75<197.446 352.554> 375 75<197.446 352.554> 655 20G<222 228.5>
VStem: 50 75<147.446 302.554> 425 75<147.446 302.554>
LayerCount: 2
Fore
SplineSet
203 637 m 2
 201 641 200 645 200 649 c 0
 200 658 205 667 213 672 c 0
 217 674 220 675 224 675 c 0
 233 675 242 670 247 662 c 2
 297 576 l 2
 299 572 300 568 300 564 c 0
 300 556 296 547 288 542 c 0
 284 540 279 538 275 538 c 0
 266 538 257 543 253 551 c 2
 203 637 l 2
125 225 m 4
 125 142 192 75 275 75 c 0
 358 75 425 142 425 225 c 0
 425 308 358 375 275 375 c 0
 192 375 125 308 125 225 c 4
50 225 m 0
 50 349 151 450 275 450 c 0
 399 450 500 349 500 225 c 0
 500 101 399 0 275 0 c 0
 151 0 50 101 50 225 c 0
EndSplineSet
EndChar

StartChar: oacute
Encoding: 243 243 115
Width: 550
Flags: W
HStem: 0 75<197.446 352.554> 375 75<197.446 352.554> 655 20G<321.5 328>
VStem: 50 75<147.446 302.554> 425 75<147.446 302.554>
LayerCount: 2
Fore
SplineSet
347 637 m 2
 297 551 l 2
 292 543 284 539 275 539 c 0
 271 539 267 540 263 542 c 0
 255 547 250 555 250 564 c 0
 250 568 251 572 253 576 c 2
 303 662 l 2
 308 670 317 675 326 675 c 0
 330 675 334 674 338 672 c 0
 346 667 350 658 350 649 c 0
 350 645 349 641 347 637 c 2
125 225 m 4
 125 142 192 75 275 75 c 0
 358 75 425 142 425 225 c 0
 425 308 358 375 275 375 c 0
 192 375 125 308 125 225 c 4
50 225 m 0
 50 349 151 450 275 450 c 0
 399 450 500 349 500 225 c 0
 500 101 399 0 275 0 c 0
 151 0 50 101 50 225 c 0
EndSplineSet
EndChar

StartChar: otilde
Encoding: 245 245 116
Width: 550
Flags: W
HStem: 0 75<197.446 352.554> 375 75<197.446 352.554> 540 38<278.915 389.527> 578 37<167.373 266.016>
VStem: 50 75<147.446 302.554> 425 75<147.446 302.554>
LayerCount: 2
Fore
SplineSet
500 225 m 0xcc
 500 101 399 0 275 0 c 0
 151 0 50 101 50 225 c 0
 50 349 151 450 275 450 c 0
 399 450 500 349 500 225 c 0xcc
125 225 m 0
 125 142 192 75 275 75 c 0
 358 75 425 142 425 225 c 0
 425 308 358 375 275 375 c 0
 192 375 125 308 125 225 c 0
218 615 m 0xdc
 242 615 266 606 286 592 c 0
 299 582 314 578 330 578 c 0xec
 346 578 362 582 375 592 c 0
 378 594 382 596 386 596 c 0
 396 596 405 588 405 578 c 0xdc
 405 572 402 566 398 562 c 0
 378 548 354 540 330 540 c 0xec
 306 540 283 548 263 562 c 0
 250 572 234 578 218 578 c 0
 202 578 187 572 174 562 c 0
 171 560 166 559 162 559 c 0
 152 559 144 568 144 578 c 0
 144 584 148 588 152 592 c 0
 172 606 194 615 218 615 c 0xdc
EndSplineSet
EndChar

StartChar: uacute
Encoding: 250 250 117
Width: 550
Flags: W
HStem: 0 75<197.379 351.461> 655 20G<321.5 328>
VStem: 50 75<148.542 303.057> 425 75<148.429 303.402>
LayerCount: 2
Fore
SplineSet
193 370 m 0
 193 358 187 347 178 340 c 0
 155 320 138 294 130 265 c 0
 126 252 125 239 125 225 c 0
 125 207 128 190 134 174 c 0
 145 145 164 120 189 102 c 0
 214 85 244 75 275 75 c 0
 306 75 336 85 361 103 c 0
 387 121 406 146 416 175 c 0
 422 191 425 209 425 226 c 0
 425 239 424 252 420 265 c 0
 412 294 395 320 372 340 c 0
 363 347 357 357 357 370 c 0
 357 390 374 407 395 407 c 0
 404 407 412 404 418 399 c 1
 454 369 480 329 492 285 c 0
 497 265 500 246 500 226 c 0
 500 200 495 174 487 149 c 0
 471 106 442 68 405 41 c 0
 367 15 322 0 275 0 c 0
 229 0 184 15 146 41 c 0
 108 68 79 105 63 149 c 0
 55 173 50 198 50 224 c 0
 50 244 53 264 58 284 c 0
 70 329 95 368 131 398 c 0
 137 404 146 407 155 407 c 0
 176 407 193 390 193 370 c 0
347 637 m 2
 297 551 l 2
 293 543 283 538 275 538 c 0
 271 538 267 540 263 542 c 0
 255 547 250 555 250 564 c 0
 250 568 251 572 253 576 c 2
 303 662 l 2
 308 670 317 675 326 675 c 0
 330 675 334 674 338 672 c 0
 346 667 350 658 350 649 c 0
 350 645 349 641 347 637 c 2
EndSplineSet
EndChar

StartChar: ugrave
Encoding: 249 249 118
Width: 550
Flags: W
HStem: 0 76<195.443 355.509>
LayerCount: 2
Fore
SplineSet
192 370 m 0
 192 358 186 347 178 340 c 0
 154 320 138 294 130 264 c 0
 122 234 124 203 134 174 c 0
 144 145 163 120 189 102 c 0
 215 84 244 76 275 76 c 0
 306 76 337 84 362 102 c 0
 387 120 406 145 416 174 c 0
 426 203 428 235 420 265 c 0
 412 294 395 320 372 340 c 0
 363 347 358 358 358 370 c 0
 358 390 375 407 395 407 c 0
 404 407 412 403 418 398 c 1
 454 368 480 329 492 285 c 0
 504 241 502 194 486 150 c 0
 470 106 442 68 404 42 c 0
 366 16 322 0 276 0 c 0
 230 0 184 15 146 41 c 0
 108 67 80 104 64 148 c 0
 48 192 46 240 58 284 c 0
 70 328 94 368 130 398 c 0
 136 404 145 407 155 407 c 0
 175 407 192 390 192 370 c 0
204 638 m 2
 197 650 200 665 212 672 c 0
 224 679 239 674 246 662 c 2
 296 576 l 2
 303 564 300 549 288 542 c 0
 276 535 261 539 254 551 c 2
 204 638 l 2
EndSplineSet
EndChar

StartChar: divide
Encoding: 247 247 119
Width: 474
Flags: W
HStem: 35 100<195.438 278.562> 186 74<53.597 421.429> 311 100<195.438 278.562>
VStem: 187 100<43.4375 126.562 319.438 402.562>
CounterMasks: 1 e0
LayerCount: 2
Fore
SplineSet
187 361 m 0
 187 389 209 411 237 411 c 0
 265 411 287 389 287 361 c 0
 287 333 265 311 237 311 c 0
 209 311 187 333 187 361 c 0
187 85 m 0
 187 113 209 135 237 135 c 0
 265 135 287 113 287 85 c 0
 287 57 265 35 237 35 c 0
 209 35 187 57 187 85 c 0
50 223 m 1
 50 241 64 260 88 260 c 2
 388 260 l 2
 406 260 425 244 425 224 c 0
 425 223 l 1
 425 221 l 0
 425 202 411 186 388 186 c 2
 88 186 l 2
 70 186 50 201 50 223 c 1
EndSplineSet
EndChar

StartChar: uni00AD
Encoding: 173 173 120
Width: 474
Flags: W
HStem: 200 75<53.9155 421.277>
LayerCount: 2
Fore
SplineSet
88 275 m 2
 388 275 l 2
 408 275 425 258 425 238 c 0
 425 218 408 200 388 200 c 2
 88 200 l 2
 68 200 50 218 50 238 c 0
 50 258 68 275 88 275 c 2
EndSplineSet
EndChar

StartChar: plusminus
Encoding: 177 177 121
Width: 475
Flags: W
HStem: 60 75<53.9155 421.277> 360 75<53.9155 200 275 421.277>
VStem: 200 75<213.916 360 435 581.277>
LayerCount: 2
Fore
SplineSet
88 135 m 6
 388 135 l 6
 408 135 425 118 425 98 c 4
 425 78 408 60 388 60 c 6
 88 60 l 6
 68 60 50 78 50 98 c 4
 50 118 68 135 88 135 c 6
200 248 m 6
 200 360 l 5
 88 360 l 6
 68 360 50 378 50 398 c 4
 50 418 68 435 88 435 c 6
 200 435 l 5
 200 548 l 6
 200 568 218 585 238 585 c 4
 258 585 275 568 275 548 c 6
 275 435 l 5
 388 435 l 6
 408 435 425 418 425 398 c 4
 425 378 408 360 388 360 c 6
 275 360 l 5
 275 248 l 6
 275 228 258 210 238 210 c 4
 218 210 200 228 200 248 c 6
EndSplineSet
EndChar

StartChar: copyright
Encoding: 169 169 122
Width: 775
Flags: W
HStem: 0 75<286.551 488.928> 150 62<318.837 457.364> 462 63<316.875 458.954> 600 75<286.551 488.928>
VStem: 50 75<236.551 438.928> 200 63<266.298 407.541> 650 75<236.551 438.928>
LayerCount: 2
Fore
SplineSet
725 338 m 0
 725 151 574 0 388 0 c 0
 201 0 50 151 50 338 c 0
 50 524 201 675 388 675 c 0
 574 675 725 524 725 338 c 0
125 338 m 0
 125 193 243 75 388 75 c 0
 532 75 650 193 650 338 c 0
 650 482 532 600 388 600 c 0
 243 600 125 482 125 338 c 0
532 217 m 0
 507 188 474 167 437 156 c 0
 421 152 404 150 388 150 c 0
 366 150 344 153 324 161 c 0
 287 174 256 198 234 230 c 0
 212 262 200 299 200 338 c 0
 200 376 212 414 234 445 c 0
 256 477 288 501 324 514 c 0
 344 522 366 525 388 525 c 0
 405 525 421 523 437 518 c 0
 474 508 507 487 532 457 c 1
 536 452 539 445 539 437 c 0
 539 420 525 406 508 406 c 0
 498 406 489 411 483 418 c 0
 467 438 445 451 421 458 c 0
 410 461 400 462 388 462 c 0
 374 462 359 460 345 455 c 0
 321 446 300 431 285 409 c 0
 271 388 263 363 263 338 c 0
 263 336 263 336 263 334 c 0
 263 310 271 286 285 266 c 0
 300 245 321 229 345 220 c 0
 359 215 373 212 387 212 c 0
 398 212 409 214 420 217 c 0
 445 223 467 237 483 257 c 0
 489 264 498 269 508 269 c 0
 525 269 539 255 539 238 c 0
 539 230 536 223 532 217 c 0
EndSplineSet
EndChar

StartChar: registered
Encoding: 174 174 123
Width: 775
Flags: W
HStem: 0 75<286.737 489.139> 275 41<334.731 394> 484 41<334.277 441.723> 600 75<286.737 489.139>
VStem: 50 75<236.737 439.139> 263 41<150.007 307 346.731 453.269> 472 41<346.409 453.723> 650 75<236.737 439.139>
LayerCount: 2
Fore
SplineSet
725 338 m 0
 725 152 574 0 388 0 c 0
 202 0 50 152 50 338 c 0
 50 524 202 675 388 675 c 0
 574 675 725 524 725 338 c 0
125 338 m 0
 125 193 243 75 388 75 c 0
 533 75 650 193 650 338 c 0
 650 483 533 600 388 600 c 0
 243 600 125 483 125 338 c 0
388 275 m 0
 356 275 326 287 304 307 c 1
 304 171 l 2
 304 159 296 150 284 150 c 0
 272 150 263 159 263 171 c 2
 263 400 l 2
 263 469 319 525 388 525 c 0
 457 525 513 469 513 400 c 0
 513 348 482 305 438 286 c 1
 510 183 l 2
 516 173 514 160 504 154 c 0
 494 148 481 149 475 159 c 2
 394 275 l 2
 392 275 390 275 388 275 c 0
388 484 m 0
 342 484 304 446 304 400 c 0
 304 354 342 316 388 316 c 0
 434 316 472 354 472 400 c 0
 472 446 434 484 388 484 c 0
EndSplineSet
EndChar

StartChar: degree
Encoding: 176 176 124
Width: 250
Flags: W
HStem: 524 38<93.4412 156.559> 636 38<93.4412 156.559>
VStem: 50 38<567.441 630.559> 162 38<567.441 630.559>
LayerCount: 2
Fore
SplineSet
200 599 m 4
 200 557 167 524 125 524 c 4
 83 524 50 557 50 599 c 4
 50 641 83 674 125 674 c 4
 167 674 200 641 200 599 c 4
88 599 m 4
 88 579 105 562 125 562 c 4
 145 562 162 579 162 599 c 4
 162 619 145 636 125 636 c 4
 105 636 88 619 88 599 c 4
EndSplineSet
EndChar

StartChar: ecircumflex
Encoding: 234 234 125
Width: 506
Flags: W
HStem: 654 20G<258 268.5>
VStem: 50 75<195.183 303.296>
LayerCount: 2
Fore
SplineSet
260 674 m 4
 262 674 264 674 266 674 c 4
 271 673 276 671 278 666 c 6
 321 560 l 6
 324 552 320 544 312 541 c 4
 304 538 296 542 293 550 c 6
 264 621 l 5
 234 550 l 6
 231 542 222 538 214 541 c 4
 206 544 203 552 206 560 c 6
 250 666 l 6
 252 671 256 673 260 674 c 4
448 80 m 0
 418 44 378 20 334 8 c 0
 290 -4 242 -2 198 14 c 0
 154 30 116 58 90 96 c 0
 64 134 50 180 50 226 c 0
 50 272 65 316 91 354 c 0
 117 392 155 420 199 436 c 0
 243 452 290 454 334 442 c 0
 378 430 418 404 448 368 c 1
 453 362 456 354 456 345 c 0
 456 333 450 321 440 314 c 2
 162 126 l 1
 178 107 200 92 224 84 c 0
 253 74 284 72 314 80 c 0
 344 88 370 104 390 128 c 0
 397 136 407 142 419 142 c 0
 439 142 456 125 456 105 c 0
 456 95 454 86 448 80 c 0
125 225 m 0
 125 215 126 204 128 194 c 1
 359 350 l 1
 345 359 330 366 314 370 c 0
 284 378 253 376 224 366 c 0
 195 356 170 337 152 312 c 0
 134 287 125 256 125 225 c 0
EndSplineSet
EndChar

StartChar: ydieresis
Encoding: 255 255 126
Width: 550
Flags: W
HStem: 550 75<123.916 191.277 243.916 311.277 363.916 431.277>
VStem: 120 75<553.916 621.277> 238 74<-220.664 8.8093 555.249 620.004> 360 75<553.916 621.277>
LayerCount: 2
Fore
SplineSet
315 588 m 4
 315 568 298 550 278 550 c 4
 258 550 240 568 240 588 c 4
 240 608 258 625 278 625 c 4
 298 625 315 608 315 588 c 4
435 588 m 4
 435 568 418 550 398 550 c 4
 378 550 360 568 360 588 c 4
 360 608 378 625 398 625 c 4
 418 625 435 608 435 588 c 4
195 588 m 4
 195 568 178 550 158 550 c 4
 138 550 120 568 120 588 c 4
 120 608 138 625 158 625 c 4
 178 625 195 608 195 588 c 4
192 370 m 0
 192 358 187 347 178 340 c 0
 155 320 138 294 130 265 c 0
 122 235 124 203 134 174 c 0
 144 145 163 120 188 102 c 0
 213 84 244 76 275 76 c 0
 306 76 335 84 361 102 c 0
 387 120 406 145 416 174 c 0
 426 203 428 234 420 264 c 0
 412 294 396 320 372 340 c 0
 364 347 358 358 358 370 c 0
 358 390 375 407 395 407 c 0
 405 407 414 404 420 398 c 0
 456 368 480 328 492 284 c 0
 504 240 502 192 486 148 c 0
 470 104 442 67 404 41 c 0
 376 22 344 10 312 4 c 1
 312 -187 l 2
 312 -207 295 -224 275 -224 c 0
 255 -224 238 -207 238 -187 c 2
 238 4 l 1
 205 10 174 22 146 42 c 0
 108 68 80 106 64 150 c 0
 48 194 46 241 58 285 c 0
 70 329 96 368 132 398 c 1
 138 403 146 407 155 407 c 0
 175 407 192 390 192 370 c 0
EndSplineSet
EndChar

StartChar: Agrave
Encoding: 192 192 127
Width: 550
Flags: W
HStem: 0 21G<77.5 98 452 472.5> 225 75<197.58 352.42> 600 75<197.446 352.554>
VStem: 50 75<3.74496 282 372.15 527.257> 425 75<3.74496 282 372.15 527.257>
LayerCount: 2
Fore
SplineSet
203 824 m 6
 196 836 201 851 213 858 c 4
 225 865 240 860 247 848 c 6
 297 762 l 6
 304 750 299 735 287 728 c 4
 275 721 260 725 253 737 c 6
 203 824 l 6
275 225 m 0
 217 225 165 247 125 282 c 1
 125 38 l 2
 125 17 108 0 88 0 c 0
 67 0 50 17 50 38 c 2
 50 450 l 2
 50 574 151 675 275 675 c 0
 399 675 500 574 500 450 c 2
 500 38 l 2
 500 17 483 0 462 0 c 0
 442 0 425 17 425 38 c 2
 425 282 l 1
 385 247 333 225 275 225 c 0
275 300 m 0
 358 300 425 367 425 450 c 0
 425 533 358 600 275 600 c 0
 192 600 125 533 125 450 c 0
 125 367 192 300 275 300 c 0
EndSplineSet
EndChar

StartChar: Aacute
Encoding: 193 193 128
Width: 550
Flags: W
HStem: 0 21G<77.5 98 452 472.5> 225 75<197.58 352.42> 600 75<197.446 352.554>
VStem: 50 75<3.74496 282 372.15 527.257> 425 75<3.74496 282 372.15 527.257>
LayerCount: 2
Fore
SplineSet
346 824 m 6
 296 737 l 6
 289 725 274 721 262 728 c 4
 250 735 247 750 254 762 c 6
 304 848 l 6
 311 860 326 865 338 858 c 4
 350 851 353 836 346 824 c 6
275 225 m 0
 217 225 165 247 125 282 c 1
 125 38 l 2
 125 17 108 0 88 0 c 0
 67 0 50 17 50 38 c 2
 50 450 l 2
 50 574 151 675 275 675 c 0
 399 675 500 574 500 450 c 2
 500 38 l 2
 500 17 483 0 462 0 c 0
 442 0 425 17 425 38 c 2
 425 282 l 1
 385 247 333 225 275 225 c 0
275 300 m 0
 358 300 425 367 425 450 c 0
 425 533 358 600 275 600 c 0
 192 600 125 533 125 450 c 0
 125 367 192 300 275 300 c 0
EndSplineSet
EndChar

StartChar: Acircumflex
Encoding: 194 194 129
Width: 550
Flags: W
HStem: 0 21G<77.5 98 452 472.5> 225 75<197.58 352.42> 600 75<197.446 352.554>
VStem: 50 75<3.74496 282 372.15 527.257> 425 75<3.74496 282 372.15 527.257>
LayerCount: 2
Fore
SplineSet
270 860 m 4
 272 860 274 860 276 860 c 4
 281 859 286 857 288 852 c 6
 331 746 l 6
 334 738 330 730 322 727 c 4
 314 724 306 728 303 736 c 6
 274 807 l 5
 244 736 l 6
 241 728 232 724 224 727 c 4
 216 730 213 738 216 746 c 6
 260 852 l 6
 262 857 266 859 270 860 c 4
275 225 m 0
 217 225 165 247 125 282 c 1
 125 38 l 2
 125 17 108 0 88 0 c 0
 67 0 50 17 50 38 c 2
 50 450 l 2
 50 574 151 675 275 675 c 0
 399 675 500 574 500 450 c 2
 500 38 l 2
 500 17 483 0 462 0 c 0
 442 0 425 17 425 38 c 2
 425 282 l 1
 385 247 333 225 275 225 c 0
275 300 m 0
 358 300 425 367 425 450 c 0
 425 533 358 600 275 600 c 0
 192 600 125 533 125 450 c 0
 125 367 192 300 275 300 c 0
EndSplineSet
EndChar

StartChar: Atilde
Encoding: 195 195 130
Width: 550
Flags: W
HStem: 0 21G<77.5 98 452 472.5> 225 75<197.58 352.42> 600 75<197.446 352.554> 724 38<278.915 389.527> 762 37<167.373 266.016>
VStem: 50 75<3.74496 282 372.15 527.257> 425 75<3.74496 282 372.15 527.257>
LayerCount: 2
Fore
SplineSet
218 799 m 4xee
 242 799 266 790 286 776 c 4
 299 766 314 762 330 762 c 4xf6
 346 762 362 766 375 776 c 4
 378 778 382 780 386 780 c 4
 396 780 405 772 405 762 c 4xee
 405 756 402 750 398 746 c 4
 378 732 354 724 330 724 c 4xf6
 306 724 283 732 263 746 c 4
 250 756 234 762 218 762 c 4
 202 762 187 756 174 746 c 4
 171 744 166 743 162 743 c 4
 152 743 144 752 144 762 c 4
 144 768 148 772 152 776 c 4
 172 790 194 799 218 799 c 4xee
275 225 m 0
 217 225 165 247 125 282 c 1
 125 38 l 2
 125 17 108 0 88 0 c 0
 67 0 50 17 50 38 c 2
 50 450 l 2
 50 574 151 675 275 675 c 0
 399 675 500 574 500 450 c 2
 500 38 l 2
 500 17 483 0 462 0 c 0
 442 0 425 17 425 38 c 2
 425 282 l 1
 385 247 333 225 275 225 c 0
275 300 m 0
 358 300 425 367 425 450 c 0
 425 533 358 600 275 600 c 0
 192 600 125 533 125 450 c 0
 125 367 192 300 275 300 c 0
EndSplineSet
EndChar

StartChar: Adieresis
Encoding: 196 196 131
Width: 550
Flags: W
HStem: 0 21G<77.5 98 452 472.5> 225 75<197.58 352.42> 600 75<197.446 352.554> 725 75<110.916 178.277 240.916 308.277 370.916 438.277>
VStem: 50 75<3.74496 282 372.15 527.257> 107 75<728.916 796.277> 237 75<728.916 796.277> 367 75<728.916 796.277> 425 75<3.74496 282 372.15 527.257>
LayerCount: 2
Fore
SplineSet
312 763 m 4xf2
 312 743 295 725 275 725 c 4
 255 725 237 743 237 763 c 4
 237 783 255 800 275 800 c 4
 295 800 312 783 312 763 c 4xf2
442 763 m 4xf3
 442 743 425 725 405 725 c 4
 385 725 367 743 367 763 c 4
 367 783 385 800 405 800 c 4
 425 800 442 783 442 763 c 4xf3
182 763 m 4xf6
 182 743 165 725 145 725 c 4
 125 725 107 743 107 763 c 4
 107 783 125 800 145 800 c 4
 165 800 182 783 182 763 c 4xf6
275 225 m 0
 217 225 165 247 125 282 c 1
 125 38 l 2
 125 17 108 0 88 0 c 0
 67 0 50 17 50 38 c 2
 50 450 l 2
 50 574 151 675 275 675 c 0
 399 675 500 574 500 450 c 2
 500 38 l 2
 500 17 483 0 462 0 c 0
 442 0 425 17 425 38 c 2
 425 282 l 1xfa80
 385 247 333 225 275 225 c 0
275 300 m 0
 358 300 425 367 425 450 c 0
 425 533 358 600 275 600 c 0
 192 600 125 533 125 450 c 0
 125 367 192 300 275 300 c 0
EndSplineSet
EndChar

StartChar: Egrave
Encoding: 200 200 132
Width: 534
Flags: W
HStem: 0 75<199.164 352.338> 372 75<300.094 340.204>
LayerCount: 2
Fore
SplineSet
203 824 m 6
 196 836 201 851 213 858 c 4
 225 865 240 860 247 848 c 6
 297 762 l 6
 304 750 299 735 287 728 c 4
 275 721 260 725 253 737 c 6
 203 824 l 6
424 601 m 2
 424 600 l 2
 428 594 432 586 432 578 c 0
 432 558 414 541 394 541 c 0
 382 541 371 546 364 556 c 0
 346 580 319 595 290 599 c 0
 260 603 231 595 207 577 c 0
 183 559 168 533 164 503 c 0
 160 477 165 450 179 428 c 1
 183 430 186 432 190 434 c 0
 228 450 271 454 312 447 c 0
 330 445 344 429 344 410 c 0
 344 390 327 372 307 372 c 0
 305 372 302 373 300 373 c 0
 272 377 244 374 218 364 c 0
 192 354 170 335 154 313 c 0
 138 291 128 264 126 236 c 0
 124 208 129 180 142 155 c 0
 155 130 176 110 200 96 c 0
 224 82 252 74 280 75 c 0
 308 76 334 84 358 100 c 0
 382 116 400 137 412 163 c 0
 418 177 430 186 446 186 c 0
 466 186 484 168 484 148 c 0
 484 142 482 137 480 132 c 0
 462 94 435 61 400 38 c 0
 365 14 324 2 282 0 c 0
 240 -2 198 9 162 30 c 0
 126 51 96 83 76 120 c 0
 56 157 47 199 50 241 c 0
 53 283 69 323 93 357 c 0
 101 367 109 377 118 386 c 1
 94 424 83 469 89 513 c 0
 96 563 122 607 162 637 c 0
 202 667 250 680 300 673 c 0
 349 666 394 641 424 602 c 0
 424 601 l 2
EndSplineSet
EndChar

StartChar: Eacute
Encoding: 201 201 133
Width: 534
Flags: W
HStem: 0 75<199.164 352.338> 372 75<300.094 340.204>
LayerCount: 2
Fore
SplineSet
346 824 m 6
 296 737 l 6
 289 725 274 721 262 728 c 4
 250 735 247 750 254 762 c 6
 304 848 l 6
 311 860 326 865 338 858 c 4
 350 851 353 836 346 824 c 6
424 601 m 2
 424 600 l 2
 428 594 432 586 432 578 c 0
 432 558 414 541 394 541 c 0
 382 541 371 546 364 556 c 0
 346 580 319 595 290 599 c 0
 260 603 231 595 207 577 c 0
 183 559 168 533 164 503 c 0
 160 477 165 450 179 428 c 1
 183 430 186 432 190 434 c 0
 228 450 271 454 312 447 c 0
 330 445 344 429 344 410 c 0
 344 390 327 372 307 372 c 0
 305 372 302 373 300 373 c 0
 272 377 244 374 218 364 c 0
 192 354 170 335 154 313 c 0
 138 291 128 264 126 236 c 0
 124 208 129 180 142 155 c 0
 155 130 176 110 200 96 c 0
 224 82 252 74 280 75 c 0
 308 76 334 84 358 100 c 0
 382 116 400 137 412 163 c 0
 418 177 430 186 446 186 c 0
 466 186 484 168 484 148 c 0
 484 142 482 137 480 132 c 0
 462 94 435 61 400 38 c 0
 365 14 324 2 282 0 c 0
 240 -2 198 9 162 30 c 0
 126 51 96 83 76 120 c 0
 56 157 47 199 50 241 c 0
 53 283 69 323 93 357 c 0
 101 367 109 377 118 386 c 1
 94 424 83 469 89 513 c 0
 96 563 122 607 162 637 c 0
 202 667 250 680 300 673 c 0
 349 666 394 641 424 602 c 0
 424 601 l 2
EndSplineSet
EndChar

StartChar: Ecircumflex
Encoding: 202 202 134
Width: 534
Flags: W
HStem: 0 75<199.164 352.338> 372 75<300.094 340.204>
LayerCount: 2
Fore
SplineSet
270 860 m 4
 272 860 274 860 276 860 c 4
 281 859 286 857 288 852 c 6
 331 746 l 6
 334 738 330 730 322 727 c 4
 314 724 306 728 303 736 c 6
 274 807 l 5
 244 736 l 6
 241 728 232 724 224 727 c 4
 216 730 213 738 216 746 c 6
 260 852 l 6
 262 857 266 859 270 860 c 4
424 601 m 2
 424 600 l 2
 428 594 432 586 432 578 c 0
 432 558 414 541 394 541 c 0
 382 541 371 546 364 556 c 0
 346 580 319 595 290 599 c 0
 260 603 231 595 207 577 c 0
 183 559 168 533 164 503 c 0
 160 477 165 450 179 428 c 1
 183 430 186 432 190 434 c 0
 228 450 271 454 312 447 c 0
 330 445 344 429 344 410 c 0
 344 390 327 372 307 372 c 0
 305 372 302 373 300 373 c 0
 272 377 244 374 218 364 c 0
 192 354 170 335 154 313 c 0
 138 291 128 264 126 236 c 0
 124 208 129 180 142 155 c 0
 155 130 176 110 200 96 c 0
 224 82 252 74 280 75 c 0
 308 76 334 84 358 100 c 0
 382 116 400 137 412 163 c 0
 418 177 430 186 446 186 c 0
 466 186 484 168 484 148 c 0
 484 142 482 137 480 132 c 0
 462 94 435 61 400 38 c 0
 365 14 324 2 282 0 c 0
 240 -2 198 9 162 30 c 0
 126 51 96 83 76 120 c 0
 56 157 47 199 50 241 c 0
 53 283 69 323 93 357 c 0
 101 367 109 377 118 386 c 1
 94 424 83 469 89 513 c 0
 96 563 122 607 162 637 c 0
 202 667 250 680 300 673 c 0
 349 666 394 641 424 602 c 0
 424 601 l 2
EndSplineSet
EndChar

StartChar: Edieresis
Encoding: 203 203 135
Width: 534
Flags: W
HStem: 0 75<199.164 352.338> 372 75<300.094 340.204> 725 75<110.916 178.277 240.916 308.277 370.916 438.277>
VStem: 107 75<728.916 796.277> 237 75<728.916 796.277> 367 75<728.916 796.277>
CounterMasks: 1 1c
LayerCount: 2
Fore
SplineSet
312 763 m 4
 312 743 295 725 275 725 c 4
 255 725 237 743 237 763 c 4
 237 783 255 800 275 800 c 4
 295 800 312 783 312 763 c 4
442 763 m 4
 442 743 425 725 405 725 c 4
 385 725 367 743 367 763 c 4
 367 783 385 800 405 800 c 4
 425 800 442 783 442 763 c 4
182 763 m 4
 182 743 165 725 145 725 c 4
 125 725 107 743 107 763 c 4
 107 783 125 800 145 800 c 4
 165 800 182 783 182 763 c 4
424 601 m 2
 424 600 l 2
 428 594 432 586 432 578 c 0
 432 558 414 541 394 541 c 0
 382 541 371 546 364 556 c 0
 346 580 319 595 290 599 c 0
 260 603 231 595 207 577 c 0
 183 559 168 533 164 503 c 0
 160 477 165 450 179 428 c 1
 183 430 186 432 190 434 c 0
 228 450 271 454 312 447 c 0
 330 445 344 429 344 410 c 0
 344 390 327 372 307 372 c 0
 305 372 302 373 300 373 c 0
 272 377 244 374 218 364 c 0
 192 354 170 335 154 313 c 0
 138 291 128 264 126 236 c 0
 124 208 129 180 142 155 c 0
 155 130 176 110 200 96 c 0
 224 82 252 74 280 75 c 0
 308 76 334 84 358 100 c 0
 382 116 400 137 412 163 c 0
 418 177 430 186 446 186 c 0
 466 186 484 168 484 148 c 0
 484 142 482 137 480 132 c 0
 462 94 435 61 400 38 c 0
 365 14 324 2 282 0 c 0
 240 -2 198 9 162 30 c 0
 126 51 96 83 76 120 c 0
 56 157 47 199 50 241 c 0
 53 283 69 323 93 357 c 0
 101 367 109 377 118 386 c 1
 94 424 83 469 89 513 c 0
 96 563 122 607 162 637 c 0
 202 667 250 680 300 673 c 0
 349 666 394 641 424 602 c 0
 424 601 l 2
EndSplineSet
EndChar

StartChar: ucircumflex
Encoding: 251 251 136
Width: 550
Flags: W
HStem: 0 76<195.443 355.509> 654 20G<258 268.5>
LayerCount: 2
Fore
SplineSet
260 674 m 4
 262 674 264 674 266 674 c 4
 271 673 276 671 278 666 c 6
 321 560 l 6
 324 552 320 544 312 541 c 4
 304 538 296 542 293 550 c 6
 264 621 l 5
 234 550 l 6
 231 542 222 538 214 541 c 4
 206 544 203 552 206 560 c 6
 250 666 l 6
 252 671 256 673 260 674 c 4
192 370 m 0
 192 358 186 347 178 340 c 0
 154 320 138 294 130 264 c 0
 122 234 124 203 134 174 c 0
 144 145 163 120 189 102 c 0
 215 84 244 76 275 76 c 0
 306 76 337 84 362 102 c 0
 387 120 406 145 416 174 c 0
 426 203 428 235 420 265 c 0
 412 294 395 320 372 340 c 0
 363 347 358 358 358 370 c 0
 358 390 375 407 395 407 c 0
 404 407 412 403 418 398 c 1
 454 368 480 329 492 285 c 0
 504 241 502 194 486 150 c 0
 470 106 442 68 404 42 c 0
 366 16 322 0 276 0 c 0
 230 0 184 15 146 41 c 0
 108 67 80 104 64 148 c 0
 48 192 46 240 58 284 c 0
 70 328 94 368 130 398 c 0
 136 404 145 407 155 407 c 0
 175 407 192 390 192 370 c 0
EndSplineSet
EndChar

StartChar: agrave
Encoding: 224 224 137
Width: 550
Flags: W
HStem: 0 75<197.446 352.42> 375 75<197.446 352.554>
VStem: 50 75<147.446 302.554> 425 75<3.91553 58 147.15 302.257>
LayerCount: 2
Fore
SplineSet
208 638 m 6
 201 650 206 665 218 672 c 4
 230 679 245 674 252 662 c 6
 302 576 l 6
 309 564 304 549 292 542 c 4
 280 535 265 539 258 551 c 6
 208 638 l 6
425 58 m 1
 385 22 333 0 275 0 c 0
 151 0 50 101 50 225 c 0
 50 349 151 450 275 450 c 0
 399 450 500 349 500 225 c 2
 500 38 l 2
 500 18 482 0 462 0 c 0
 442 0 425 18 425 38 c 2
 425 58 l 1
425 225 m 0
 425 308 358 375 275 375 c 0
 192 375 125 308 125 225 c 0
 125 142 192 75 275 75 c 0
 358 75 425 142 425 225 c 0
EndSplineSet
EndChar

StartChar: aacute
Encoding: 225 225 138
Width: 550
Flags: W
HStem: 0 75<197.446 352.42> 375 75<197.446 352.554>
VStem: 50 75<147.446 302.554> 425 75<3.91553 58 147.15 302.257>
LayerCount: 2
Fore
SplineSet
316 638 m 6
 266 551 l 6
 259 539 244 535 232 542 c 4
 220 549 217 564 224 576 c 6
 274 662 l 6
 281 674 296 679 308 672 c 4
 320 665 323 650 316 638 c 6
425 58 m 1
 385 22 333 0 275 0 c 0
 151 0 50 101 50 225 c 0
 50 349 151 450 275 450 c 0
 399 450 500 349 500 225 c 2
 500 38 l 2
 500 18 482 0 462 0 c 0
 442 0 425 18 425 38 c 2
 425 58 l 1
425 225 m 0
 425 308 358 375 275 375 c 0
 192 375 125 308 125 225 c 0
 125 142 192 75 275 75 c 0
 358 75 425 142 425 225 c 0
EndSplineSet
EndChar

StartChar: acircumflex
Encoding: 226 226 139
Width: 550
Flags: W
HStem: 0 75<197.446 352.42> 375 75<197.446 352.554> 654 20G<258 268.5>
VStem: 50 75<147.446 302.554> 425 75<3.91553 58 147.15 302.257>
LayerCount: 2
Fore
SplineSet
260 674 m 4
 262 674 264 674 266 674 c 4
 271 673 276 671 278 666 c 6
 321 560 l 6
 324 552 320 544 312 541 c 4
 304 538 296 542 293 550 c 6
 264 621 l 5
 234 550 l 6
 231 542 222 538 214 541 c 4
 206 544 203 552 206 560 c 6
 250 666 l 6
 252 671 256 673 260 674 c 4
425 58 m 1
 385 22 333 0 275 0 c 0
 151 0 50 101 50 225 c 0
 50 349 151 450 275 450 c 0
 399 450 500 349 500 225 c 2
 500 38 l 2
 500 18 482 0 462 0 c 0
 442 0 425 18 425 38 c 2
 425 58 l 1
425 225 m 0
 425 308 358 375 275 375 c 0
 192 375 125 308 125 225 c 0
 125 142 192 75 275 75 c 0
 358 75 425 142 425 225 c 0
EndSplineSet
EndChar

StartChar: atilde
Encoding: 227 227 140
Width: 550
Flags: W
HStem: 0 75<197.446 352.42> 375 75<197.446 352.554> 540 38<278.915 389.527> 578 37<167.373 266.016>
VStem: 50 75<147.446 302.554> 425 75<3.91553 58 147.15 302.257>
LayerCount: 2
Fore
SplineSet
218 615 m 4xdc
 242 615 266 606 286 592 c 4
 299 582 314 578 330 578 c 4xec
 346 578 362 582 375 592 c 4
 378 594 382 596 386 596 c 4
 396 596 405 588 405 578 c 4xdc
 405 572 402 566 398 562 c 4
 378 548 354 540 330 540 c 4xec
 306 540 283 548 263 562 c 4
 250 572 234 578 218 578 c 4
 202 578 187 572 174 562 c 4
 171 560 166 559 162 559 c 4
 152 559 144 568 144 578 c 4
 144 584 148 588 152 592 c 4
 172 606 194 615 218 615 c 4xdc
425 58 m 1
 385 22 333 0 275 0 c 0
 151 0 50 101 50 225 c 0
 50 349 151 450 275 450 c 0
 399 450 500 349 500 225 c 2
 500 38 l 2
 500 18 482 0 462 0 c 0
 442 0 425 18 425 38 c 2
 425 58 l 1
425 225 m 0
 425 308 358 375 275 375 c 0
 192 375 125 308 125 225 c 0
 125 142 192 75 275 75 c 0
 358 75 425 142 425 225 c 0
EndSplineSet
EndChar

StartChar: yacute
Encoding: 253 253 141
Width: 550
Flags: W
VStem: 238 74<-220.664 8.8093>
LayerCount: 2
Fore
SplineSet
316 638 m 6
 266 551 l 6
 259 539 244 535 232 542 c 4
 220 549 217 564 224 576 c 6
 274 662 l 6
 281 674 296 679 308 672 c 4
 320 665 323 650 316 638 c 6
192 370 m 0
 192 358 187 347 178 340 c 0
 155 320 138 294 130 265 c 0
 122 235 124 203 134 174 c 0
 144 145 163 120 188 102 c 0
 213 84 244 76 275 76 c 0
 306 76 335 84 361 102 c 0
 387 120 406 145 416 174 c 0
 426 203 428 234 420 264 c 0
 412 294 396 320 372 340 c 0
 364 347 358 358 358 370 c 0
 358 390 375 407 395 407 c 0
 405 407 414 404 420 398 c 0
 456 368 480 328 492 284 c 0
 504 240 502 192 486 148 c 0
 470 104 442 67 404 41 c 0
 376 22 344 10 312 4 c 1
 312 -187 l 2
 312 -207 295 -224 275 -224 c 0
 255 -224 238 -207 238 -187 c 2
 238 4 l 1
 205 10 174 22 146 42 c 0
 108 68 80 106 64 150 c 0
 48 194 46 241 58 285 c 0
 70 329 96 368 132 398 c 1
 138 403 146 407 155 407 c 0
 175 407 192 390 192 370 c 0
EndSplineSet
EndChar

StartChar: ocircumflex
Encoding: 244 244 142
Width: 550
Flags: W
HStem: 0 75<197.446 352.554> 375 75<197.446 352.554> 654 20G<258 268.5>
VStem: 50 75<147.446 302.554> 425 75<147.446 302.554>
LayerCount: 2
Fore
SplineSet
260 674 m 4
 262 674 264 674 266 674 c 4
 271 673 276 671 278 666 c 6
 321 560 l 6
 324 552 320 544 312 541 c 4
 304 538 296 542 293 550 c 6
 264 621 l 5
 234 550 l 6
 231 542 222 538 214 541 c 4
 206 544 203 552 206 560 c 6
 250 666 l 6
 252 671 256 673 260 674 c 4
500 225 m 0
 500 101 399 0 275 0 c 0
 151 0 50 101 50 225 c 0
 50 349 151 450 275 450 c 0
 399 450 500 349 500 225 c 0
125 225 m 0
 125 142 192 75 275 75 c 0
 358 75 425 142 425 225 c 0
 425 308 358 375 275 375 c 0
 192 375 125 308 125 225 c 0
EndSplineSet
EndChar

StartChar: Ograve
Encoding: 210 210 143
Width: 550
Flags: W
HStem: 0 75<197.837 352.163> 600 75<198.234 351.766>
VStem: 50 75<147.483 528.178> 425 75<147.483 528.178>
LayerCount: 2
Fore
SplineSet
203 824 m 6
 196 836 201 851 213 858 c 4
 225 865 240 860 247 848 c 6
 297 762 l 6
 304 750 299 735 287 728 c 4
 275 721 260 725 253 737 c 6
 203 824 l 6
500 451 m 0
 500 450 l 2
 500 225 l 1
 500 224 l 2
 500 199 495 174 487 150 c 0
 485 146 485 143 483 139 c 0
 471 111 455 87 434 66 c 0
 413 45 389 29 361 17 c 0
 333 5 305 0 275 0 c 0
 245 0 217 5 189 17 c 0
 161 29 137 45 116 66 c 0
 95 87 79 111 67 139 c 0
 65 143 65 146 63 150 c 0
 55 174 50 199 50 224 c 2
 50 225 l 1
 50 450 l 1
 50 451 l 1
 50 476 55 501 63 525 c 0
 65 529 65 532 67 536 c 0
 79 564 95 588 116 609 c 0
 137 630 161 646 189 658 c 0
 217 670 245 675 275 675 c 0
 305 675 333 670 361 658 c 0
 389 646 413 630 434 609 c 0
 455 588 471 564 483 536 c 0
 485 532 485 529 487 525 c 0
 495 501 500 476 500 451 c 0
136 508 m 0
 128 490 125 471 125 451 c 2
 125 224 l 2
 125 204 128 186 136 168 c 0
 144 150 155 133 169 119 c 0
 183 105 200 94 218 86 c 0
 236 78 255 75 275 75 c 0
 295 75 314 78 332 86 c 0
 350 94 367 105 381 119 c 0
 395 133 406 150 414 168 c 0
 422 186 425 204 425 224 c 2
 425 451 l 2
 425 471 422 490 414 508 c 0
 406 526 395 542 381 556 c 0
 367 570 350 580 332 588 c 0
 314 596 295 600 275 600 c 0
 255 600 236 596 218 588 c 0
 200 580 183 570 169 556 c 0
 155 542 144 526 136 508 c 0
EndSplineSet
EndChar

StartChar: Oacute
Encoding: 211 211 144
Width: 550
Flags: W
HStem: 0 75<197.837 352.163> 600 75<198.234 351.766>
VStem: 50 75<147.483 528.178> 425 75<147.483 528.178>
LayerCount: 2
Fore
SplineSet
346 824 m 6
 296 737 l 6
 289 725 274 721 262 728 c 4
 250 735 247 750 254 762 c 6
 304 848 l 6
 311 860 326 865 338 858 c 4
 350 851 353 836 346 824 c 6
500 451 m 0
 500 450 l 2
 500 225 l 1
 500 224 l 2
 500 199 495 174 487 150 c 0
 485 146 485 143 483 139 c 0
 471 111 455 87 434 66 c 0
 413 45 389 29 361 17 c 0
 333 5 305 0 275 0 c 0
 245 0 217 5 189 17 c 0
 161 29 137 45 116 66 c 0
 95 87 79 111 67 139 c 0
 65 143 65 146 63 150 c 0
 55 174 50 199 50 224 c 2
 50 225 l 1
 50 450 l 1
 50 451 l 1
 50 476 55 501 63 525 c 0
 65 529 65 532 67 536 c 0
 79 564 95 588 116 609 c 0
 137 630 161 646 189 658 c 0
 217 670 245 675 275 675 c 0
 305 675 333 670 361 658 c 0
 389 646 413 630 434 609 c 0
 455 588 471 564 483 536 c 0
 485 532 485 529 487 525 c 0
 495 501 500 476 500 451 c 0
136 508 m 0
 128 490 125 471 125 451 c 2
 125 224 l 2
 125 204 128 186 136 168 c 0
 144 150 155 133 169 119 c 0
 183 105 200 94 218 86 c 0
 236 78 255 75 275 75 c 0
 295 75 314 78 332 86 c 0
 350 94 367 105 381 119 c 0
 395 133 406 150 414 168 c 0
 422 186 425 204 425 224 c 2
 425 451 l 2
 425 471 422 490 414 508 c 0
 406 526 395 542 381 556 c 0
 367 570 350 580 332 588 c 0
 314 596 295 600 275 600 c 0
 255 600 236 596 218 588 c 0
 200 580 183 570 169 556 c 0
 155 542 144 526 136 508 c 0
EndSplineSet
EndChar

StartChar: Ocircumflex
Encoding: 212 212 145
Width: 550
Flags: W
HStem: 0 75<197.837 352.163> 600 75<198.234 351.766>
VStem: 50 75<147.483 528.178> 425 75<147.483 528.178>
LayerCount: 2
Fore
SplineSet
270 860 m 4
 272 860 274 860 276 860 c 4
 281 859 286 857 288 852 c 6
 331 746 l 6
 334 738 330 730 322 727 c 4
 314 724 306 728 303 736 c 6
 274 807 l 5
 244 736 l 6
 241 728 232 724 224 727 c 4
 216 730 213 738 216 746 c 6
 260 852 l 6
 262 857 266 859 270 860 c 4
500 451 m 0
 500 450 l 2
 500 225 l 1
 500 224 l 2
 500 199 495 174 487 150 c 0
 485 146 485 143 483 139 c 0
 471 111 455 87 434 66 c 0
 413 45 389 29 361 17 c 0
 333 5 305 0 275 0 c 0
 245 0 217 5 189 17 c 0
 161 29 137 45 116 66 c 0
 95 87 79 111 67 139 c 0
 65 143 65 146 63 150 c 0
 55 174 50 199 50 224 c 2
 50 225 l 1
 50 450 l 1
 50 451 l 1
 50 476 55 501 63 525 c 0
 65 529 65 532 67 536 c 0
 79 564 95 588 116 609 c 0
 137 630 161 646 189 658 c 0
 217 670 245 675 275 675 c 0
 305 675 333 670 361 658 c 0
 389 646 413 630 434 609 c 0
 455 588 471 564 483 536 c 0
 485 532 485 529 487 525 c 0
 495 501 500 476 500 451 c 0
136 508 m 0
 128 490 125 471 125 451 c 2
 125 224 l 2
 125 204 128 186 136 168 c 0
 144 150 155 133 169 119 c 0
 183 105 200 94 218 86 c 0
 236 78 255 75 275 75 c 0
 295 75 314 78 332 86 c 0
 350 94 367 105 381 119 c 0
 395 133 406 150 414 168 c 0
 422 186 425 204 425 224 c 2
 425 451 l 2
 425 471 422 490 414 508 c 0
 406 526 395 542 381 556 c 0
 367 570 350 580 332 588 c 0
 314 596 295 600 275 600 c 0
 255 600 236 596 218 588 c 0
 200 580 183 570 169 556 c 0
 155 542 144 526 136 508 c 0
EndSplineSet
EndChar

StartChar: Otilde
Encoding: 213 213 146
Width: 550
Flags: W
HStem: 0 75<197.837 352.163> 600 75<198.234 351.766> 724 38<278.915 389.527> 762 37<167.373 266.016>
VStem: 50 75<147.483 528.178> 425 75<147.483 528.178>
LayerCount: 2
Fore
SplineSet
218 799 m 4xdc
 242 799 266 790 286 776 c 4
 299 766 314 762 330 762 c 4xec
 346 762 362 766 375 776 c 4
 378 778 382 780 386 780 c 4
 396 780 405 772 405 762 c 4xdc
 405 756 402 750 398 746 c 4
 378 732 354 724 330 724 c 4xec
 306 724 283 732 263 746 c 4
 250 756 234 762 218 762 c 4
 202 762 187 756 174 746 c 4
 171 744 166 743 162 743 c 4
 152 743 144 752 144 762 c 4
 144 768 148 772 152 776 c 4
 172 790 194 799 218 799 c 4xdc
500 451 m 0
 500 450 l 2
 500 225 l 1
 500 224 l 2
 500 199 495 174 487 150 c 0
 485 146 485 143 483 139 c 0
 471 111 455 87 434 66 c 0
 413 45 389 29 361 17 c 0
 333 5 305 0 275 0 c 0
 245 0 217 5 189 17 c 0
 161 29 137 45 116 66 c 0
 95 87 79 111 67 139 c 0
 65 143 65 146 63 150 c 0
 55 174 50 199 50 224 c 2
 50 225 l 1
 50 450 l 1
 50 451 l 1
 50 476 55 501 63 525 c 0
 65 529 65 532 67 536 c 0
 79 564 95 588 116 609 c 0
 137 630 161 646 189 658 c 0
 217 670 245 675 275 675 c 0
 305 675 333 670 361 658 c 0
 389 646 413 630 434 609 c 0
 455 588 471 564 483 536 c 0
 485 532 485 529 487 525 c 0
 495 501 500 476 500 451 c 0
136 508 m 0
 128 490 125 471 125 451 c 2
 125 224 l 2
 125 204 128 186 136 168 c 0
 144 150 155 133 169 119 c 0
 183 105 200 94 218 86 c 0
 236 78 255 75 275 75 c 0
 295 75 314 78 332 86 c 0
 350 94 367 105 381 119 c 0
 395 133 406 150 414 168 c 0
 422 186 425 204 425 224 c 2
 425 451 l 2
 425 471 422 490 414 508 c 0
 406 526 395 542 381 556 c 0
 367 570 350 580 332 588 c 0
 314 596 295 600 275 600 c 0
 255 600 236 596 218 588 c 0
 200 580 183 570 169 556 c 0
 155 542 144 526 136 508 c 0
EndSplineSet
EndChar

StartChar: Odieresis
Encoding: 214 214 147
Width: 550
Flags: W
HStem: 0 75<197.837 352.163> 600 75<198.234 351.766> 725 75<110.916 178.277 240.916 308.277 370.916 438.277>
VStem: 50 75<147.483 528.178> 107 75<728.916 796.277> 237 75<728.916 796.277> 367 75<728.916 796.277> 425 75<147.483 528.178>
LayerCount: 2
Fore
SplineSet
312 763 m 4xe4
 312 743 295 725 275 725 c 4
 255 725 237 743 237 763 c 4
 237 783 255 800 275 800 c 4
 295 800 312 783 312 763 c 4xe4
442 763 m 4xe6
 442 743 425 725 405 725 c 4
 385 725 367 743 367 763 c 4
 367 783 385 800 405 800 c 4
 425 800 442 783 442 763 c 4xe6
182 763 m 4xec
 182 743 165 725 145 725 c 4
 125 725 107 743 107 763 c 4
 107 783 125 800 145 800 c 4
 165 800 182 783 182 763 c 4xec
500 451 m 0xf5
 500 450 l 2
 500 225 l 1
 500 224 l 2
 500 199 495 174 487 150 c 0
 485 146 485 143 483 139 c 0
 471 111 455 87 434 66 c 0
 413 45 389 29 361 17 c 0
 333 5 305 0 275 0 c 0
 245 0 217 5 189 17 c 0
 161 29 137 45 116 66 c 0
 95 87 79 111 67 139 c 0
 65 143 65 146 63 150 c 0
 55 174 50 199 50 224 c 2
 50 225 l 1
 50 450 l 1
 50 451 l 1
 50 476 55 501 63 525 c 0
 65 529 65 532 67 536 c 0
 79 564 95 588 116 609 c 0
 137 630 161 646 189 658 c 0
 217 670 245 675 275 675 c 0
 305 675 333 670 361 658 c 0
 389 646 413 630 434 609 c 0
 455 588 471 564 483 536 c 0
 485 532 485 529 487 525 c 0
 495 501 500 476 500 451 c 0xf5
136 508 m 0
 128 490 125 471 125 451 c 2
 125 224 l 2
 125 204 128 186 136 168 c 0
 144 150 155 133 169 119 c 0
 183 105 200 94 218 86 c 0
 236 78 255 75 275 75 c 0
 295 75 314 78 332 86 c 0
 350 94 367 105 381 119 c 0
 395 133 406 150 414 168 c 0
 422 186 425 204 425 224 c 2
 425 451 l 2
 425 471 422 490 414 508 c 0
 406 526 395 542 381 556 c 0
 367 570 350 580 332 588 c 0
 314 596 295 600 275 600 c 0
 255 600 236 596 218 588 c 0
 200 580 183 570 169 556 c 0
 155 542 144 526 136 508 c 0
EndSplineSet
EndChar

StartChar: Udieresis
Encoding: 220 220 148
Width: 550
Flags: W
HStem: 0 75<197.701 353.296> 655 20G<150 165 385 399.5> 725 75<110.916 178.277 240.916 308.277 370.916 438.277>
VStem: 50 75<148.007 570.309> 107 75<728.916 796.277> 237 75<728.916 796.277> 367 75<728.916 796.277> 425 75<146.942 571.255>
LayerCount: 2
Fore
SplineSet
312 763 m 4xe4
 312 743 295 725 275 725 c 4
 255 725 237 743 237 763 c 4
 237 783 255 800 275 800 c 4
 295 800 312 783 312 763 c 4xe4
442 763 m 4xe6
 442 743 425 725 405 725 c 4
 385 725 367 743 367 763 c 4
 367 783 385 800 405 800 c 4
 425 800 442 783 442 763 c 4xe6
182 763 m 4xec
 182 743 165 725 145 725 c 4
 125 725 107 743 107 763 c 4
 107 783 125 800 145 800 c 4
 165 800 182 783 182 763 c 4xec
192 638 m 0
 192 626 186 615 178 608 c 0
 154 588 138 562 130 532 c 0
 126 519 125 507 125 494 c 2
 125 225 l 2
 125 207 128 190 134 174 c 0
 144 145 163 120 189 102 c 0
 215 84 244 75 275 75 c 0
 306 75 337 84 362 102 c 0
 387 120 406 145 416 174 c 0
 422 190 425 208 425 225 c 2
 425 494 l 2
 425 508 424 520 420 533 c 0
 412 562 395 588 372 608 c 2
 363 615 358 626 358 638 c 0
 358 658 375 675 395 675 c 0
 404 675 412 671 418 666 c 1
 454 636 480 597 492 553 c 0
 498 533 500 514 500 494 c 2
 500 225 l 2
 500 199 495 173 486 149 c 0
 470 105 442 67 404 41 c 0
 366 15 322 0 276 0 c 0
 230 0 184 14 146 40 c 0
 108 66 80 104 64 148 c 0
 55 172 50 199 50 225 c 2
 50 494 l 2xf5
 50 514 53 533 58 552 c 0
 70 596 94 636 130 666 c 0
 136 672 145 675 155 675 c 0
 175 675 192 658 192 638 c 0
EndSplineSet
EndChar

StartChar: Ucircumflex
Encoding: 219 219 149
Width: 550
Flags: W
HStem: 0 75<197.701 353.296> 655 20G<150 165 385 399.5>
VStem: 50 75<148.007 570.309> 425 75<146.942 571.255>
LayerCount: 2
Fore
SplineSet
270 860 m 4
 272 860 274 860 276 860 c 4
 281 859 286 857 288 852 c 6
 331 746 l 6
 334 738 330 730 322 727 c 4
 314 724 306 728 303 736 c 6
 274 807 l 5
 244 736 l 6
 241 728 232 724 224 727 c 4
 216 730 213 738 216 746 c 6
 260 852 l 6
 262 857 266 859 270 860 c 4
192 638 m 0
 192 626 186 615 178 608 c 0
 154 588 138 562 130 532 c 0
 126 519 125 507 125 494 c 2
 125 225 l 2
 125 207 128 190 134 174 c 0
 144 145 163 120 189 102 c 0
 215 84 244 75 275 75 c 0
 306 75 337 84 362 102 c 0
 387 120 406 145 416 174 c 0
 422 190 425 208 425 225 c 2
 425 494 l 2
 425 508 424 520 420 533 c 0
 412 562 395 588 372 608 c 2
 363 615 358 626 358 638 c 0
 358 658 375 675 395 675 c 0
 404 675 412 671 418 666 c 1
 454 636 480 597 492 553 c 0
 498 533 500 514 500 494 c 2
 500 225 l 2
 500 199 495 173 486 149 c 0
 470 105 442 67 404 41 c 0
 366 15 322 0 276 0 c 0
 230 0 184 14 146 40 c 0
 108 66 80 104 64 148 c 0
 55 172 50 199 50 225 c 2
 50 494 l 2
 50 514 53 533 58 552 c 0
 70 596 94 636 130 666 c 0
 136 672 145 675 155 675 c 0
 175 675 192 658 192 638 c 0
EndSplineSet
EndChar

StartChar: Uacute
Encoding: 218 218 150
Width: 550
Flags: W
HStem: 0 75<197.701 353.296> 655 20G<150 165 385 399.5>
VStem: 50 75<148.007 570.309> 425 75<146.942 571.255>
LayerCount: 2
Fore
SplineSet
346 824 m 6
 296 737 l 6
 289 725 274 721 262 728 c 4
 250 735 247 750 254 762 c 6
 304 848 l 6
 311 860 326 865 338 858 c 4
 350 851 353 836 346 824 c 6
192 638 m 0
 192 626 186 615 178 608 c 0
 154 588 138 562 130 532 c 0
 126 519 125 507 125 494 c 2
 125 225 l 2
 125 207 128 190 134 174 c 0
 144 145 163 120 189 102 c 0
 215 84 244 75 275 75 c 0
 306 75 337 84 362 102 c 0
 387 120 406 145 416 174 c 0
 422 190 425 208 425 225 c 2
 425 494 l 2
 425 508 424 520 420 533 c 0
 412 562 395 588 372 608 c 2
 363 615 358 626 358 638 c 0
 358 658 375 675 395 675 c 0
 404 675 412 671 418 666 c 1
 454 636 480 597 492 553 c 0
 498 533 500 514 500 494 c 2
 500 225 l 2
 500 199 495 173 486 149 c 0
 470 105 442 67 404 41 c 0
 366 15 322 0 276 0 c 0
 230 0 184 14 146 40 c 0
 108 66 80 104 64 148 c 0
 55 172 50 199 50 225 c 2
 50 494 l 2
 50 514 53 533 58 552 c 0
 70 596 94 636 130 666 c 0
 136 672 145 675 155 675 c 0
 175 675 192 658 192 638 c 0
EndSplineSet
EndChar

StartChar: Ugrave
Encoding: 217 217 151
Width: 550
Flags: W
HStem: 0 75<197.701 353.296> 655 20G<150 165 385 399.5>
VStem: 50 75<148.007 570.309> 425 75<146.942 571.255>
LayerCount: 2
Fore
SplineSet
203 824 m 6
 196 836 201 851 213 858 c 4
 225 865 240 860 247 848 c 6
 297 762 l 6
 304 750 299 735 287 728 c 4
 275 721 260 725 253 737 c 6
 203 824 l 6
192 638 m 0
 192 626 186 615 178 608 c 0
 154 588 138 562 130 532 c 0
 126 519 125 507 125 494 c 2
 125 225 l 2
 125 207 128 190 134 174 c 0
 144 145 163 120 189 102 c 0
 215 84 244 75 275 75 c 0
 306 75 337 84 362 102 c 0
 387 120 406 145 416 174 c 0
 422 190 425 208 425 225 c 2
 425 494 l 2
 425 508 424 520 420 533 c 0
 412 562 395 588 372 608 c 2
 363 615 358 626 358 638 c 0
 358 658 375 675 395 675 c 0
 404 675 412 671 418 666 c 1
 454 636 480 597 492 553 c 0
 498 533 500 514 500 494 c 2
 500 225 l 2
 500 199 495 173 486 149 c 0
 470 105 442 67 404 41 c 0
 366 15 322 0 276 0 c 0
 230 0 184 14 146 40 c 0
 108 66 80 104 64 148 c 0
 55 172 50 199 50 225 c 2
 50 494 l 2
 50 514 53 533 58 552 c 0
 70 596 94 636 130 666 c 0
 136 672 145 675 155 675 c 0
 175 675 192 658 192 638 c 0
EndSplineSet
EndChar

StartChar: Yacute
Encoding: 221 221 152
Width: 550
Flags: W
HStem: 0 21G<265 285> 655 20G<150.5 165 385 400>
VStem: 238 74<3.51019 276.809>
LayerCount: 2
Fore
SplineSet
346 824 m 6
 296 737 l 6
 289 725 274 721 262 728 c 4
 250 735 247 750 254 762 c 6
 304 848 l 6
 311 860 326 865 338 858 c 4
 350 851 353 836 346 824 c 6
192 638 m 0
 192 626 187 615 178 608 c 0
 155 588 138 562 130 533 c 0
 122 503 124 471 134 442 c 0
 144 413 163 388 188 370 c 0
 213 352 244 344 275 344 c 0
 306 344 335 352 361 370 c 0
 387 388 406 413 416 442 c 0
 426 471 428 502 420 532 c 0
 412 562 396 588 372 608 c 0
 364 615 358 626 358 638 c 0
 358 658 375 675 395 675 c 0
 405 675 414 672 420 666 c 0
 456 636 480 596 492 552 c 0
 504 508 502 460 486 416 c 0
 470 372 442 335 404 309 c 0
 376 290 344 278 312 272 c 1
 312 38 l 2
 312 18 295 0 275 0 c 0
 255 0 238 18 238 38 c 2
 238 272 l 1
 205 278 174 290 146 310 c 0
 108 336 80 374 64 418 c 0
 48 462 46 509 58 553 c 0
 70 597 96 636 132 666 c 1
 138 671 146 675 155 675 c 0
 175 675 192 658 192 638 c 0
EndSplineSet
EndChar

StartChar: Igrave
Encoding: 204 204 153
Width: 441
Flags: W
HStem: 0 21G<205 235> 655 20G<205 235>
VStem: 183 75<80 595>
LayerCount: 2
Fore
SplineSet
147 824 m 6
 140 836 145 851 157 858 c 4
 169 865 184 860 191 848 c 6
 241 762 l 6
 248 750 243 735 231 728 c 4
 219 721 204 725 197 737 c 6
 147 824 l 6
258 595 m 1
 258 80 l 1
 265 82 272 84 278 86 c 0
 296 94 313 105 327 119 c 1
 334 126 344 130 354 130 c 0
 374 130 392 113 392 93 c 0
 392 83 387 73 380 66 c 1
 359 45 335 29 307 17 c 0
 279 5 250 0 220 0 c 0
 190 0 162 5 134 17 c 0
 106 29 83 45 62 66 c 1
 55 73 50 83 50 93 c 0
 50 113 68 130 88 130 c 0
 98 130 107 126 114 119 c 1
 128 105 146 94 164 86 c 0
 170 84 176 82 183 80 c 1
 183 595 l 1
 176 593 170 590 164 588 c 0
 146 580 128 570 114 556 c 1
 107 549 98 544 88 544 c 0
 68 544 50 562 50 582 c 0
 50 592 55 602 62 609 c 1
 83 630 106 646 134 658 c 0
 162 670 190 675 220 675 c 0
 250 675 279 670 307 658 c 0
 335 646 359 630 380 609 c 1
 387 602 392 592 392 582 c 0
 392 562 374 544 354 544 c 0
 344 544 334 549 327 556 c 1
 313 570 296 580 278 588 c 0
 272 590 265 593 258 595 c 1
EndSplineSet
EndChar

StartChar: Iacute
Encoding: 205 205 154
Width: 441
Flags: W
HStem: 0 21G<205 235> 655 20G<205 235>
VStem: 183 75<80 595>
LayerCount: 2
Fore
SplineSet
290 824 m 6
 240 737 l 6
 233 725 218 721 206 728 c 4
 194 735 191 750 198 762 c 6
 248 848 l 6
 255 860 270 865 282 858 c 4
 294 851 297 836 290 824 c 6
258 595 m 1
 258 80 l 1
 265 82 272 84 278 86 c 0
 296 94 313 105 327 119 c 1
 334 126 344 130 354 130 c 0
 374 130 392 113 392 93 c 0
 392 83 387 73 380 66 c 1
 359 45 335 29 307 17 c 0
 279 5 250 0 220 0 c 0
 190 0 162 5 134 17 c 0
 106 29 83 45 62 66 c 1
 55 73 50 83 50 93 c 0
 50 113 68 130 88 130 c 0
 98 130 107 126 114 119 c 1
 128 105 146 94 164 86 c 0
 170 84 176 82 183 80 c 1
 183 595 l 1
 176 593 170 590 164 588 c 0
 146 580 128 570 114 556 c 1
 107 549 98 544 88 544 c 0
 68 544 50 562 50 582 c 0
 50 592 55 602 62 609 c 1
 83 630 106 646 134 658 c 0
 162 670 190 675 220 675 c 0
 250 675 279 670 307 658 c 0
 335 646 359 630 380 609 c 1
 387 602 392 592 392 582 c 0
 392 562 374 544 354 544 c 0
 344 544 334 549 327 556 c 1
 313 570 296 580 278 588 c 0
 272 590 265 593 258 595 c 1
EndSplineSet
EndChar

StartChar: Icircumflex
Encoding: 206 206 155
Width: 441
Flags: W
HStem: 0 21G<205 235> 655 20G<205 235>
VStem: 183 75<80 595>
LayerCount: 2
Fore
SplineSet
216 860 m 4
 218 860 220 860 222 860 c 4
 227 859 232 857 234 852 c 6
 277 746 l 6
 280 738 276 730 268 727 c 4
 260 724 252 728 249 736 c 6
 220 807 l 5
 190 736 l 6
 187 728 178 724 170 727 c 4
 162 730 159 738 162 746 c 6
 206 852 l 6
 208 857 212 859 216 860 c 4
258 595 m 1
 258 80 l 1
 265 82 272 84 278 86 c 0
 296 94 313 105 327 119 c 1
 334 126 344 130 354 130 c 0
 374 130 392 113 392 93 c 0
 392 83 387 73 380 66 c 1
 359 45 335 29 307 17 c 0
 279 5 250 0 220 0 c 0
 190 0 162 5 134 17 c 0
 106 29 83 45 62 66 c 1
 55 73 50 83 50 93 c 0
 50 113 68 130 88 130 c 0
 98 130 107 126 114 119 c 1
 128 105 146 94 164 86 c 0
 170 84 176 82 183 80 c 1
 183 595 l 1
 176 593 170 590 164 588 c 0
 146 580 128 570 114 556 c 1
 107 549 98 544 88 544 c 0
 68 544 50 562 50 582 c 0
 50 592 55 602 62 609 c 1
 83 630 106 646 134 658 c 0
 162 670 190 675 220 675 c 0
 250 675 279 670 307 658 c 0
 335 646 359 630 380 609 c 1
 387 602 392 592 392 582 c 0
 392 562 374 544 354 544 c 0
 344 544 334 549 327 556 c 1
 313 570 296 580 278 588 c 0
 272 590 265 593 258 595 c 1
EndSplineSet
EndChar

StartChar: Idieresis
Encoding: 207 207 156
Width: 441
Flags: W
HStem: 0 21G<205 235> 655 20G<205 235> 725 75<55.9155 123.277 185.916 253.277 315.916 383.277>
VStem: 52 75<728.916 796.277> 183 75<80 595 729.341 795.871> 312 75<728.916 796.277>
LayerCount: 2
Fore
SplineSet
257 763 m 4
 257 743 240 725 220 725 c 4
 200 725 182 743 182 763 c 4
 182 783 200 800 220 800 c 4
 240 800 257 783 257 763 c 4
387 763 m 4
 387 743 370 725 350 725 c 4
 330 725 312 743 312 763 c 4
 312 783 330 800 350 800 c 4
 370 800 387 783 387 763 c 4
127 763 m 4
 127 743 110 725 90 725 c 4
 70 725 52 743 52 763 c 4
 52 783 70 800 90 800 c 4
 110 800 127 783 127 763 c 4
258 595 m 1
 258 80 l 1
 265 82 272 84 278 86 c 0
 296 94 313 105 327 119 c 1
 334 126 344 130 354 130 c 0
 374 130 392 113 392 93 c 0
 392 83 387 73 380 66 c 1
 359 45 335 29 307 17 c 0
 279 5 250 0 220 0 c 0
 190 0 162 5 134 17 c 0
 106 29 83 45 62 66 c 1
 55 73 50 83 50 93 c 0
 50 113 68 130 88 130 c 0
 98 130 107 126 114 119 c 1
 128 105 146 94 164 86 c 0
 170 84 176 82 183 80 c 1
 183 595 l 1
 176 593 170 590 164 588 c 0
 146 580 128 570 114 556 c 1
 107 549 98 544 88 544 c 0
 68 544 50 562 50 582 c 0
 50 592 55 602 62 609 c 1
 83 630 106 646 134 658 c 0
 162 670 190 675 220 675 c 0
 250 675 279 670 307 658 c 0
 335 646 359 630 380 609 c 1
 387 602 392 592 392 582 c 0
 392 562 374 544 354 544 c 0
 344 544 334 549 327 556 c 1
 313 570 296 580 278 588 c 0
 272 590 265 593 258 595 c 1
EndSplineSet
EndChar

StartChar: Ntilde
Encoding: 209 209 157
Width: 550
Flags: W
HStem: 0 21G<78 98> 655 20G<452 472> 724 38<278.915 389.527> 762 37<167.373 266.016>
VStem: 50 75<3.91553 526.16> 425 75<147.886 671.277>
LayerCount: 2
Fore
SplineSet
218 799 m 4xdc
 242 799 266 790 286 776 c 4
 299 766 314 762 330 762 c 4xec
 346 762 362 766 375 776 c 4
 378 778 382 780 386 780 c 4
 396 780 405 772 405 762 c 4xdc
 405 756 402 750 398 746 c 4
 378 732 354 724 330 724 c 4xec
 306 724 283 732 263 746 c 4
 250 756 234 762 218 762 c 4
 202 762 187 756 174 746 c 4
 171 744 166 743 162 743 c 4
 152 743 144 752 144 762 c 4
 144 768 148 772 152 776 c 4
 172 790 194 799 218 799 c 4xdc
457 92 m 0
 429 54 390 27 346 12 c 0
 342 10 337 9 333 9 c 0
 315 9 299 22 296 40 c 2
 190 574 l 1
 176 564 164 552 154 538 c 0
 136 513 125 483 125 452 c 2
 125 38 l 2
 125 18 108 0 88 0 c 0
 68 0 50 18 50 38 c 2
 50 452 l 1
 50 498 65 544 93 582 c 0
 121 620 160 649 204 664 c 0
 208 666 213 666 217 666 c 0
 235 666 251 653 254 635 c 2
 360 102 l 1
 374 112 386 123 396 137 c 0
 414 162 425 193 425 224 c 2
 425 638 l 2
 425 658 442 675 462 675 c 0
 482 675 500 658 500 638 c 2
 500 222 l 1
 500 176 485 130 457 92 c 0
EndSplineSet
EndChar

StartChar: igrave
Encoding: 236 236 158
Width: 441
Flags: W
HStem: 0 21G<205 235> 430 20G<210 230>
VStem: 183 75<80 446.084>
LayerCount: 2
Fore
SplineSet
148 638 m 6
 141 650 146 665 158 672 c 4
 170 679 185 674 192 662 c 6
 242 576 l 6
 249 564 244 549 232 542 c 4
 220 535 205 539 198 551 c 6
 148 638 l 6
380 66 m 1
 359 45 335 29 307 17 c 0
 279 5 250 0 220 0 c 0
 190 0 162 5 134 17 c 0
 106 29 83 45 62 66 c 1
 55 73 50 83 50 93 c 0
 50 113 68 130 88 130 c 0
 98 130 107 126 114 119 c 1
 128 105 146 94 164 86 c 0
 170 84 176 82 183 80 c 1
 183 412 l 2
 183 432 200 450 220 450 c 0
 240 450 258 432 258 412 c 2
 258 80 l 1
 265 82 272 84 278 86 c 0
 296 94 313 105 327 119 c 1
 334 126 344 130 354 130 c 0
 374 130 392 113 392 93 c 0
 392 83 387 73 380 66 c 1
EndSplineSet
EndChar

StartChar: iacute
Encoding: 237 237 159
Width: 441
Flags: W
HStem: 0 21G<205 235> 430 20G<210 230>
VStem: 183 75<80 446.084>
LayerCount: 2
Fore
SplineSet
291 638 m 6
 241 551 l 6
 234 539 219 535 207.115234375 541.932617188 c 4
 195 549 192 564 199 576 c 6
 249 662 l 6
 256 674 271 679 283.111328125 671.935546875 c 4
 295 665 298 650 291 638 c 6
380 66 m 1
 359 45 335 29 307 17 c 0
 279 5 250 0 220 0 c 0
 190 0 162 5 134 17 c 0
 106 29 83 45 62 66 c 1
 55 73 50 83 50 93 c 0
 50 113 68 130 88 130 c 0
 98 130 107 126 114 119 c 1
 128 105 146 94 164 86 c 0
 170 84 176 82 183 80 c 1
 183 412 l 2
 183 432 200 450 220 450 c 0
 240 450 258 432 258 412 c 2
 258 80 l 1
 265 82 272 84 278 86 c 0
 296 94 313 105 327 119 c 1
 334 126 344 130 354 130 c 0
 374 130 392 113 392 93 c 0
 392 83 387 73 380 66 c 1
EndSplineSet
EndChar

StartChar: icircumflex
Encoding: 238 238 160
Width: 441
Flags: W
HStem: 0 21G<205 235> 430 20G<210 230> 654 20G<214 224.5>
VStem: 183 75<80 446.084>
LayerCount: 2
Fore
SplineSet
216 674 m 4
 218 674 220 674 222 674 c 4
 227 673 232 671 234 666 c 6
 277 560 l 6
 280 552 276 544 268 541 c 4
 260 538 252 542 249 550 c 6
 220 621 l 5
 190 550 l 6
 187 542 178 538 170 541 c 4
 162 544 159 552 162 560 c 6
 206 666 l 6
 208 671 212 673 216 674 c 4
380 66 m 1
 359 45 335 29 307 17 c 0
 279 5 250 0 220 0 c 0
 190 0 162 5 134 17 c 0
 106 29 83 45 62 66 c 1
 55 73 50 83 50 93 c 0
 50 113 68 130 88 130 c 0
 98 130 107 126 114 119 c 1
 128 105 146 94 164 86 c 0
 170 84 176 82 183 80 c 1
 183 412 l 2
 183 432 200 450 220 450 c 0
 240 450 258 432 258 412 c 2
 258 80 l 1
 265 82 272 84 278 86 c 0
 296 94 313 105 327 119 c 1
 334 126 344 130 354 130 c 0
 374 130 392 113 392 93 c 0
 392 83 387 73 380 66 c 1
EndSplineSet
EndChar

StartChar: idieresis
Encoding: 239 239 161
Width: 441
Flags: W
HStem: 0 21G<205 235> 430 20G<210 230> 550 75<65.9155 133.277 185.916 253.277 305.916 373.277>
VStem: 62 75<553.916 621.277> 183 75<80 446.084 554.341 620.871> 302 75<553.916 621.277>
LayerCount: 2
Fore
SplineSet
257 588 m 4
 257 568 240 550 220 550 c 4
 200 550 182 568 182 588 c 4
 182 608 200 625 220 625 c 4
 240 625 257 608 257 588 c 4
377 588 m 4
 377 568 360 550 340 550 c 4
 320 550 302 568 302 588 c 4
 302 608 320 625 340 625 c 4
 360 625 377 608 377 588 c 4
137 588 m 4
 137 568 120 550 100 550 c 4
 80 550 62 568 62 588 c 4
 62 608 80 625 100 625 c 4
 120 625 137 608 137 588 c 4
380 66 m 1
 359 45 335 29 307 17 c 0
 279 5 250 0 220 0 c 0
 190 0 162 5 134 17 c 0
 106 29 83 45 62 66 c 1
 55 73 50 83 50 93 c 0
 50 113 68 130 88 130 c 0
 98 130 107 126 114 119 c 1
 128 105 146 94 164 86 c 0
 170 84 176 82 183 80 c 1
 183 412 l 2
 183 432 200 450 220 450 c 0
 240 450 258 432 258 412 c 2
 258 80 l 1
 265 82 272 84 278 86 c 0
 296 94 313 105 327 119 c 1
 334 126 344 130 354 130 c 0
 374 130 392 113 392 93 c 0
 392 83 387 73 380 66 c 1
EndSplineSet
EndChar

StartChar: questiondown
Encoding: 191 191 162
Width: 550
Flags: W
HStem: 180 75<196.04 304.277> 405 75<237.723 304.277>
VStem: 234 74<408.336 476.49> 421 75<-48.268 64.0845>
LayerCount: 2
Fore
SplineSet
458 -95 m 0
 434 -132 398 -161 357 -178 c 4
 316 -195 271 -198 227 -190 c 4
 183 -182 144 -161 112 -129 c 0
 80 -97 58 -58 50 -14 c 0
 42 30 46 75 63 116 c 0
 80 157 109 193 146 217 c 0
 183 241 227 255 271 255 c 0
 291 255 308 238 308 218 c 0
 308 198 291 180 271 180 c 0
 270 180 l 0
 240 180 212 170 188 154 c 0
 164 138 144 116 132 88 c 0
 120 60 118 29 124 0 c 0
 130 -29 144 -55 165 -76 c 0
 186 -97 213 -111 242 -117 c 0
 271 -123 300 -120 328 -108 c 0
 356 -96 380 -78 396 -54 c 0
 412 -30 421 0 421 30 c 2
 421 50 438 68 458 68 c 0
 478 68 496 50 496 30 c 0
 496 -14 482 -58 458 -95 c 0
271 480 m 0
 291 480 308 462 308 442 c 0
 308 422 291 405 271 405 c 0
 251 405 234 422 234 442 c 0
 234 462 251 480 271 480 c 0
EndSplineSet
EndChar

StartChar: exclamdown
Encoding: 161 161 163
Width: 175
Flags: W
HStem: 406 75<53.7227 121.084>
VStem: 50 75<-190.277 252.277 409.723 477.084>
LayerCount: 2
Fore
SplineSet
50 443 m 4
 50 463 67 481 87 481 c 4
 107 481 125 463 125 443 c 4
 125 423 107 406 87 406 c 4
 67 406 50 423 50 443 c 4
125 -157 m 6
 125 -177 107 -194 87 -194 c 4
 67 -194 50 -177 50 -157 c 6
 50 219 l 6
 50 239 67 256 87 256 c 4
 107 256 125 239 125 219 c 6
 125 -157 l 6
EndSplineSet
EndChar
